<?xml version="1.0" standalone="no"?>
<!DOCTYPE svg PUBLIC "-//W3C//DTD SVG 20010904//EN"
 "http://www.w3.org/TR/2001/REC-SVG-20010904/DTD/svg10.dtd">
<svg version="1.0" xmlns="http://www.w3.org/2000/svg"
 width="1076.000000pt" height="1280.000000pt" viewBox="0 0 1076.000000 1280.000000"
 preserveAspectRatio="xMidYMid meet">
<metadata>
Created by potrace 1.15, written by Peter Selinger 2001-2017
</metadata>
<g transform="translate(0.000000,1280.000000) scale(0.100000,-0.100000)"
fill="#000000" stroke="none">
<path d="M10080 12791 c-90 -18 -101 -31 -246 -280 -69 -119 -135 -228 -147
-242 l-22 -27 -545 -10 c-300 -6 -554 -12 -565 -14 -39 -6 -30 46 26 156 l52
103 -71 94 c-79 107 -105 133 -145 148 -39 15 -306 35 -351 27 -72 -14 -85
-35 -315 -495 -210 -422 -360 -706 -654 -1241 -77 -140 -186 -343 -242 -450
-56 -107 -126 -235 -155 -285 -76 -129 -344 -663 -381 -759 -41 -108 -45 -111
-107 -96 -122 29 -151 -18 -650 -1052 -209 -432 -242 -508 -225 -508 15 0 68
99 343 641 298 585 398 774 438 828 l25 34 73 -6 c101 -9 322 -53 779 -157
362 -82 542 -121 917 -200 199 -42 224 -51 220 -81 -14 -91 -596 -1210 -1008
-1938 -251 -442 -314 -535 -314 -458 0 34 37 105 174 335 151 255 331 582 451
822 48 96 182 357 298 580 279 537 305 597 261 614 -22 8 -34 -1 -34 -26 0
-41 -221 -517 -363 -783 -35 -66 -125 -235 -199 -375 -202 -381 -424 -785
-480 -872 -51 -80 -117 -148 -143 -148 -9 0 -34 9 -56 21 -25 12 -76 24 -130
30 -115 12 -204 31 -684 149 -220 54 -444 108 -497 120 -54 12 -100 26 -103
30 -7 12 42 37 96 49 32 7 49 6 69 -4 58 -30 439 -131 945 -250 110 -26 222
-59 249 -72 28 -14 75 -28 107 -30 l57 -6 92 184 c51 101 163 317 248 479 189
360 702 1387 702 1406 0 28 -21 12 -50 -38 -17 -29 -94 -179 -171 -333 -78
-154 -199 -390 -269 -525 -70 -135 -204 -393 -297 -575 -194 -377 -251 -476
-276 -483 -13 -3 -17 -12 -15 -30 5 -42 -22 -50 -84 -24 -71 29 -205 66 -563
157 -364 93 -635 163 -655 171 -8 3 73 41 185 85 110 44 298 118 417 165 148
59 225 85 243 82 19 -4 33 2 53 22 26 25 126 70 157 70 8 0 15 -7 15 -16 0
-12 11 -7 39 19 48 43 138 78 211 82 51 3 58 6 92 46 l37 43 81 -3 c68 -2 85
1 109 19 33 23 41 25 41 8 0 -6 -78 -163 -174 -347 -171 -328 -247 -486 -227
-466 11 11 265 496 406 775 46 91 101 192 123 225 72 112 296 542 371 713 31
70 32 75 16 92 -32 35 -168 72 -790 211 -542 122 -524 119 -557 112 -50 -10
-99 -82 -237 -349 -205 -394 -418 -791 -452 -840 -54 -79 -89 -47 -41 38 75
133 328 620 459 883 79 160 155 301 168 314 19 19 37 26 85 29 106 8 282 -27
915 -182 349 -85 520 -120 505 -103 -6 6 -254 69 -535 136 -71 17 -233 56
-360 86 -342 83 -448 105 -512 105 -64 0 -102 -19 -135 -66 -10 -16 -127 -245
-260 -509 -132 -264 -260 -510 -284 -547 -120 -186 -118 -226 10 -252 73 -15
113 -40 83 -52 -9 -3 -74 2 -144 12 -136 18 -291 24 -334 12 -33 -10 -46 -38
-24 -54 9 -7 76 -13 163 -16 82 -3 154 -8 160 -12 7 -4 -3 -21 -27 -45 -26
-26 -67 -95 -120 -202 -45 -90 -81 -167 -81 -171 0 -11 38 -10 60 2 10 5 24
27 31 47 31 96 156 309 213 362 24 22 29 23 65 13 84 -26 366 -9 441 26 34 16
32 17 -137 22 -94 3 -175 9 -179 13 -12 11 12 24 58 31 24 4 41 13 45 24 22
67 59 130 94 162 l40 37 -16 56 c-9 32 -22 57 -29 57 -11 0 -42 -40 -143 -188
-24 -35 -43 -75 -43 -88 0 -27 -31 -44 -80 -44 -59 0 -62 7 -26 63 18 29 61
106 96 172 35 66 125 235 200 375 76 140 163 307 195 370 66 133 93 166 149
181 83 23 263 -13 1012 -201 277 -69 315 -107 126 -124 -84 -7 -127 -23 -159
-58 -13 -13 -62 -82 -111 -153 -64 -95 -97 -134 -121 -146 -21 -10 -30 -19
-23 -23 17 -10 123 -26 134 -20 4 3 1 18 -8 34 -16 26 -16 30 5 71 32 66 133
211 157 226 19 12 25 11 52 -12 38 -32 46 -31 71 4 23 31 68 48 84 32 17 -17
-19 -115 -82 -226 -32 -55 -89 -158 -126 -230 -68 -131 -155 -285 -159 -285
-2 0 -1 24 2 53 7 90 -40 147 -120 147 -94 -1 -107 -34 -18 -43 128 -14 146
-59 69 -179 -35 -54 -80 -88 -117 -88 -29 0 -88 57 -97 92 -4 16 3 47 19 86
13 34 21 64 16 67 -4 3 -27 -17 -50 -45 -47 -56 -67 -61 -140 -35 -23 8 -45
15 -47 15 -3 0 -3 -28 -1 -62 l3 -63 -100 -39 c-358 -139 -951 -378 -1120
-451 -261 -113 -253 -110 -261 -102 -9 8 15 69 106 270 80 177 91 240 18 107
-55 -101 -156 -330 -165 -370 -6 -31 -42 -50 -94 -50 -24 0 -29 -4 -29 -25 0
-14 3 -25 6 -25 4 0 259 101 568 224 1085 433 1066 426 1099 413 50 -19 -1
-56 -171 -122 -81 -31 -367 -145 -637 -252 -269 -108 -575 -226 -679 -264
-104 -37 -197 -76 -207 -85 -11 -10 -22 -14 -26 -11 -6 7 3 86 39 327 11 74
22 147 23 162 1 14 9 37 17 50 36 56 118 295 118 345 0 25 -14 31 -27 11 -4
-7 -17 -40 -28 -73 -12 -33 -52 -124 -88 -202 -75 -157 -90 -216 -106 -406 -9
-104 -16 -141 -41 -198 -16 -39 -30 -77 -30 -84 0 -7 -7 -19 -17 -26 -15 -13
-16 -10 -11 29 10 68 -15 36 -52 -68 -40 -109 -64 -150 -89 -150 -43 0 -82 76
-133 255 -57 203 -8 506 118 733 78 139 191 238 266 230 31 -3 31 -3 -43 -60
-99 -76 -181 -162 -213 -226 -34 -66 -78 -232 -74 -275 l3 -32 21 40 c12 22
36 85 53 140 37 115 57 150 126 224 41 44 149 137 215 185 27 20 -33 -57 -127
-162 -98 -110 -140 -183 -168 -287 -17 -68 -19 -101 -6 -110 16 -9 40 35 67
125 36 117 63 166 136 247 35 38 84 93 110 123 l48 55 -21 -50 c-11 -27 -54
-106 -96 -173 -42 -68 -86 -155 -100 -193 -27 -78 -41 -193 -25 -202 13 -9 27
31 47 128 16 85 60 187 119 279 60 93 87 156 93 211 5 44 2 56 -16 74 -37 37
-108 20 -204 -48 -49 -35 -114 -49 -138 -29 -9 7 -33 50 -52 96 -51 120 -93
186 -169 267 -138 147 -299 188 -451 115 l-42 -20 60 8 c169 20 279 -3 357
-76 57 -53 165 -192 184 -237 7 -16 24 -45 38 -64 36 -49 34 -69 -10 -77 -38
-7 -116 -3 -467 26 -125 11 -234 17 -242 13 -20 -7 -19 -56 3 -82 23 -30 59
-36 374 -71 150 -17 282 -33 295 -36 52 -13 15 -42 -71 -56 -47 -8 -67 -16
-71 -28 -3 -10 -14 -25 -25 -35 -36 -32 -23 -155 16 -155 27 0 39 46 25 101
-14 54 -5 79 28 79 36 0 56 -50 27 -67 -7 -4 -16 -26 -19 -48 -3 -22 -10 -76
-16 -121 -28 -208 -91 -259 -177 -143 -35 47 -32 95 9 155 60 87 71 161 30
206 -23 26 -58 22 -120 -13 -60 -35 -77 -30 -71 17 2 24 8 29 33 32 63 5 78
12 65 27 -7 8 -27 17 -46 21 -70 13 -104 -43 -73 -122 11 -32 -2 -47 -74 -85
-30 -16 -42 -18 -53 -8 -37 30 -164 528 -164 643 0 20 15 47 45 84 66 80 59
98 -13 37 -24 -22 -54 -63 -74 -103 -29 -58 -33 -78 -36 -162 -3 -73 1 -115
18 -179 11 -46 20 -85 18 -86 -2 -2 -37 42 -78 97 -100 135 -272 297 -393 372
l-95 58 24 52 c13 28 24 63 24 77 0 47 30 62 145 70 166 12 208 30 241 106 15
33 33 58 49 65 25 11 28 18 40 74 3 18 15 40 26 50 17 15 19 26 13 70 l-6 52
40 7 c87 14 120 94 84 206 -11 35 -26 97 -33 137 -11 67 -11 79 5 120 28 72
33 104 23 144 -8 31 -6 43 11 70 97 156 117 219 109 343 -6 96 -32 169 -92
261 -25 37 -51 88 -59 113 -7 25 -19 64 -26 86 -44 148 -222 252 -469 276 -58
5 -111 12 -117 14 -6 2 -14 19 -18 39 -7 37 -37 66 -70 66 -29 0 -118 -72
-146 -119 -26 -43 -25 -43 -211 -95 -61 -17 -156 -76 -203 -125 -39 -41 -19
-39 58 4 100 56 290 123 301 106 6 -11 -33 -45 -80 -69 -41 -20 -95 -68 -95
-83 0 -12 -6 -13 93 20 47 16 106 43 130 60 51 35 97 86 97 107 0 23 -22 16
-47 -13 -14 -18 -22 -23 -23 -13 0 24 45 113 67 133 19 17 22 17 37 2 9 -9 16
-22 16 -29 0 -27 44 -68 140 -131 53 -35 119 -88 145 -117 46 -51 95 -137 95
-168 0 -8 7 -27 14 -42 8 -15 18 -53 21 -85 16 -127 45 -120 45 11 0 205 -83
346 -256 435 -75 38 -77 40 -43 41 56 0 131 -44 206 -123 78 -82 134 -181 159
-280 9 -37 20 -67 25 -67 5 0 9 21 9 48 1 60 15 37 23 -36 8 -71 40 -120 93
-144 51 -22 74 -51 74 -93 0 -66 -35 -89 -233 -155 -123 -41 -131 -42 -220
-37 -73 4 -116 14 -212 47 l-120 42 -115 -5 c-126 -5 -228 -31 -293 -73 -38
-25 -48 -44 -23 -44 7 0 55 14 105 30 99 33 216 60 259 60 50 0 5 -23 -80 -41
-91 -19 -158 -44 -158 -59 0 -18 67 -10 165 20 55 17 117 29 144 29 l46 -1
-49 -9 c-30 -5 -59 -17 -75 -33 -17 -16 -39 -26 -57 -26 -17 0 -63 -20 -109
-46 -90 -52 -145 -74 -184 -74 -14 0 -75 25 -136 55 -60 30 -135 60 -165 65
-30 6 -57 14 -61 18 -11 11 10 356 24 399 9 28 23 44 53 60 36 20 47 35 83
113 22 50 41 96 41 101 0 24 -28 -2 -75 -68 -27 -38 -73 -92 -100 -119 -57
-55 -77 -106 -96 -239 -19 -140 3 -274 56 -337 14 -16 25 -42 25 -57 0 -48
-50 -129 -130 -211 -129 -130 -167 -219 -157 -367 9 -156 97 -288 242 -365
l69 -36 -38 -7 c-78 -15 -111 -68 -136 -219 -16 -97 -28 -121 -106 -207 -68
-74 -116 -150 -161 -254 -57 -134 -58 -471 -2 -810 27 -160 40 -211 104 -400
40 -119 62 -205 84 -335 44 -257 83 -371 160 -468 24 -30 40 -56 37 -59 -3 -3
-43 -9 -89 -13 -103 -10 -170 -39 -271 -120 -132 -106 -230 -241 -332 -457
-63 -131 -81 -153 -126 -153 -28 0 -71 -28 -63 -41 4 -5 15 -9 25 -9 48 0 42
-76 -15 -205 -15 -33 -37 -87 -50 -121 -13 -33 -41 -95 -63 -136 -54 -102 -65
-164 -59 -317 6 -149 24 -224 82 -347 53 -111 97 -157 268 -284 262 -194 256
-191 602 -285 246 -66 314 -95 388 -164 58 -54 80 -104 85 -192 l4 -76 -183
-6 c-282 -11 -1059 10 -1629 43 -96 6 -326 17 -510 25 -184 8 -351 20 -371 25
-20 6 -44 19 -53 29 -17 19 -16 22 22 88 22 37 121 221 222 408 327 609 516
918 849 1388 78 111 92 119 219 128 141 10 167 35 54 50 -143 21 -200 -8 -302
-153 -41 -59 -104 -148 -140 -198 -115 -160 -663 -1050 -790 -1285 -24 -44
-74 -129 -110 -190 -117 -194 -124 -233 -56 -299 51 -50 48 -41 80 -226 43
-246 59 -280 138 -280 l38 0 0 -63 c0 -112 44 -212 105 -240 109 -50 148 -74
199 -119 31 -27 63 -64 72 -82 8 -17 22 -44 30 -59 37 -66 47 -180 48 -502 1
-331 -4 -385 -48 -481 -32 -69 -89 -130 -198 -210 -99 -73 -121 -106 -138
-205 -11 -70 -14 -338 -4 -388 l7 -31 481 1 c514 0 548 3 554 47 2 12 -5 46
-16 75 -82 218 -22 454 138 541 96 52 263 53 375 2 98 -45 179 -153 224 -298
18 -61 30 -149 47 -342 l6 -69 350 5 c348 6 419 14 332 37 -22 6 -156 15 -299
21 -143 6 -272 13 -287 16 -23 5 -28 12 -33 53 -42 311 -107 488 -229 618 -83
90 -177 135 -291 141 -170 9 -342 -56 -428 -163 -108 -133 -197 -371 -182
-484 18 -142 33 -136 -330 -136 -249 0 -284 2 -312 18 -19 10 -35 28 -39 43
-10 40 2 285 16 324 21 58 48 88 123 139 136 91 196 181 223 329 16 93 18 356
4 560 -31 436 -77 539 -291 648 -78 39 -104 68 -125 141 -18 62 -12 91 22 99
14 4 298 1 632 -5 334 -6 740 -11 902 -11 381 0 790 -11 790 -21 0 -5 -9 -32
-20 -61 -25 -68 -94 -146 -175 -199 -79 -52 -103 -93 -115 -196 -16 -141 22
-705 61 -896 39 -196 107 -303 214 -341 138 -49 164 -72 188 -166 18 -70 26
-139 36 -328 6 -125 11 -156 26 -172 27 -29 44 -25 62 17 28 69 3 441 -39 578
-21 66 -28 76 -134 182 -127 126 -161 183 -193 323 -44 190 -69 490 -52 645
14 138 33 187 87 231 24 20 47 47 50 60 7 28 29 31 43 6 5 -10 25 -113 44
-228 20 -115 45 -233 56 -262 12 -29 26 -74 32 -99 9 -43 62 -143 98 -186 9
-10 50 -43 93 -73 43 -30 84 -67 92 -83 26 -49 56 -184 55 -241 -1 -59 9 -130
20 -130 9 0 262 448 307 543 23 49 33 82 27 88 -6 6 -35 -4 -79 -26 -38 -19
-71 -30 -72 -25 -2 6 11 27 28 47 57 65 96 136 135 243 45 127 51 138 128 264
33 55 94 173 134 264 59 133 73 174 73 216 1 46 2 49 15 32 8 -10 33 -54 55
-97 l41 -79 -112 -202 c-113 -203 -259 -488 -279 -544 l-10 -29 23 28 c30 36
63 93 192 332 59 110 165 301 235 425 70 124 221 396 335 605 278 508 590
1068 690 1240 185 316 278 480 375 660 99 182 137 249 427 740 174 293 405
700 454 797 22 43 45 78 53 78 8 0 21 -11 30 -25 9 -14 35 -39 58 -55 70 -51
138 -37 218 45 41 42 70 57 70 37 0 -5 -15 -29 -34 -53 -39 -50 -247 -393
-464 -764 -80 -137 -207 -349 -282 -470 -76 -121 -197 -323 -270 -450 -73
-126 -233 -399 -355 -605 -283 -479 -725 -1261 -1025 -1815 -86 -159 -194
-353 -240 -430 -84 -143 -192 -333 -328 -575 -41 -74 -95 -171 -120 -215 -70
-124 -412 -697 -433 -723 l-18 -23 -16 24 c-27 42 -47 164 -42 257 3 65 11 98
31 142 26 54 27 78 6 78 -6 0 -24 -28 -42 -61 -18 -34 -39 -71 -45 -83 -26
-44 -6 -213 36 -295 12 -22 21 -54 21 -70 0 -16 5 -33 10 -36 6 -3 10 -33 10
-66 0 -103 24 -112 279 -113 l163 -1 175 305 c175 306 216 370 234 370 5 0 9
-8 9 -18 0 -24 25 -47 75 -68 54 -23 193 -23 316 0 116 22 136 16 145 -44 5
-31 16 -48 49 -75 25 -20 48 -50 55 -70 12 -38 17 -40 113 -50 42 -5 90 -23
180 -67 114 -58 126 -61 192 -61 54 0 89 7 154 31 92 35 121 32 121 -14 0 -41
27 -82 73 -108 72 -42 157 -57 372 -67 162 -7 212 -12 265 -30 51 -17 90 -22
185 -23 138 -1 204 14 281 66 71 49 88 77 92 158 l4 70 67 0 c266 0 449 194
304 323 -122 108 -159 164 -172 262 -4 31 -13 61 -20 68 -9 9 -6 15 11 29 22
16 23 24 26 193 7 309 -19 487 -103 699 -25 63 -59 172 -76 242 -16 70 -41
159 -55 198 -28 80 -61 226 -98 431 -14 77 -42 199 -61 270 -69 246 -76 281
-90 450 -22 265 -74 432 -180 580 -58 82 -182 182 -201 162 -7 -6 1 -17 92
-127 63 -76 121 -178 155 -270 38 -107 45 -163 24 -223 -14 -42 -15 -56 -4
-97 10 -39 10 -64 0 -122 -22 -132 -20 -127 -85 -154 -33 -13 -61 -24 -63 -24
-6 0 -2 249 7 443 9 188 18 245 34 218 12 -18 25 -234 26 -401 0 -152 7 -198
26 -169 5 8 10 133 12 279 l3 266 -51 95 c-28 52 -62 109 -75 125 l-24 29 -1
-33 c0 -18 5 -43 11 -55 9 -19 7 -18 -13 4 -57 65 -128 161 -128 175 0 18 42
101 130 259 37 66 120 219 185 340 201 376 377 681 688 1199 165 275 330 547
367 605 111 177 263 446 396 703 70 133 143 268 162 298 33 51 126 217 247
440 203 372 280 509 338 597 69 103 106 176 107 205 0 9 11 29 24 45 34 40
154 253 201 355 22 48 43 88 48 88 4 0 7 -18 7 -41 0 -22 5 -49 10 -59 6 -10
19 -83 31 -162 20 -142 129 -676 174 -858 13 -52 35 -156 50 -230 15 -74 35
-153 45 -175 9 -22 18 -64 19 -94 2 -66 42 -308 76 -468 58 -267 90 -433 186
-953 55 -299 120 -641 145 -760 276 -1320 415 -2020 508 -2562 103 -593 205
-1158 282 -1568 32 -167 184 -1039 184 -1053 0 -3 -22 -21 -49 -41 -67 -49
-116 -50 -165 -2 -42 43 -58 92 -91 281 -14 83 -49 265 -76 405 -101 513 -167
878 -184 1010 -20 157 -27 180 -55 180 -16 0 -19 -5 -15 -22 2 -13 9 -50 14
-83 6 -33 58 -330 115 -660 58 -330 117 -679 131 -775 15 -96 34 -213 45 -260
10 -47 16 -87 14 -89 -6 -7 -73 44 -167 125 -49 42 -100 79 -115 83 -76 20
-101 129 -221 931 -28 184 -69 459 -91 610 -109 741 -193 1241 -330 1980 -27
146 -77 427 -110 625 -87 517 -160 913 -250 1370 -44 220 -101 537 -125 705
-77 515 -159 1013 -246 1490 -63 342 -79 420 -92 420 -12 0 -4 -89 33 -345 15
-110 31 -227 35 -260 4 -33 20 -130 36 -215 27 -141 59 -328 194 -1155 24
-148 69 -394 100 -545 127 -620 157 -783 190 -999 33 -217 153 -942 174 -1046
5 -27 21 -104 36 -170 39 -182 98 -513 155 -880 28 -181 80 -505 115 -720 36
-214 78 -505 95 -645 38 -330 124 -918 145 -995 23 -85 57 -137 117 -181 29
-21 89 -73 133 -115 118 -112 183 -139 335 -139 83 1 265 22 275 32 8 8 -26
221 -100 627 -35 196 -76 426 -90 511 -14 85 -44 245 -65 355 -21 110 -105
556 -185 990 -200 1082 -262 1405 -360 1865 -46 217 -118 571 -160 785 -156
802 -275 1396 -315 1573 -22 101 -53 267 -69 370 -17 103 -37 221 -46 262 -9
41 -65 318 -125 615 -169 839 -196 974 -213 1063 -10 53 -22 88 -33 96 -20 15
-18 20 91 201 117 194 212 369 400 735 213 413 316 607 360 675 17 28 73 129
122 225 50 96 128 243 175 325 475 845 538 961 538 998 0 34 -28 65 -164 186
l-114 101 -143 -1 c-79 -1 -160 -4 -179 -8z m202 -59 c-1 -13 -18 -51 -38 -85
-20 -34 -111 -201 -202 -372 -90 -170 -204 -380 -252 -465 -48 -85 -111 -200
-140 -255 -116 -217 -1318 -2373 -1387 -2488 -46 -77 -75 -91 -154 -77 -122
22 -147 42 -124 96 8 19 27 53 43 76 47 70 182 299 295 503 57 105 138 251
179 325 42 74 184 329 318 565 422 747 529 943 833 1516 167 315 321 586 350
617 45 49 119 71 222 69 57 -2 60 -3 57 -25z m153 -55 c67 -46 133 -108 145
-137 12 -28 11 -32 -9 -46 -12 -9 -33 -39 -47 -67 -15 -29 -40 -70 -56 -92
-41 -57 -106 -171 -214 -383 -52 -101 -110 -208 -130 -239 -19 -30 -89 -154
-155 -276 -66 -121 -185 -336 -263 -476 -79 -141 -221 -400 -316 -576 -239
-441 -369 -675 -449 -809 -89 -147 -286 -501 -441 -791 -67 -126 -184 -336
-260 -465 -205 -351 -247 -426 -375 -660 -64 -118 -158 -286 -207 -374 -50
-87 -99 -181 -110 -209 -11 -28 -52 -105 -92 -171 -40 -67 -142 -238 -226
-381 -84 -143 -197 -332 -250 -420 -54 -88 -171 -293 -260 -455 -89 -162 -198
-360 -243 -440 -44 -80 -99 -179 -122 -220 -22 -41 -100 -167 -171 -280 -72
-113 -153 -243 -179 -290 -27 -47 -92 -159 -146 -250 -82 -140 -201 -353 -586
-1042 -30 -54 -74 -118 -99 -143 -31 -32 -44 -53 -44 -73 0 -15 -10 -47 -22
-70 -208 -387 -309 -561 -355 -610 -24 -25 -43 -53 -43 -63 0 -31 -12 -49 -31
-49 -24 0 -46 -34 -55 -85 -11 -64 -77 -189 -558 -1060 -125 -226 -288 -530
-362 -677 l-135 -268 -37 0 c-82 1 -224 19 -239 31 -11 10 -14 27 -11 70 5 71
52 169 186 391 143 237 266 451 447 778 87 157 204 364 260 460 163 279 348
608 570 1016 236 431 218 400 923 1609 501 859 670 1141 974 1625 139 222 178
290 178 313 0 29 22 37 48 17 33 -26 110 -28 119 -2 4 9 14 23 24 29 9 7 44
59 76 115 33 57 79 134 102 172 24 38 110 198 193 355 82 157 160 300 173 316
12 17 60 100 105 185 46 85 126 234 178 330 53 96 121 225 153 285 31 61 125
229 208 375 94 166 151 275 151 293 0 20 -14 41 -57 82 l-58 55 19 33 c10 17
75 133 144 257 69 124 162 288 207 365 78 135 387 693 550 995 43 80 169 309
280 510 111 201 299 543 418 760 437 802 479 870 529 855 13 -4 37 -17 53 -28z
m-2111 17 c9 -3 16 -17 16 -31 0 -32 -359 -738 -515 -1013 -67 -118 -187 -334
-265 -480 -79 -146 -167 -303 -196 -350 -29 -47 -69 -117 -88 -157 -19 -40
-108 -206 -197 -369 -150 -276 -406 -784 -443 -881 -9 -24 -12 -43 -7 -43 17
0 93 132 245 429 84 163 242 458 351 656 264 480 451 829 536 1002 38 78 74
145 80 149 19 12 59 -27 118 -117 l60 -90 -53 -82 c-110 -171 -487 -840 -686
-1216 -109 -209 -122 -232 -156 -273 -11 -14 -29 -50 -38 -80 -24 -76 -190
-407 -223 -446 l-28 -32 -213 50 c-117 27 -225 50 -241 50 -15 0 -36 6 -46 14
-18 13 -16 19 44 137 34 68 91 174 125 234 35 61 181 337 324 615 263 511 343
661 581 1095 159 288 321 610 321 637 0 26 12 47 53 90 23 25 46 68 67 125 18
49 57 144 89 213 75 166 81 170 247 170 67 0 129 -3 138 -6z m150 -83 c25 -28
53 -65 62 -84 15 -32 15 -37 -5 -83 -12 -27 -49 -95 -82 -150 l-60 -102 -87
-4 c-93 -4 -126 -14 -99 -29 17 -10 973 15 1251 32 114 7 182 7 188 1 6 -6 -4
-31 -29 -69 -21 -33 -74 -128 -118 -211 l-80 -152 -607 -2 c-335 -1 -656 -3
-715 -3 l-108 0 2 35 c1 23 66 165 188 410 197 397 231 460 244 460 5 0 29
-22 55 -49z m920 -891 c-14 -14 -764 -34 -912 -25 -62 4 -110 10 -107 14 4 3
210 9 458 12 249 3 479 6 512 7 40 1 56 -1 49 -8z m-1125 -6 c66 -14 13 -24
-121 -24 -78 0 -139 2 -136 5 14 14 210 28 257 19z m1056 -137 c-56 -92 -69
-104 -152 -134 -296 -109 -377 -127 -588 -127 -184 -1 -245 14 -355 89 -41 28
-114 75 -161 103 -48 28 -92 59 -100 68 -21 25 10 41 94 49 83 8 682 21 1054
23 l253 2 -45 -73z m-1185 -195 c0 -4 22 -44 49 -90 38 -65 50 -96 55 -145 15
-128 172 -852 227 -1042 12 -39 10 -43 -62 -177 -41 -76 -76 -138 -79 -138 -3
0 -12 26 -18 58 -26 116 -144 705 -197 978 -53 275 -70 342 -81 331 -17 -17
52 -438 166 -1009 75 -377 80 -409 67 -440 -8 -18 -57 -109 -111 -201 -53 -92
-130 -235 -171 -317 -41 -83 -81 -150 -88 -150 -6 0 -75 15 -152 34 -156 38
-278 65 -600 132 -121 25 -224 49 -229 54 -4 4 1 11 12 14 31 10 21 -7 394
681 69 127 158 293 198 370 196 377 528 981 566 1033 23 29 54 43 54 24z
m1000 -30 c0 -20 -195 -102 -241 -102 -43 0 -14 20 64 44 45 15 100 35 122 45
46 22 55 24 55 13z m-300 -82 c-8 -5 -58 -10 -110 -10 -65 0 -90 3 -80 10 8 5
58 10 110 10 65 0 90 -3 80 -10z m288 -21 c1 -8 -30 -70 -69 -139 -39 -69
-118 -213 -176 -320 -57 -107 -110 -201 -118 -208 -10 -12 -17 7 -40 105 -67
296 -110 448 -125 448 -28 0 -23 -92 14 -256 33 -151 72 -293 96 -354 11 -28
9 -36 -34 -108 -26 -43 -69 -124 -97 -179 -29 -59 -54 -97 -59 -92 -13 13 -51
162 -120 469 -33 149 -79 343 -101 432 -22 90 -37 167 -34 173 10 16 36 12
141 -21 210 -66 443 -48 654 50 49 22 64 22 68 0z m-578 -35 c25 -15 25 -15
-14 -10 -22 3 -44 10 -50 16 -16 16 35 12 64 -6z m254 -4 c-19 -8 -167 -15
-189 -9 -17 4 86 16 150 17 42 0 54 -2 39 -8z m-5096 -632 c75 -28 143 -96
171 -171 24 -65 55 -243 49 -279 -4 -21 -6 -19 -21 15 -10 20 -20 65 -24 99
-5 49 -12 67 -32 86 -17 16 -25 32 -23 48 2 13 -6 39 -17 58 -27 43 -116 126
-135 126 -25 0 -96 31 -96 42 0 13 57 2 128 -24z m269 -504 c-3 -3 -12 -4 -19
-1 -8 3 -5 6 6 6 11 1 17 -2 13 -5z m73 -343 c0 -12 -20 -25 -27 -18 -7 7 6
27 18 27 5 0 9 -4 9 -9z m-104 -46 c7 -19 14 -56 13 -82 l-1 -48 -13 31 c-16
36 -31 134 -21 134 4 0 14 -16 22 -35z m-52 -42 c9 -26 16 -64 16 -85 0 -21 7
-50 16 -63 34 -53 -19 -76 -73 -32 -15 13 -38 26 -50 29 -35 9 -103 -10 -156
-44 -26 -16 -71 -35 -100 -42 -62 -14 -60 -31 3 -31 31 1 71 13 126 39 45 21
90 36 100 34 16 -4 14 -7 -11 -17 -16 -7 -44 -27 -61 -45 -23 -25 -42 -35 -80
-41 -27 -4 -64 -13 -81 -20 -38 -16 -46 -41 -10 -31 48 13 169 27 187 21 34
-11 14 -22 -51 -29 -72 -8 -141 -34 -136 -50 2 -7 26 -10 64 -8 l60 4 -1 -37
c-1 -28 4 -41 21 -52 21 -14 24 -13 53 15 17 18 30 41 30 55 0 14 12 40 26 57
l27 31 -33 34 c-18 18 -30 38 -26 43 3 5 23 12 43 14 21 3 44 7 51 9 9 3 22
-17 37 -56 12 -33 36 -94 53 -135 40 -100 58 -190 43 -219 -15 -28 -27 -27
-35 3 -6 24 -48 46 -86 46 -22 0 -70 -37 -70 -54 0 -8 13 -16 30 -19 38 -8 49
-46 27 -92 -17 -36 -45 -50 -83 -41 -27 7 -31 36 -14 96 11 37 3 118 -10 103
-4 -4 -15 -33 -25 -63 -10 -30 -35 -88 -56 -129 -22 -41 -39 -82 -39 -92 0
-29 17 -31 35 -3 12 19 20 23 28 15 6 -6 32 -8 69 -4 54 5 58 5 58 -15 0 -15
-8 -23 -27 -28 -16 -3 -33 -7 -39 -9 -6 -2 -14 -21 -18 -43 -4 -26 -17 -52
-38 -72 -26 -27 -36 -31 -62 -25 -17 3 -67 12 -111 20 -89 15 -157 36 -225 70
-117 58 -121 36 -8 -40 88 -59 85 -71 -8 -30 -58 26 -104 32 -104 15 0 -13 64
-53 128 -80 28 -13 52 -28 52 -36 0 -23 -40 -122 -54 -133 -10 -8 -17 -7 -26
4 -12 14 -10 26 15 88 4 10 3 17 -4 17 -6 0 -11 -6 -11 -14 0 -25 -41 -66 -66
-66 -13 0 -81 23 -151 51 -70 28 -167 61 -216 74 -49 13 -91 26 -94 28 -2 2
27 14 64 27 100 33 129 54 157 114 28 59 39 70 76 79 14 4 44 22 65 40 l39 34
-32 17 c-52 27 -55 88 -8 143 l25 28 -2 -50 c-2 -44 0 -50 20 -53 31 -5 95 65
138 150 40 81 44 137 20 248 -26 117 -15 204 40 315 34 71 45 79 81 60 17 -8
73 -26 127 -40 l96 -26 103 45 c71 31 106 42 115 35 6 -6 19 -31 27 -56z
m-594 -5 c-1 -35 -54 -162 -65 -157 -13 5 -9 74 6 113 23 59 59 86 59 44z
m-100 -30 c-1 -52 -15 -90 -36 -99 -33 -12 -30 -28 11 -77 20 -22 42 -59 50
-81 31 -89 31 -247 0 -287 -14 -18 -15 -17 -13 13 1 18 -5 40 -15 51 -22 25
-21 32 4 32 21 0 22 3 16 73 -7 85 -28 148 -60 187 -13 15 -29 41 -36 59 -8
17 -17 31 -22 31 -20 0 -7 -59 22 -98 38 -52 34 -78 -6 -34 -15 18 -32 32 -36
32 -5 0 6 -33 23 -72 51 -120 41 -189 -46 -333 -33 -54 -36 -65 -31 -107 7
-48 0 -59 -23 -36 -15 15 -16 129 0 179 26 90 -35 38 -67 -55 -18 -51 -17 -54
3 -114 23 -69 14 -80 -32 -37 -62 57 -62 134 -1 289 43 108 61 202 41 208 -5
2 -15 -21 -21 -50 -7 -29 -36 -101 -65 -160 -63 -128 -68 -173 -27 -252 28
-54 18 -64 -17 -16 -17 22 -21 46 -24 131 -4 90 -1 116 23 197 24 82 46 231
32 218 -2 -3 -19 -40 -36 -83 -17 -43 -49 -109 -71 -145 -59 -100 -73 -145
-73 -242 -1 -135 41 -210 150 -269 54 -29 60 -45 21 -49 -60 -7 -193 83 -247
166 -45 70 -47 96 -17 192 29 91 23 122 -13 71 -69 -96 -77 -174 -30 -276 49
-104 7 -113 -72 -15 -29 36 -59 52 -59 32 0 -4 13 -29 30 -55 16 -26 25 -47
20 -47 -23 0 -82 67 -111 126 -30 60 -31 68 -27 151 5 104 27 155 101 247 60
74 113 180 129 260 11 56 10 59 -13 78 l-24 20 45 -7 c25 -3 69 -19 97 -35 29
-17 60 -30 69 -30 9 0 30 -10 47 -22 65 -46 192 -21 295 57 32 25 54 35 70 32
18 -4 26 2 37 29 14 33 35 46 35 22z m-737 -263 c-21 -40 -95 -131 -134 -162
-40 -33 -59 -39 -59 -17 0 17 187 214 203 214 4 0 -1 -16 -10 -35z m5771 -484
c33 -37 23 -71 -87 -282 -58 -112 -122 -233 -143 -269 -74 -130 -585 -1074
-775 -1434 -107 -203 -206 -382 -221 -398 -32 -35 -71 -35 -76 -2 -5 32 30
107 204 444 87 168 175 340 196 382 21 43 63 121 94 175 30 53 83 151 116 217
71 142 258 495 440 830 71 131 138 259 149 285 30 71 69 90 103 52z m-5397
-61 c24 -21 60 -44 79 -50 35 -12 45 -36 19 -46 -41 -16 -113 32 -146 97 -25
50 -10 50 48 -1z m-268 -196 c2 -2 2 -7 -1 -10 -9 -8 -78 7 -78 18 0 8 68 1
79 -8z m141 -22 c0 -21 -29 -32 -79 -32 l-56 1 50 18 c56 21 85 25 85 13z
m111 -116 c169 -36 330 -92 370 -128 23 -19 27 -27 14 -22 -221 78 -386 114
-550 120 -202 8 -229 15 -192 53 19 20 219 7 358 -23z m-84 -71 c135 -18 309
-57 354 -81 17 -8 29 -17 27 -19 -1 -2 -42 5 -89 16 -47 10 -179 30 -294 44
-238 29 -263 34 -243 46 20 13 114 11 245 -6z m-44 -85 c-31 -13 -231 -35
-240 -27 -14 15 12 22 100 28 148 9 166 9 140 -1z m-306 -52 c-3 -8 -6 -5 -6
6 -1 11 2 17 5 13 3 -3 4 -12 1 -19z m676 -43 c119 -18 194 -38 222 -59 19
-15 18 -15 -12 -10 -52 10 -40 -11 37 -62 129 -85 264 -255 355 -447 46 -96
69 -197 47 -197 -17 0 -41 41 -72 124 -52 140 -132 260 -237 356 -56 52 -141
100 -175 100 -38 0 -25 -21 34 -52 117 -62 238 -200 300 -343 36 -81 44 -115
27 -115 -7 0 -86 73 -176 162 -90 89 -163 155 -163 147 0 -18 79 -136 158
-234 99 -123 164 -186 219 -210 59 -27 95 -72 115 -148 15 -58 -2 -119 -43
-150 -37 -27 -60 -12 -100 64 -40 75 -114 143 -198 182 -67 32 -171 49 -171
28 0 -13 33 -30 135 -70 85 -33 125 -56 125 -72 0 -7 -14 -8 -37 -5 -65 11
-173 -33 -173 -69 0 -18 43 -33 138 -50 45 -8 87 -17 92 -20 6 -4 19 -24 30
-45 23 -44 37 -54 95 -65 59 -10 75 -29 75 -89 0 -68 -40 -151 -119 -243 l-61
-72 32 -96 c28 -80 36 -95 54 -95 29 0 74 37 74 61 0 20 -15 26 -25 9 -24 -39
-69 46 -63 121 4 58 30 66 55 15 9 -20 20 -36 24 -36 3 0 10 28 13 61 8 70 38
157 66 191 l19 23 32 -69 c46 -99 50 -205 15 -473 -14 -111 -26 -214 -25 -230
0 -26 1 -27 9 -6 15 37 57 268 75 408 9 72 20 134 25 139 16 16 30 -43 45
-188 36 -348 39 -356 101 -356 47 0 74 16 74 43 0 12 -21 85 -46 162 -57 175
-134 476 -134 525 0 20 5 41 12 48 36 36 144 -12 220 -97 109 -121 161 -315
173 -641 3 -91 10 -208 16 -260 9 -72 8 -106 -1 -140 -17 -64 -80 -122 -163
-149 -56 -19 -70 -29 -104 -74 l-38 -52 -65 -3 c-83 -3 -388 41 -432 64 -110
56 -238 231 -268 365 -12 54 -11 60 14 114 30 67 27 86 -18 114 -52 33 -115
129 -142 221 -17 58 -48 101 -157 218 -91 97 -139 173 -183 287 -37 98 -42
122 -58 311 -9 93 -20 184 -27 202 -14 39 -34 43 -25 5 3 -16 9 -104 12 -198
6 -161 9 -176 45 -293 22 -68 39 -129 39 -136 0 -8 -9 -16 -20 -19 -12 -3 -20
-14 -20 -26 0 -16 6 -21 27 -21 21 0 40 -14 78 -56 27 -31 80 -89 116 -129 89
-96 101 -122 108 -230 5 -63 9 -83 14 -67 5 12 12 22 17 22 11 0 17 -25 24
-106 3 -33 8 -68 12 -78 11 -29 29 -11 35 35 5 42 6 43 13 16 10 -35 -11 -141
-33 -167 -15 -17 -19 -17 -105 8 -94 27 -84 28 -176 -10 -36 -15 -93 14 -122
61 -18 29 -24 56 -28 131 -5 95 -5 95 -32 98 -19 2 -36 -5 -54 -23 -25 -25
-26 -30 -19 -91 8 -78 -3 -83 -60 -24 -44 45 -55 48 -80 20 -26 -29 -59 -25
-89 11 -39 46 -54 86 -98 264 -21 88 -72 259 -113 380 -121 361 -140 464 -139
775 1 302 19 393 99 485 l35 40 0 -32 c0 -26 -6 -36 -29 -47 -16 -9 -32 -26
-36 -38 -10 -33 -19 -392 -10 -425 6 -25 8 -26 15 -8 4 11 10 92 14 180 4 88
12 166 16 175 6 9 7 -48 3 -140 -6 -152 2 -290 16 -290 4 0 13 90 19 200 23
369 56 545 106 568 13 6 45 27 71 46 27 21 58 36 73 36 15 0 59 9 97 19 39 11
84 22 100 24 52 9 312 -2 418 -18z m435 -133 c154 -155 253 -295 315 -447 76
-186 165 -470 182 -583 6 -39 5 -43 -11 -40 -16 3 -20 17 -26 78 -20 201 -160
548 -319 790 -36 55 -98 129 -146 176 -46 45 -83 84 -83 88 0 18 26 -1 88 -62z
m88 -3 c9 -10 14 -22 13 -27 -2 -6 -29 13 -59 40 l-55 50 43 -23 c23 -13 50
-31 58 -40z m-189 5 c156 -117 291 -301 372 -507 30 -75 83 -258 137 -467 24
-97 31 -180 15 -180 -13 0 -18 20 -31 119 -44 330 -232 732 -440 941 -102 103
-125 130 -113 130 7 0 33 -16 60 -36z m539 -70 c16 -109 56 -260 100 -379 73
-198 83 -230 84 -257 0 -36 -13 -35 -40 2 -37 51 -57 110 -108 310 -65 252
-89 417 -60 408 7 -3 17 -40 24 -84z m-285 3 c-1 -12 -15 -9 -19 4 -3 6 1 10
8 8 6 -3 11 -8 11 -12z m2354 -9 c-12 -40 -115 -198 -129 -198 -7 0 55 126 90
182 27 42 49 51 39 16z m-2223 -147 c55 -84 111 -196 106 -212 -2 -6 -32 39
-67 100 -35 61 -79 132 -97 159 -19 26 -34 51 -34 56 0 19 45 -32 92 -103z
m651 44 c332 -28 378 -34 385 -53 8 -24 -289 -11 -563 24 -135 17 -205 32
-205 45 0 14 55 11 383 -16z m2426 -86 c37 -13 51 -35 51 -81 0 -43 -21 -74
-44 -65 -20 8 -80 132 -71 147 8 13 24 13 64 -1z m-2442 -235 c-6 -57 -28 -80
-87 -91 -27 -5 -46 -15 -48 -24 -1 -8 13 -41 31 -72 51 -84 59 -174 20 -218
-8 -10 -33 -20 -57 -23 -23 -4 -71 -20 -105 -36 -35 -17 -67 -30 -72 -30 -13
0 -11 71 4 99 18 36 33 36 46 0 6 -18 13 -30 16 -27 3 3 10 66 15 141 9 140
23 193 62 234 12 13 29 23 38 23 9 0 40 16 70 35 30 19 59 35 64 35 5 0 6 -21
3 -46z m-483 -56 c7 -29 8 -63 0 -55 -3 3 -9 22 -14 41 -9 39 4 51 14 14z m66
-218 c0 -11 -4 -20 -10 -20 -5 0 -10 9 -10 20 0 11 5 20 10 20 6 0 10 -9 10
-20z m98 -37 c-5 -25 -28 -28 -28 -4 0 12 6 21 16 21 9 0 14 -7 12 -17z m-64
-134 l6 -54 -14 40 c-7 23 -16 61 -20 85 l-6 45 15 -31 c7 -17 16 -56 19 -85z
m430 51 c77 -44 106 -84 91 -129 -5 -17 -10 -16 -73 17 -119 62 -113 55 -94
102 9 22 18 40 20 40 1 0 26 -14 56 -30z m-929 -34 c45 -19 44 -32 -1 -39 -43
-7 -205 10 -218 23 -28 28 158 41 219 16z m764 -81 c16 -8 62 -51 103 -96 41
-45 78 -77 81 -72 3 5 -5 33 -18 61 -13 29 -21 52 -16 52 24 0 81 -80 132
-185 63 -128 163 -266 217 -298 36 -20 92 -144 92 -203 0 -50 -122 -356 -136
-341 -3 3 11 45 31 93 59 147 92 294 65 294 -12 0 -18 -15 -55 -130 -15 -47
-57 -148 -95 -225 -38 -77 -71 -153 -75 -170 l-6 -30 23 25 c13 14 31 37 40
50 13 19 17 21 17 9 1 -20 -59 -111 -76 -117 -17 -5 -30 53 -43 193 -33 361
-165 700 -330 848 -51 46 -64 51 -185 79 -54 12 -60 16 -63 40 -3 22 4 32 35
52 21 13 65 32 98 41 33 10 67 23 75 31 19 18 54 18 89 -1z m-671 -17 c19 -19
15 -48 -7 -48 -21 0 -33 22 -25 45 7 18 16 19 32 3z m2137 -186 c579 -145 685
-169 802 -181 68 -7 103 -16 144 -39 58 -31 65 -44 50 -85 -13 -35 -30 -34
-139 4 -103 36 -458 127 -772 199 -360 82 -536 128 -616 162 -41 17 -74 34
-74 39 0 13 54 28 90 25 19 -2 251 -58 515 -124z m-660 57 c-8 -12 -55 -12
-55 0 0 10 39 20 53 13 4 -2 5 -8 2 -13z m-145 -58 c0 -5 -7 -14 -15 -21 -12
-10 -15 -10 -15 2 0 8 3 18 7 21 9 10 23 9 23 -2z m272 -31 c176 -38 178 -38
178 -55 0 -8 -58 -117 -129 -242 -70 -125 -149 -268 -175 -318 -25 -49 -60
-106 -76 -125 l-29 -35 0 65 c0 36 4 103 8 150 8 84 9 86 109 261 112 195 148
266 141 274 -3 2 -16 6 -28 7 -19 3 -25 -4 -36 -38 -6 -23 -37 -81 -67 -130
-30 -49 -74 -124 -97 -167 -23 -42 -47 -74 -53 -71 -5 3 -18 25 -28 48 -10 22
-33 61 -51 85 -61 79 -61 79 -24 117 39 39 111 141 125 179 13 34 51 33 232
-5z m-984 -64 c102 -117 201 -401 232 -670 11 -95 6 -217 -10 -261 -6 -17 -8
-14 -14 15 -4 19 -19 63 -33 98 -21 52 -24 67 -14 88 37 83 -27 395 -125 600
-18 39 -54 94 -79 122 -25 27 -45 55 -45 61 0 19 53 -14 88 -53z m1353 -40
c35 -13 98 -29 139 -35 95 -15 352 -89 362 -104 4 -7 8 -19 8 -27 0 -38 24
-96 50 -121 26 -26 33 -28 96 -26 63 2 134 -15 134 -32 0 -25 -480 -852 -704
-1211 -49 -80 -129 -214 -176 -299 -48 -85 -91 -156 -97 -158 -6 -2 -30 13
-54 32 -54 46 -111 75 -269 137 -124 50 -234 107 -287 152 -37 30 -75 49 -146
71 -33 10 -61 24 -64 32 -8 21 56 157 139 295 76 126 159 274 338 603 51 93
121 216 157 273 35 57 98 172 139 255 42 84 83 160 92 170 21 24 68 21 143 -7z
m514 -76 l40 -20 -40 6 c-22 3 -51 12 -65 19 l-25 14 25 0 c14 0 43 -8 65 -19z
m176 -80 c27 -15 24 -52 -8 -82 -38 -34 -57 -39 -82 -22 -24 17 -30 81 -9 102
15 15 72 16 99 2z m294 -50 c0 -18 -33 -26 -47 -12 -6 6 -7 15 -3 22 10 16 50
8 50 -10z m-134 -41 c74 -24 259 -109 259 -119 0 -16 -51 -52 -74 -52 -30 0
-54 14 -122 73 -27 23 -73 58 -101 76 -79 50 -68 57 38 22z m404 -45 c33 -8
64 -19 70 -25 13 -13 -10 -11 -75 6 -30 8 -64 15 -75 15 -20 -1 -20 -1 -1 -15
31 -24 11 -28 -43 -10 -63 21 -71 31 -24 33 20 1 38 4 41 7 9 9 46 5 107 -11z
m-2800 -214 c19 -38 35 -78 35 -89 0 -22 -40 -55 -51 -43 -10 10 -39 146 -39
182 0 44 14 30 55 -50z m825 -170 c-16 -31 -23 -19 -9 16 6 16 13 24 16 17 2
-7 -1 -22 -7 -33z m-2186 -16 c3 -8 3 -28 -1 -42 l-7 -27 -7 25 c-10 36 -10
60 0 60 5 0 12 -7 15 -16z m-219 -105 c10 -30 -18 -57 -39 -39 -16 13 -21 42
-9 53 14 14 42 6 48 -14z m109 -10 c28 -22 35 -49 13 -49 -14 0 -67 50 -67 63
0 14 28 7 54 -14z m1830 -40 c4 -28 14 -72 22 -96 15 -45 12 -113 -5 -113 -9
0 -26 95 -37 204 -8 82 9 86 20 5z m466 -13 c0 -7 -157 -290 -256 -461 -51
-88 -100 -177 -110 -197 -10 -21 -21 -38 -25 -38 -10 0 -122 84 -138 104 -12
15 -6 25 63 92 63 61 85 91 116 158 31 69 48 92 105 142 37 32 103 92 147 132
69 63 98 83 98 68z m-2146 -47 c26 -51 60 -64 171 -64 57 0 106 -3 109 -6 4
-3 13 -46 21 -95 21 -132 90 -324 115 -324 6 0 9 8 6 18 -42 148 -64 327 -43
348 14 14 19 -5 27 -103 6 -69 18 -125 39 -183 33 -90 142 -291 148 -273 2 6
-19 64 -48 129 -80 184 -88 207 -97 287 -11 84 -3 143 23 183 l18 27 16 -22
c25 -33 48 -78 71 -142 30 -84 161 -292 174 -278 3 3 -14 37 -39 75 -24 38
-45 73 -45 78 0 5 31 -21 69 -57 38 -35 91 -77 119 -92 35 -19 52 -35 57 -54
9 -36 155 -394 166 -405 24 -26 3 53 -57 211 -36 96 -63 178 -59 181 18 19
114 -162 171 -321 15 -43 35 -88 45 -100 l18 -22 1 22 c0 23 -62 201 -101 291
-18 40 -20 55 -11 64 9 9 15 9 26 -2 13 -15 62 -128 112 -260 38 -101 56 -140
66 -140 21 0 5 57 -66 249 -26 68 -44 126 -40 130 14 15 57 -64 124 -231 65
-161 90 -206 90 -164 0 25 -51 177 -81 245 -40 88 -38 138 5 96 8 -8 42 -86
76 -172 68 -172 94 -228 111 -239 8 -5 10 1 7 20 -9 47 17 27 66 -52 l27 -43
-28 7 c-15 4 -98 34 -183 66 -222 85 -307 108 -400 108 -141 0 -313 -45 -360
-95 l-22 -24 68 23 c80 27 197 50 216 43 15 -5 -121 -71 -199 -95 -35 -11 -53
-23 -53 -33 0 -9 -13 -36 -30 -60 -16 -24 -30 -47 -30 -51 0 -14 23 -9 42 9
17 15 20 15 28 3 6 -8 8 -19 7 -25 -6 -18 -60 -38 -134 -48 -40 -6 -73 -15
-73 -19 0 -11 114 1 175 18 47 12 125 65 125 84 0 4 -22 13 -50 20 -28 7 -47
16 -44 22 13 20 129 88 168 99 23 6 82 32 133 59 l91 48 99 -33 c111 -36 162
-60 169 -80 9 -21 -9 -47 -107 -152 -85 -91 -135 -166 -123 -185 18 -29 82 12
125 80 23 37 26 48 17 60 -10 12 -5 21 27 48 49 42 169 104 201 104 43 0 26
-27 -23 -40 -85 -21 -169 -77 -148 -98 2 -3 31 7 63 21 121 55 219 59 331 13
82 -33 157 -87 296 -211 106 -95 234 -190 316 -235 l28 -15 -20 -27 c-11 -14
-78 -140 -150 -280 -72 -139 -175 -334 -229 -434 -54 -99 -112 -209 -130 -245
-18 -35 -44 -77 -57 -93 -13 -16 -45 -70 -70 -120 -111 -223 -328 -610 -331
-592 -2 11 4 85 13 165 14 119 15 151 5 176 l-13 30 -8 -35 c-4 -19 -11 -75
-15 -124 -4 -49 -10 -82 -14 -75 -8 14 -38 233 -43 304 -5 81 -22 37 -31 -77
-12 -163 -31 -157 -43 14 -12 175 51 207 139 71 39 -60 68 -81 68 -48 0 9 -6
28 -14 43 -18 35 -129 141 -181 172 l-40 25 223 3 c140 1 222 6 222 12 0 25
-67 33 -320 40 -347 9 -356 12 -553 197 -126 118 -186 161 -339 240 -127 66
-133 70 -186 142 -73 99 -134 155 -277 254 -66 45 -129 97 -142 115 -46 69
-48 105 -48 787 1 887 8 935 143 960 54 10 68 -11 101 -160 59 -258 110 -364
236 -488 74 -73 78 -80 61 -92 -10 -8 -37 -17 -59 -21 -34 -5 -38 -8 -22 -15
24 -9 88 -11 109 -3 9 4 16 18 16 34 0 29 -10 43 -122 178 -73 87 -112 171
-143 306 -29 129 -49 288 -40 317 9 26 -20 59 -50 59 -12 0 -33 -8 -46 -19
-43 -33 -82 -35 -124 -7 -21 15 -42 26 -46 26 -5 0 -9 6 -9 14 0 12 7 12 36 5
43 -12 118 2 165 30 36 22 37 22 53 -10z m-399 -89 c33 -13 25 -26 -21 -34
-21 -5 -53 -23 -78 -46 -68 -63 -183 -221 -222 -305 -35 -75 -304 -873 -304
-901 0 -21 18 -17 31 7 6 11 68 193 139 402 70 210 138 408 150 440 24 65 44
77 34 20 -14 -81 -106 -427 -158 -602 -31 -101 -61 -211 -67 -245 -6 -33 -20
-78 -31 -98 -40 -78 -81 -435 -59 -515 14 -51 168 -284 218 -330 33 -31 37
-53 9 -53 -7 0 -21 10 -32 21 -10 12 -77 70 -149 129 -283 234 -364 356 -365
547 0 169 40 291 299 898 132 311 364 602 527 660 48 17 47 17 79 5z m155 -49
c0 -9 -11 -33 -25 -53 -73 -107 -119 -315 -135 -608 -12 -215 -29 -420 -40
-480 -6 -34 -5 -49 6 -61 13 -14 13 -17 0 -22 -8 -3 -24 -32 -36 -64 -12 -32
-39 -85 -60 -118 -21 -33 -41 -71 -45 -85 -4 -14 -16 -37 -27 -52 -11 -16 -17
-28 -15 -28 18 0 97 41 97 50 0 6 18 41 40 77 22 37 40 76 40 87 0 12 7 35 16
51 9 17 20 44 25 60 13 43 36 281 53 549 8 125 18 231 22 235 4 3 4 -239 0
-539 -7 -520 -6 -550 13 -648 23 -118 40 -151 110 -207 27 -22 56 -54 64 -72
17 -35 42 -146 53 -238 13 -118 44 -125 44 -11 0 40 -5 98 -11 130 -5 31 -9
65 -7 74 8 37 39 -50 58 -165 24 -139 28 -153 42 -153 12 0 4 130 -13 212 -8
34 -8 53 -1 60 7 7 16 -8 27 -48 75 -275 106 -327 68 -117 -9 51 -14 96 -10
99 13 13 47 -18 47 -43 0 -36 97 -311 122 -345 41 -59 48 -26 18 87 -10 39
-16 72 -14 74 5 6 94 -73 212 -187 78 -76 102 -106 102 -126 0 -17 5 -26 15
-26 38 0 100 -49 247 -192 256 -250 317 -380 258 -554 -24 -69 -209 -347 -235
-352 -26 -6 -97 76 -200 233 -159 240 -281 468 -306 570 -6 28 -29 88 -51 134
-65 139 -38 123 95 -54 169 -225 344 -412 414 -441 18 -8 54 -14 81 -14 138 0
64 116 -147 230 -144 78 -195 121 -294 253 -99 131 -123 154 -280 262 -137 96
-214 138 -387 211 -172 72 -265 104 -306 104 -18 0 -34 6 -37 14 -3 8 -37 32
-74 54 -175 102 -250 256 -260 528 -8 214 20 385 113 699 29 99 78 280 108
402 64 253 101 362 145 427 75 109 261 207 261 137z m1875 -211 c-4 -6 -1 -17
5 -25 10 -12 9 -15 -4 -15 -10 0 -16 9 -16 25 0 14 5 25 11 25 5 0 7 -5 4 -10z
m-105 -75 c0 -8 -4 -15 -10 -15 -5 0 -10 7 -10 15 0 8 5 15 10 15 6 0 10 -7
10 -15z m-485 -40 c28 -8 59 -21 70 -29 20 -15 20 -15 -1 -16 -32 0 -146 37
-169 55 -19 15 -18 16 15 10 19 -4 58 -13 85 -20z m400 -45 c-33 -32 -100 -50
-184 -49 -45 0 -44 1 38 25 45 13 95 31 110 39 14 8 35 14 46 15 17 0 16 -4
-10 -30z m196 -128 c43 -28 89 -72 75 -72 -28 0 -149 78 -141 91 9 14 17 11
66 -19z m-137 -69 c39 -79 98 -241 94 -260 -3 -11 -69 134 -128 280 -29 71 -5
57 34 -20z m-92 -20 c26 -48 45 -113 33 -113 -5 0 -75 144 -75 156 0 18 21 -4
42 -43z m378 -23 c0 -14 -14 -12 -28 2 -19 19 -14 30 8 18 11 -6 20 -15 20
-20z m-47 -57 c110 -168 277 -529 277 -601 0 -49 -104 142 -221 406 -32 73
-72 159 -89 192 -33 65 -34 70 -21 70 5 0 30 -30 54 -67z m443 -209 c30 -50
86 -158 123 -240 85 -185 118 -251 131 -259 16 -10 12 -45 -6 -45 -55 0 -98
67 -169 265 -72 199 -118 307 -156 366 -16 25 -29 50 -29 55 1 17 50 -50 106
-142z m-252 35 c81 -122 265 -528 254 -561 -7 -19 -98 105 -109 147 -6 21 -28
73 -49 115 -45 90 -127 279 -136 315 -9 38 10 30 40 -16z m-122 -168 c70 -158
96 -236 64 -197 -23 28 -156 355 -156 381 1 17 19 -20 92 -184z m623 -66 c49
-54 91 -93 93 -87 6 19 -50 113 -102 169 -84 93 -48 76 93 -44 75 -64 107 -71
63 -15 -35 43 -126 130 -162 153 -14 9 -22 20 -18 24 11 11 81 -32 143 -90 63
-58 95 -72 75 -34 -17 30 -6 33 24 7 l27 -23 -73 -127 c-85 -148 -110 -184
-124 -175 -5 3 -45 82 -88 175 -49 107 -94 189 -122 223 -24 30 -44 58 -44 64
0 11 68 -58 215 -220z m-294 120 c16 -33 29 -67 29 -75 -1 -16 -53 80 -77 140
-13 33 -13 34 3 15 9 -11 29 -47 45 -80z m-481 -55 c25 -49 25 -52 -2 -48 -19
2 -24 10 -26 46 -2 23 -1 42 2 42 3 0 15 -18 26 -40z m556 -172 c19 -36 74
-196 74 -212 0 -13 -41 51 -75 119 -21 43 -35 125 -20 125 2 0 12 -14 21 -32z
m-75 -221 c-1 -12 -15 -9 -19 4 -3 6 1 10 8 8 6 -3 11 -8 11 -12z m155 -53
c29 -50 23 -75 -13 -55 -35 18 -45 37 -37 75 7 43 15 40 50 -20z m964 26 c0
-11 -7 -20 -15 -20 -8 0 -15 9 -15 20 0 11 7 20 15 20 8 0 15 -9 15 -20z
m-863 -21 c12 -12 8 -34 -11 -58 -8 -10 -13 -6 -22 20 -6 19 -9 37 -7 42 6 11
27 9 40 -4z m915 -154 c10 -60 9 -378 -2 -474 -10 -87 -41 -166 -72 -185 -24
-15 -32 -2 -15 26 24 37 50 569 28 582 -16 10 -26 -80 -46 -414 -17 -281 -19
-290 -51 -325 -27 -29 -44 -25 -44 9 0 13 -12 59 -26 102 -23 68 -27 97 -27
209 -1 116 1 136 22 183 41 93 48 68 31 -112 -12 -117 -15 -265 -6 -273 19
-20 33 72 46 302 6 104 15 208 21 230 6 22 31 73 56 113 52 84 73 91 85 27z
m87 -255 c-1 -125 -7 -161 -28 -168 -12 -4 -13 19 -8 134 3 77 9 147 13 157
15 39 24 -9 23 -123z m-389 -270 c-8 -16 -1 -49 39 -167 52 -154 125 -423 117
-430 -3 -3 -14 28 -26 69 -48 167 -131 415 -150 446 -11 17 -25 32 -31 32 -15
0 -9 -29 34 -178 41 -139 103 -404 207 -876 152 -691 255 -1046 334 -1149 26
-34 38 -42 65 -43 18 0 37 -7 41 -15 13 -24 30 -153 30 -232 0 -83 -13 -111
-51 -105 -32 4 -71 71 -138 235 -76 186 -173 404 -177 400 -2 -2 40 -130 92
-285 126 -370 131 -428 47 -502 -44 -39 -89 -39 -172 0 -35 17 -67 28 -70 24
-3 -3 11 -21 32 -39 79 -69 187 -67 258 3 20 21 38 44 41 52 3 8 8 12 12 9 16
-15 -36 -118 -78 -157 -49 -45 -88 -57 -170 -50 -85 7 -159 50 -270 157 l-98
96 -35 -40 c-41 -47 -73 -106 -73 -135 0 -34 17 -22 52 35 18 30 36 55 39 55
4 0 23 -19 44 -41 l37 -42 -88 -46 c-49 -25 -140 -81 -201 -124 -62 -43 -132
-89 -155 -102 l-43 -25 36 0 c20 0 53 7 72 15 42 17 67 19 67 5 0 -16 -49 -42
-113 -60 -33 -9 -63 -23 -65 -30 -5 -13 24 -11 76 5 16 6 22 3 22 -8 0 -22
-39 -47 -72 -47 -106 0 -278 171 -278 277 0 29 -3 33 -25 33 -23 0 -25 4 -25
45 0 43 -54 443 -67 493 -5 21 -3 24 11 19 9 -4 16 -2 16 3 0 6 -34 128 -75
272 -112 388 -165 485 -85 154 54 -223 88 -427 100 -604 5 -81 19 -202 31
-270 26 -150 25 -152 -70 -152 -36 0 -71 4 -77 8 -25 15 -148 190 -171 242
-13 30 -40 109 -60 175 -19 66 -53 154 -76 196 -31 58 -38 82 -33 102 9 36 19
34 39 -5 l16 -33 0 52 c1 30 12 81 25 116 24 64 35 85 178 333 42 72 140 249
218 394 154 286 177 322 199 318 25 -5 32 -55 40 -278 8 -249 4 -373 -13 -367
-6 2 -31 64 -56 138 l-45 134 -3 -132 c-2 -105 -5 -133 -16 -133 -17 0 -57 46
-92 106 -37 63 -43 46 -8 -22 39 -77 101 -146 128 -142 17 2 22 11 24 46 2 23
6 42 10 42 9 0 50 -104 58 -147 17 -87 41 -4 55 184 16 224 -9 562 -45 602
-14 16 -13 22 13 77 27 58 56 92 67 81 3 -3 10 -43 16 -88 10 -82 4 -716 -8
-868 -7 -89 8 -116 28 -50 19 64 19 990 0 1036 -13 30 -11 37 27 121 23 49 41
96 41 104 0 9 21 42 46 74 25 33 77 118 116 189 145 265 172 312 242 420 l71
110 3 -47 c2 -26 -2 -56 -8 -68z m435 -373 c6 -16 4 -18 -16 -15 -23 3 -24 5
-22 93 1 50 5 110 10 135 6 38 8 26 14 -75 3 -66 9 -128 14 -138z m-169 96
c-3 -10 -15 -58 -27 -108 -11 -49 -26 -99 -31 -109 -10 -19 -11 -19 -24 -2 -7
10 -15 35 -19 55 -5 32 -1 46 30 92 19 29 38 62 41 71 3 10 12 18 20 18 10 0
13 -6 10 -17z m47 -157 c-9 -43 -33 -62 -33 -26 0 11 8 53 18 93 l17 72 3 -50
c1 -27 -1 -68 -5 -89z m420 41 c7 -21 5 -33 -5 -45 -10 -11 -19 -65 -27 -156
-12 -140 -15 -156 -31 -156 -14 0 -40 98 -40 149 0 59 24 170 45 211 19 38 45
36 58 -3z m-133 -3 c13 -33 13 -76 -1 -111 l-11 -28 -13 25 c-17 30 -29 104
-21 125 9 24 36 18 46 -11z m-2896 -60 c26 -30 79 -75 116 -100 101 -66 173
-154 127 -154 -27 0 -108 63 -178 138 -65 69 -129 152 -129 166 0 16 19 1 64
-50z m2806 30 c0 -34 -23 -160 -31 -168 -5 -6 -9 18 -9 55 0 39 -5 70 -12 78
-11 10 -8 16 11 32 28 23 41 24 41 3z m-3314 -88 c18 -14 18 -15 1 -21 -25
-10 -67 3 -67 20 0 19 40 20 66 1z m3584 6 c0 -5 9 -52 20 -104 16 -76 18
-106 10 -146 -5 -27 -16 -119 -25 -203 -9 -85 -20 -158 -25 -163 -13 -13 -29
58 -36 162 -5 70 -1 137 17 277 13 102 27 185 31 185 5 0 8 -4 8 -8z m-503
-149 c-4 -60 -10 -119 -13 -132 -7 -22 -8 -20 -20 20 -16 53 -17 92 -4 133 5
17 12 43 15 59 3 15 10 27 17 27 8 0 9 -31 5 -107z m93 -37 c-12 -112 -28
-172 -41 -159 -8 8 24 253 38 289 14 35 16 -21 3 -130z m95 8 c31 -23 50 -13
53 26 4 62 13 100 22 100 14 0 32 -71 28 -115 l-3 -40 -56 0 c-77 0 -89 13
-89 90 0 82 14 93 20 15 4 -46 10 -65 25 -76z m-2323 -10 c22 -11 28 -20 22
-32 -4 -9 -12 -42 -19 -71 -12 -59 -18 -58 -29 2 -9 47 -26 87 -38 87 -4 0 -8
-22 -8 -49 0 -27 -3 -56 -6 -65 -8 -22 -24 -10 -24 18 0 13 -8 34 -19 47 -13
17 -17 34 -13 58 l5 33 50 -6 c28 -4 63 -14 79 -22z m-3152 -9 c212 -8 755
-28 1207 -45 452 -17 834 -35 849 -40 25 -10 25 -11 10 -33 -50 -70 -69 -109
-56 -117 20 -12 47 5 67 43 l18 32 3 -64 c2 -35 2 -64 0 -65 -12 -8 -2559 13
-2583 21 -27 8 -31 14 -36 64 -4 30 -16 79 -28 109 -34 88 -31 93 54 103 59 8
115 7 495 -8z m2165 -15 c-5 -8 -11 -8 -17 -2 -6 6 -7 16 -3 22 5 8 11 8 17 2
6 -6 7 -16 3 -22z m3022 -12 c-3 -7 -5 -2 -5 12 0 14 2 19 5 13 2 -7 2 -19 0
-25z m277 -55 c-7 -16 -14 -38 -14 -50 0 -35 -11 -53 -32 -53 -18 0 -19 5 -13
43 9 53 30 87 55 87 17 0 18 -2 4 -27z m-257 -15 c-3 -7 -5 -2 -5 12 0 14 2
19 5 13 2 -7 2 -19 0 -25z m353 -39 c0 -64 -12 -99 -34 -99 -29 0 -36 24 -24
93 10 61 13 67 34 67 23 0 24 -4 24 -61z m-3291 26 c11 -14 29 -69 41 -122 54
-234 117 -380 264 -612 113 -176 146 -245 153 -316 9 -87 -13 -119 -147 -218
-25 -18 -60 -55 -78 -82 -94 -142 -89 -137 -121 -120 -56 29 -137 155 -156
242 l-7 33 54 -25 c104 -49 104 -28 -2 90 -125 141 -148 199 -170 448 -20 231
25 243 105 29 32 -85 34 -87 71 -93 20 -4 43 -15 51 -25 25 -34 10 -61 -17
-29 -7 8 -19 15 -26 15 -12 0 -12 -6 2 -32 39 -78 101 -112 124 -68 23 43 -16
124 -107 223 -130 142 -158 262 -109 474 14 61 26 127 26 146 0 40 8 67 20 67
5 0 18 -11 29 -25z m3371 -22 c6 -21 13 -57 16 -79 6 -36 3 -44 -16 -54 -40
-21 -53 -6 -46 53 16 128 27 146 46 80z m240 -110 c13 -61 9 -199 -15 -480
-14 -171 -19 -193 -39 -173 -26 26 7 710 35 710 4 0 13 -25 19 -57z m-590
-253 c22 -107 43 -206 46 -220 4 -18 2 -22 -6 -14 -11 11 -111 491 -109 522 2
24 22 -63 69 -288z m35 230 c4 -16 3 -40 -1 -52 l-8 -23 -7 25 c-10 37 -10 92
0 85 5 -3 12 -19 16 -35z m119 27 c13 -10 15 -18 8 -38 -12 -31 -38 -53 -52
-44 -13 8 -13 51 0 76 13 22 20 24 44 6z m-2685 -76 c97 -50 145 -100 108
-114 -25 -9 -91 30 -147 87 -63 65 -52 72 39 27z m2819 19 c13 0 34 -11 47
-25 20 -19 25 -34 25 -73 0 -29 -6 -54 -13 -61 -21 -17 -37 7 -37 54 0 40 -22
85 -41 85 -5 0 -9 -19 -9 -42 0 -24 -5 -50 -10 -58 -18 -26 -50 24 -50 75 0
45 11 57 45 50 11 -3 30 -5 43 -5z m-3013 -301 c57 -88 98 -169 86 -169 -30 0
-145 177 -206 318 -61 140 -53 159 14 34 34 -63 81 -145 106 -183z m-931 264
c213 -4 331 -10 316 -15 -52 -19 -2374 -7 -2394 13 -12 11 1570 12 2078 2z
m3781 -125 c3 -18 5 -80 3 -138 -3 -102 -3 -104 -16 -65 -16 50 -27 174 -18
209 9 36 24 33 31 -6z m99 6 c14 -36 0 -444 -14 -444 -4 0 -16 30 -26 66 -15
58 -16 76 -6 135 7 38 12 102 12 142 0 76 7 117 20 117 4 0 11 -7 14 -16z
m212 -121 c19 -97 17 -191 -7 -414 -22 -199 -20 -272 6 -236 7 9 16 41 19 70
4 28 12 74 18 101 8 41 12 46 20 32 24 -43 4 -386 -22 -386 -5 0 -14 17 -20
38 -7 20 -32 85 -56 145 -41 99 -43 111 -34 155 16 79 40 310 47 445 3 70 8
125 11 122 3 -2 11 -35 18 -72z m-102 51 c16 -42 -3 -445 -24 -499 -12 -32
-27 -32 -42 0 -14 32 12 458 31 493 14 26 26 28 35 6z m384 -384 c1 -151 -10
-164 -23 -27 -8 90 4 251 16 202 4 -16 7 -95 7 -175z m-83 -207 c-4 -112 -11
-203 -15 -203 -28 0 -36 204 -15 385 9 83 20 155 24 160 10 17 13 -129 6 -342z
m-2900 260 c-19 -38 -44 -79 -55 -93 -16 -21 -20 -22 -20 -7 0 22 11 44 57
115 49 74 61 65 18 -15z m-259 -4 c16 -17 16 -22 4 -29 -20 -13 -77 -13 -85 0
-11 17 15 50 39 50 13 0 31 -9 42 -21z m-933 -99 c-10 -45 -15 -133 -16 -290
-1 -124 -6 -230 -10 -237 -4 -7 -14 -10 -22 -7 -8 4 -12 11 -8 18 5 6 10 129
13 273 5 259 5 262 29 287 14 14 25 25 27 23 1 -1 -5 -31 -13 -67z m3701 -309
c69 -202 71 -211 57 -211 -20 0 -152 384 -151 439 1 31 28 -34 94 -228z m599
69 c35 -162 39 -190 28 -190 -22 0 -90 283 -76 318 10 27 20 1 48 -128z
m-3306 27 c-8 -90 -27 -97 -27 -11 0 72 5 88 23 77 5 -3 7 -31 4 -66z m3183
-8 c13 -39 16 -59 8 -78 -5 -14 -12 -63 -15 -108 -3 -46 -9 -83 -13 -83 -4 0
-16 12 -25 27 -15 23 -16 33 -6 75 6 27 11 93 11 146 0 107 10 112 40 21z
m-396 -26 c34 -70 68 -163 58 -163 -9 1 -102 220 -93 220 4 0 20 -26 35 -57z
m-125 -168 c1 -17 -1 -17 -9 -5 -5 8 -9 26 -9 40 0 23 1 23 9 5 5 -11 9 -29 9
-40z m367 19 c9 -50 -2 -199 -19 -254 l-14 -45 -8 38 c-10 53 10 297 26 297 4
0 11 -16 15 -36z m229 -40 c8 -74 -4 -165 -22 -172 -10 -3 -13 17 -13 80 0
154 23 213 35 92z m-3337 14 c-6 -17 -36 -34 -44 -25 -4 4 1 14 12 22 23 18
37 19 32 3z m-78 -34 c0 -4 -16 -22 -35 -41 -37 -36 -55 -81 -36 -92 7 -5 2
-20 -18 -47 -16 -21 -33 -55 -39 -74 l-9 -35 -13 45 c-12 43 -11 48 21 109 33
65 97 141 117 141 7 0 12 -3 12 -6z m3054 -66 c7 -29 8 -63 0 -55 -3 3 -9 22
-14 41 -9 39 4 51 14 14z m220 -118 c-18 -130 -51 -260 -66 -260 -14 0 -5 85
17 160 9 30 19 84 22 119 6 57 8 62 20 45 9 -13 12 -33 7 -64z m202 -27 c-10
-117 -27 -161 -21 -53 5 85 13 130 23 130 3 0 2 -35 -2 -77z m3668 62 c-4 -8
-10 -15 -15 -15 -5 0 -9 7 -9 15 0 8 7 15 15 15 9 0 12 -6 9 -15z m-7960 -158
c30 -171 29 -157 17 -157 -12 0 -29 76 -41 192 -11 108 -12 123 -6 117 2 -2
16 -71 30 -152z m926 141 c0 -20 -38 -78 -55 -84 -24 -9 -87 6 -82 19 2 7 23
27 46 45 43 32 91 43 91 20z m2983 -118 c3 -41 2 -84 -3 -95 -6 -14 -9 -3 -9
40 -1 33 -3 85 -6 115 -4 36 -2 48 3 35 5 -11 12 -54 15 -95z m243 75 c14 -57
-31 -285 -56 -285 -14 0 -12 26 10 110 11 41 20 103 20 138 0 63 14 83 26 37z
m-2466 -20 c0 -8 -7 -15 -15 -15 -9 0 -12 6 -9 15 4 8 10 15 15 15 5 0 9 -7 9
-15z m92 -37 c9 -16 13 -67 13 -163 0 -167 -13 -207 -80 -240 -54 -26 -166
-33 -184 -11 -14 16 -10 25 132 281 31 55 63 112 71 128 18 33 31 34 48 5z
m-1012 -34 c0 -3 -9 -19 -21 -35 -20 -28 -20 -31 -5 -48 15 -17 15 -22 3 -52
l-15 -34 -12 30 c-6 17 -14 45 -17 64 -5 29 -2 38 23 58 29 23 44 29 44 17z
m3420 -151 c-1 -5 -7 -19 -15 -33 -10 -18 -14 -20 -15 -8 0 23 11 48 21 48 5
0 9 -3 9 -7z m-4120 -115 c0 -17 -3 -18 -15 -8 -8 7 -15 21 -15 32 0 17 3 18
15 8 8 -7 15 -21 15 -32z m3791 -1 c-29 -30 -39 -12 -10 19 14 15 25 20 27 14
3 -7 -5 -21 -17 -33z m289 -77 c36 -18 79 -43 95 -55 17 -13 58 -39 92 -59
109 -64 129 -116 71 -182 -37 -41 -112 -80 -173 -90 -39 -5 -137 12 -198 35
-25 10 -27 13 -13 26 44 45 22 196 -59 388 -7 16 -1 15 56 -6 36 -14 93 -39
129 -57z m-2263 -1 c25 -60 29 -109 11 -127 -28 -28 -168 -2 -168 32 0 8 16
27 34 41 19 15 45 47 57 71 12 25 26 43 32 41 6 -2 21 -28 34 -58z m-2573 11
c51 -31 34 -35 -60 -15 -158 36 -391 -19 -457 -107 -60 -80 -121 -246 -115
-314 2 -31 8 -39 28 -44 25 -6 25 -7 -10 -25 -45 -23 -50 -31 -50 -85 -1 -91
-26 -119 -51 -57 -33 78 -10 206 66 362 60 125 139 220 208 254 55 27 162 51
262 59 97 9 128 4 179 -28z m4642 -90 c37 -180 26 -203 -21 -45 -15 50 -32 96
-37 102 -22 27 -29 -1 -23 -86 5 -55 3 -101 -4 -129 l-12 -42 -39 32 c-22 17
-40 38 -40 46 0 12 3 12 15 2 18 -15 64 -5 71 15 3 7 -4 35 -15 61 -29 66 -27
87 15 124 56 49 66 40 90 -80z m-2272 -51 c88 -17 99 -49 18 -49 -84 0 -142
27 -142 65 0 6 35 2 124 -16z m1541 -69 c21 -34 142 -67 290 -80 119 -9 240
-42 338 -92 62 -31 74 -46 59 -75 -7 -12 -7 -44 1 -97 10 -72 10 -79 -7 -92
-18 -13 -18 -15 -2 -39 39 -59 68 9 59 138 -5 83 -5 87 15 87 50 0 98 -111 52
-123 -24 -6 -27 -34 -3 -39 38 -7 -80 -108 -126 -108 -6 0 -19 9 -30 21 -18
20 -25 49 -51 214 -12 76 -31 115 -56 115 -19 0 -19 2 16 -167 29 -138 23
-163 -38 -163 -21 0 -61 7 -88 15 -57 17 -241 35 -356 35 -93 0 -170 15 -200
40 -22 17 -23 25 -25 171 -1 166 4 190 53 228 28 22 88 28 99 11z m-855 -84
c0 -2 -22 -20 -49 -40 -50 -37 -94 -46 -132 -26 -41 22 -17 44 66 63 26 6 115
8 115 3z m1600 -26 c0 -6 -6 -10 -14 -10 -16 0 -38 24 -30 33 9 8 44 -11 44
-23z m530 21 c0 -13 -29 -35 -37 -28 -7 8 15 37 28 37 5 0 9 -4 9 -9z m-1520
-16 c0 -16 -31 -63 -57 -85 -15 -14 -22 -18 -15 -10 6 8 12 33 12 57 0 41 1
43 30 43 17 0 30 -2 30 -5z m38 -121 c4 -61 -6 -134 -19 -134 -27 0 -43 146
-19 175 21 26 35 11 38 -41z"/>
<path d="M3582 8820 c-22 -46 -29 -100 -13 -100 13 0 43 95 39 122 -4 20 -8
17 -26 -22z"/>
<path d="M2573 9460 c-18 -55 -25 -110 -14 -110 14 0 33 74 29 113 l-3 32 -12
-35z"/>
<path d="M2630 9339 c-15 -44 -46 -103 -77 -147 -29 -40 -53 -77 -53 -83 0
-19 18 -8 56 34 74 80 108 158 102 231 -3 38 -3 37 -28 -35z"/>
<path d="M2349 8940 c-20 -16 -21 -19 -7 -20 21 0 30 -14 39 -60 5 -28 7 -22
8 33 0 37 -3 67 -8 67 -5 0 -19 -9 -32 -20z"/>
<path d="M2453 8883 c5 -50 37 -147 55 -165 22 -22 21 13 -3 64 -14 29 -25 67
-25 85 0 38 -9 63 -22 63 -6 0 -8 -20 -5 -47z"/>
<path d="M2783 8045 c-33 -14 -45 -35 -20 -35 7 0 34 7 60 16 43 14 52 14 110
0 70 -18 167 -21 167 -7 0 6 -21 12 -47 16 -27 3 -76 10 -109 15 -82 13 -122
12 -161 -5z"/>
<path d="M2630 7941 c-26 -27 -61 -77 -80 -112 -32 -61 -33 -63 -21 -124 6
-34 11 -120 12 -191 0 -162 14 -136 24 46 4 74 14 167 22 205 16 73 58 175 73
175 11 0 40 29 40 41 0 21 -27 6 -70 -40z"/>
<path d="M2613 7723 c-15 -26 -16 -62 -3 -83 13 -22 22 7 18 61 -3 41 -4 42
-15 22z"/>
<path d="M2466 7660 c-146 -352 -138 -592 28 -824 75 -106 176 -197 176 -158
0 4 -23 33 -50 66 -70 82 -105 134 -146 219 -74 157 -81 300 -24 482 27 84 42
173 38 220 l-3 40 -19 -45z"/>
<path d="M2615 7490 c-7 -11 17 -61 39 -79 13 -11 17 -10 22 4 13 33 -43 103
-61 75z"/>
<path d="M2126 7362 c-13 -21 25 -194 40 -180 5 6 -15 142 -25 172 -5 12 -10
15 -15 8z"/>
<path d="M2181 7093 c21 -112 96 -323 199 -558 58 -133 150 -401 150 -437 0
-18 2 -20 10 -8 14 21 12 87 -4 145 -17 64 -39 118 -133 328 -42 95 -102 251
-133 347 -61 184 -79 230 -90 230 -4 0 -3 -21 1 -47z"/>
<path d="M2948 6274 c-12 -21 -20 -76 -27 -192 l-8 -124 -39 -40 c-37 -37 -37
-39 -14 -36 54 7 99 119 107 269 5 86 -5 148 -19 123z"/>
<path d="M3011 6155 c-6 -69 -15 -148 -18 -175 -7 -58 8 -68 27 -17 15 40 26
317 13 317 -5 0 -15 -56 -22 -125z"/>
<path d="M3086 5964 c-9 -24 -7 -62 4 -69 6 -4 10 12 10 39 0 48 -4 56 -14 30z"/>
<path d="M4682 6568 c-12 -15 -47 -126 -56 -175 -8 -46 9 -50 27 -5 19 49 51
182 45 188 -3 2 -10 -1 -16 -8z"/>
<path d="M4732 6483 c-22 -54 -76 -221 -87 -270 -10 -49 10 -40 33 15 37 85
93 302 78 302 -2 0 -13 -21 -24 -47z"/>
<path d="M4786 6445 c-9 -22 -21 -60 -26 -85 -5 -25 -21 -74 -36 -110 -59
-146 -103 -279 -93 -286 15 -9 23 2 57 71 58 117 129 370 120 426 -4 22 -6 20
-22 -16z"/>
<path d="M3214 5590 c6 -74 37 -173 66 -210 l20 -25 0 32 c0 37 -52 205 -76
243 -14 24 -15 22 -10 -40z"/>
<path d="M2810 4790 c0 -32 5 -83 12 -112 l12 -53 7 40 c17 89 8 185 -17 185
-10 0 -14 -16 -14 -60z"/>
<path d="M3272 4658 c-19 -19 -14 -28 18 -28 17 0 30 4 30 8 0 9 -21 32 -30
32 -3 0 -11 -5 -18 -12z"/>
<path d="M2841 4530 c-2 -48 19 -194 29 -204 7 -7 10 -1 10 20 -1 40 -37 215
-39 184z"/>
<path d="M2560 3999 c0 -41 32 -81 66 -84 77 -6 377 -233 421 -319 9 -17 23
-37 32 -44 30 -24 131 -72 151 -72 31 0 25 43 -11 85 -25 29 -38 35 -70 35
-43 0 -59 12 -243 182 -97 88 -286 224 -328 236 -14 3 -18 -2 -18 -19z"/>
<path d="M2842 4009 c-47 -18 -18 -34 63 -34 94 0 112 18 35 34 -60 13 -67 13
-98 0z"/>
<path d="M3809 3960 c-204 -69 -439 -183 -439 -212 0 -19 114 -1 197 32 149
59 248 113 248 135 0 16 12 23 66 36 72 17 89 25 89 40 0 17 -45 9 -161 -31z
m-189 -119 c0 -5 -19 -16 -42 -25 -68 -24 -88 -28 -88 -18 0 10 61 36 105 45
11 3 21 5 23 6 1 0 2 -3 2 -8z"/>
<path d="M3165 3920 c-11 -4 -53 -14 -92 -20 -75 -13 -84 -19 -58 -40 21 -17
84 -7 142 22 65 32 71 65 8 38z"/>
<path d="M3135 3810 c9 -15 82 -31 109 -24 14 3 30 12 37 20 10 12 -1 14 -70
14 -51 0 -80 -4 -76 -10z"/>
<path d="M4255 3531 c-46 -22 -85 -56 -85 -75 0 -19 24 -11 94 32 89 55 83 86
-9 43z"/>
<path d="M3597 3430 c-41 -8 -54 -16 -43 -27 12 -12 187 -6 199 6 24 24 -71
38 -156 21z"/>
<path d="M4104 3402 c-82 -55 -176 -137 -161 -140 25 -5 76 26 135 82 45 42
81 86 70 86 -2 0 -21 -12 -44 -28z"/>
<path d="M3920 3372 c-39 -39 -48 -64 -31 -91 6 -10 14 -5 34 20 68 92 66 140
-3 71z"/>
<path d="M1619 4359 c-7 -13 -13 -51 -13 -84 l-1 -60 35 -3 c45 -3 110 46 110
84 0 33 -17 30 -38 -6 -9 -16 -22 -30 -28 -30 -13 0 -34 44 -34 73 0 12 -4 28
-9 36 -7 11 -12 9 -22 -10z"/>
<path d="M2321 4328 c0 -13 4 -32 9 -43 7 -15 9 -10 9 23 1 23 -3 42 -9 42 -5
0 -10 -10 -9 -22z"/>
<path d="M2222 4143 c-43 -37 -92 -77 -108 -89 -26 -19 -27 -23 -17 -47 12
-26 21 -31 88 -42 37 -6 38 -8 20 -21 -10 -8 -31 -14 -46 -14 -42 0 -44 -18
-6 -34 47 -19 53 -33 26 -62 -17 -18 -20 -27 -11 -36 20 -20 53 14 79 82 41
109 46 128 39 145 -5 15 -9 14 -32 -4 -29 -23 -88 -28 -100 -9 -4 7 4 20 20
32 74 57 110 94 123 125 8 18 12 35 10 38 -3 2 -41 -26 -85 -64z"/>
<path d="M5615 3105 c39 -263 120 -764 139 -863 37 -190 53 -290 76 -467 48
-378 142 -715 199 -715 16 0 20 8 23 38 3 33 6 28 36 -63 53 -165 85 -185 53
-34 -30 146 -179 697 -202 748 -41 93 -137 510 -223 971 -46 244 -78 379 -97
409 -7 12 -9 5 -4 -24z m285 -1431 c9 -40 16 -54 26 -50 7 3 16 1 19 -4 5 -9
58 -236 70 -305 9 -54 -6 -37 -26 28 -11 39 -20 51 -32 49 -9 -2 -17 -1 -17 1
0 2 -13 68 -30 145 -28 132 -36 192 -26 192 3 0 10 -25 16 -56z"/>
<path d="M5615 2300 c9 -82 89 -482 150 -750 30 -129 70 -307 90 -395 19 -88
40 -180 46 -205 12 -53 53 -120 74 -120 23 0 17 31 -15 79 -20 29 -30 57 -30
80 0 20 -31 164 -69 321 -38 157 -95 402 -126 545 -69 320 -104 465 -117 485
-6 10 -7 -3 -3 -40z"/>
<path d="M5322 2090 c0 -14 2 -19 5 -12 2 6 2 18 0 25 -3 6 -5 1 -5 -13z"/>
<path d="M5306 1968 c-3 -24 -7 -110 -10 -193 -5 -159 -18 -235 -80 -475 -34
-130 -50 -160 -83 -160 -21 0 -15 -27 11 -43 20 -13 26 -14 35 -3 14 17 96
301 127 441 37 164 46 475 14 475 -5 0 -11 -19 -14 -42z"/>
<path d="M4735 1813 c4 -20 33 -129 65 -242 81 -283 88 -314 99 -415 11 -90
35 -156 60 -164 22 -7 7 111 -33 262 -48 180 -40 186 54 46 59 -88 80 -111 80
-90 0 15 -24 60 -61 114 -42 62 -182 356 -208 435 -11 35 -26 70 -32 77 -21
25 -31 15 -24 -23z"/>
<path d="M5622 1287 c-17 -20 -62 -120 -61 -137 0 -8 18 20 40 64 38 73 46
104 21 73z"/>
<path d="M5690 1216 c0 -44 50 -126 77 -126 20 0 16 27 -10 63 -12 18 -27 41
-33 51 -14 26 -34 32 -34 12z"/>
<path d="M5529 1074 c-6 -16 -33 -87 -60 -159 -59 -155 -145 -334 -187 -391
-16 -22 -46 -48 -66 -58 -35 -16 -38 -16 -74 1 -20 10 -51 38 -70 63 -56 77
-93 120 -102 120 -15 0 0 -30 54 -109 68 -100 125 -159 159 -167 21 -5 28 -3
27 7 -4 29 1 37 30 49 60 25 156 155 205 277 45 111 114 377 101 390 -3 3 -11
-7 -17 -23z"/>
<path d="M5704 1045 c24 -18 49 -20 44 -2 -3 6 -18 13 -34 15 -28 2 -28 2 -10
-13z"/>
<path d="M6646 719 c4 -52 9 -132 9 -179 1 -73 3 -85 18 -88 27 -5 47 17 47
52 l1 31 18 -35 c25 -46 56 -74 76 -67 17 7 18 25 5 82 -13 56 -5 55 24 -4 28
-54 51 -64 80 -35 29 28 17 153 -19 199 -13 17 -16 18 -25 5 -5 -8 -8 -21 -5
-28 3 -8 8 -39 12 -70 6 -53 5 -56 -11 -43 -23 19 -54 80 -81 161 -12 36 -26
63 -31 60 -5 -3 -8 -52 -7 -110 1 -58 0 -100 -3 -95 -3 6 -24 64 -47 129 -54
154 -74 165 -61 35z"/>
<path d="M5693 528 c3 -13 13 -93 22 -178 9 -85 18 -157 21 -159 23 -24 40
154 24 253 -13 83 -24 106 -51 106 -17 0 -20 -5 -16 -22z"/>
<path d="M5825 506 c-4 -18 -2 -71 3 -117 9 -71 14 -87 36 -104 14 -11 36 -41
48 -65 15 -30 31 -46 45 -48 36 -5 46 29 41 147 -5 112 -25 181 -52 181 -19 0
-21 -41 -5 -140 6 -38 9 -84 7 -102 l-3 -33 -22 41 c-21 40 -54 155 -68 237
-7 46 -22 48 -30 3z"/>
<path d="M6065 479 c-8 -12 33 -287 47 -313 10 -18 11 -18 20 -2 6 10 7 41 3
71 -4 36 -2 55 5 60 14 9 6 57 -21 131 -19 51 -42 73 -54 53z"/>
<path d="M6205 479 c-3 -9 1 -55 10 -103 9 -48 19 -124 23 -169 6 -69 10 -82
26 -85 28 -6 31 7 30 115 0 103 -22 184 -64 235 -16 20 -19 21 -25 7z"/>
<path d="M5834 226 c-8 -20 -1 -47 11 -49 6 -1 11 13 13 31 3 32 -14 45 -24
18z"/>
<path d="M2801 10404 c0 -11 3 -14 6 -6 3 7 2 16 -1 19 -3 4 -6 -2 -5 -13z"/>
<path d="M2766 10348 c-3 -13 -11 -79 -17 -147 -12 -141 -15 -151 -58 -205
-17 -21 -28 -42 -25 -47 10 -17 55 16 90 67 34 50 37 59 42 147 7 144 -12 257
-32 185z"/>
<path d="M2510 10090 c-6 -12 -10 -35 -8 -53 l4 -32 17 37 c19 42 22 68 7 68
-5 0 -14 -9 -20 -20z"/>
<path d="M6150 9240 c-15 -16 -134 -238 -263 -492 -130 -255 -261 -508 -291
-563 -93 -165 -157 -296 -153 -308 6 -18 64 78 187 313 172 328 487 952 493
978 3 14 19 28 44 38 88 38 361 -11 1293 -230 383 -90 492 -109 433 -78 -21
12 -393 98 -613 142 -85 18 -308 67 -495 110 -285 66 -554 120 -597 120 -5 0
-23 -13 -38 -30z"/>
<path d="M6411 8800 c-41 -41 -90 -172 -77 -206 11 -28 34 3 47 63 13 58 44
113 68 121 21 7 8 -100 -24 -194 l-25 -76 24 -29 c14 -16 30 -46 36 -67 14
-50 13 -145 -2 -160 -8 -8 -9 -12 -1 -12 6 0 34 30 63 66 48 62 54 65 88 62
l37 -3 7 49 c16 113 152 200 174 111 11 -44 -9 -78 -67 -112 -30 -18 -58 -34
-62 -36 -5 -1 7 -26 27 -55 19 -29 38 -69 42 -88 12 -62 -2 -149 -32 -203 -29
-55 -35 -59 -54 -36 -19 23 -30 18 -30 -13 0 -37 22 -67 43 -59 26 10 76 86
92 140 30 100 15 239 -28 276 -21 17 -22 31 -2 31 46 0 155 154 155 219 0 42
-30 48 -103 21 -83 -31 -146 -78 -174 -130 -46 -83 -117 -138 -127 -97 -1 6
-15 49 -30 93 l-27 81 26 79 c24 76 31 146 19 178 -10 25 -50 19 -83 -14z
m455 -227 c-10 -10 -19 5 -10 18 6 11 8 11 12 0 2 -7 1 -15 -2 -18z"/>
<path d="M8700 8808 c0 -13 23 -134 50 -268 28 -135 118 -576 200 -980 82
-404 169 -832 194 -950 208 -993 295 -1418 430 -2095 148 -744 314 -1621 391
-2068 40 -232 41 -237 61 -237 24 0 17 51 -57 436 -76 395 -99 523 -149 814
-34 199 -206 1090 -296 1540 -55 273 -117 562 -213 987 -28 122 -130 615 -226
1095 -156 773 -290 1424 -343 1662 -17 76 -42 114 -42 64z"/>
<path d="M6252 8533 c-43 -21 -119 -89 -110 -98 4 -4 26 9 49 29 22 21 54 42
70 48 16 5 29 16 29 24 0 17 2 17 -38 -3z"/>
<path d="M7345 8411 c-6 -11 9 -23 19 -14 9 9 7 23 -3 23 -6 0 -12 -4 -16 -9z"/>
<path d="M6084 8348 c-25 -49 -54 -139 -53 -167 0 -21 43 80 76 182 9 28 -5
19 -23 -15z"/>
<path d="M7396 8351 c-18 -34 -20 -51 -7 -51 11 0 36 69 28 77 -3 2 -13 -9
-21 -26z"/>
<path d="M6175 8320 c-23 -44 -65 -157 -65 -174 0 -8 16 -18 37 -23 20 -4 38
-13 40 -19 2 -6 -10 -28 -28 -50 -25 -32 -30 -45 -25 -73 3 -19 12 -41 20 -50
14 -13 18 -13 35 3 11 10 23 27 26 37 4 11 11 19 16 19 19 0 8 -38 -33 -108
-30 -50 -49 -72 -62 -72 -20 0 -20 0 0 -15 10 -8 22 -15 25 -15 4 0 30 41 59
91 42 73 54 104 60 153 3 33 23 103 44 154 59 147 37 140 -39 -12 -39 -77 -76
-142 -84 -144 -10 -3 -8 6 7 30 12 20 22 45 22 57 0 21 -27 55 -51 63 -11 4
-10 20 6 86 20 89 16 113 -10 62z"/>
<path d="M4200 8270 c0 -5 7 -10 15 -10 8 0 15 5 15 10 0 6 -7 10 -15 10 -8 0
-15 -4 -15 -10z"/>
<path d="M4111 8231 c-11 -11 -27 -34 -36 -50 -20 -40 -5 -41 54 -1 56 38 66
30 66 -55 0 -59 15 -99 31 -83 10 11 17 86 10 121 -8 42 -50 87 -82 87 -13 0
-33 -9 -43 -19z"/>
<path d="M4427 8213 c-12 -12 -7 -83 7 -112 24 -46 84 -93 114 -89 32 4 54 50
34 70 -10 10 -14 8 -18 -10 -9 -33 -32 -27 -80 22 -45 44 -56 82 -29 92 21 9
19 34 -3 34 -10 0 -22 -3 -25 -7z"/>
<path d="M6405 8175 c-15 -24 -46 -91 -70 -147 -23 -57 -59 -138 -79 -182 -20
-43 -35 -81 -32 -83 14 -14 161 273 172 337 4 19 12 42 19 50 15 16 31 70 22
70 -4 0 -18 -20 -32 -45z"/>
<path d="M6507 8171 c-59 -56 -72 -84 -17 -37 31 25 50 33 50 20 0 -4 -23 -57
-51 -118 -69 -151 -160 -377 -156 -389 9 -29 241 516 235 556 -3 20 -8 17 -61
-32z"/>
<path d="M6997 8190 c-45 -36 -188 -272 -173 -287 3 -4 148 202 199 285 14 23
2 23 -26 2z"/>
<path d="M6564 7979 c-20 -25 -51 -93 -59 -129 -7 -35 -7 -35 13 -17 26 23 64
112 60 139 -2 18 -5 19 -14 7z"/>
<path d="M6446 7724 c-10 -14 -15 -28 -13 -31 3 -2 13 7 23 21 9 15 14 29 12
32 -3 2 -13 -7 -22 -22z"/>
<path d="M5306 7608 c-27 -53 -32 -78 -18 -78 9 0 40 61 53 103 13 45 -7 31
-35 -25z"/>
<path d="M5196 7361 c-37 -78 -66 -147 -64 -153 2 -6 34 54 71 132 38 78 67
146 65 152 -2 6 -34 -53 -72 -131z"/>
<path d="M6640 7472 c-25 -20 -20 -42 9 -42 20 0 31 -26 31 -78 0 -25 5 -35
25 -42 19 -7 26 -20 36 -69 15 -72 29 -70 29 5 0 60 -13 94 -35 94 -22 0 -35
34 -35 94 0 48 -3 56 -19 56 -10 0 -29 -8 -41 -18z"/>
<path d="M6434 7386 c-37 -36 -65 -69 -61 -73 4 -4 38 23 74 60 37 36 64 69
61 72 -3 3 -36 -23 -74 -59z"/>
<path d="M5696 7141 c14 -13 87 -34 329 -96 219 -56 497 -131 588 -159 26 -8
49 -10 52 -6 10 17 -183 79 -526 171 -311 83 -471 115 -443 90z"/>
<path d="M4777 6853 c-3 -10 -8 -40 -12 -67 -6 -43 -5 -48 8 -38 17 14 41 98
32 113 -10 14 -23 11 -28 -8z"/>
<path d="M1404 2004 c-10 -66 1 -454 14 -486 6 -14 20 -29 31 -33 13 -4 21
-15 21 -29 0 -42 24 -51 134 -50 107 2 176 15 195 38 28 34 36 537 9 589 -8
15 -28 17 -203 17 l-194 0 -7 -46z m202 -19 c71 -72 121 -295 85 -382 -15 -36
-78 -73 -125 -73 -78 0 -108 63 -114 247 -6 168 1 220 31 226 62 12 98 7 123
-18z m164 -41 c12 -52 12 -149 0 -258 -18 -152 -31 -150 -49 10 -25 208 -13
340 26 301 8 -8 19 -32 23 -53z m-25 -433 c6 -11 -33 -26 -43 -16 -4 3 0 10 8
15 19 12 27 12 35 1z"/>
</g>
</svg>
