<?xml version="1.0" standalone="no"?>
<!DOCTYPE svg PUBLIC "-//W3C//DTD SVG 20010904//EN"
 "http://www.w3.org/TR/2001/REC-SVG-20010904/DTD/svg10.dtd">
<svg version="1.0" xmlns="http://www.w3.org/2000/svg"
 width="1280.000000pt" height="830.000000pt" viewBox="0 0 1280.000000 830.000000"
 preserveAspectRatio="xMidYMid meet">
<metadata>
Created by potrace 1.15, written by Peter Selinger 2001-2017
</metadata>
<g transform="translate(0.000000,830.000000) scale(0.100000,-0.100000)"
fill="#000000" stroke="none">
<path d="M2105 8286 c-32 -25 -2 -36 105 -36 106 0 317 -32 358 -54 25 -14 18
-14 -73 -9 -166 9 -340 -21 -442 -78 l-53 -29 -56 31 c-109 62 -222 73 -399
39 -126 -25 -363 -104 -388 -131 -10 -11 -33 -26 -52 -33 -19 -8 -56 -34 -82
-58 -27 -24 -65 -56 -85 -71 -44 -32 -48 -47 -14 -47 15 0 49 20 86 51 34 28
80 59 104 69 23 11 51 29 62 41 54 61 354 150 514 153 118 1 180 -15 218 -59
16 -17 34 -35 40 -39 6 -4 68 22 138 56 l127 63 244 3 c226 3 247 2 299 -17
30 -12 66 -21 80 -21 14 0 37 -8 52 -19 15 -10 57 -35 93 -54 62 -34 129 -91
129 -109 0 -4 5 -8 12 -8 7 0 25 -12 40 -27 22 -21 38 -27 75 -28 33 0 63 -9
98 -29 73 -42 101 -72 152 -158 46 -77 107 -147 119 -136 13 14 -96 200 -155
262 -43 46 -123 86 -172 86 -24 0 -42 7 -55 21 -10 12 -60 50 -109 84 -82 58
-137 105 -122 105 3 0 29 -9 57 -20 28 -11 70 -20 93 -20 l42 0 -47 27 c-81
45 -53 44 60 -2 113 -46 172 -59 179 -38 2 7 -11 18 -29 26 -18 8 -39 21 -47
30 -24 30 14 20 99 -24 76 -40 170 -63 170 -42 0 6 -18 17 -40 26 -22 8 -40
20 -40 26 0 18 52 13 143 -14 47 -13 105 -27 129 -30 l43 -6 -30 26 c-30 27
-30 27 -5 22 14 -2 63 -15 109 -27 63 -17 99 -21 139 -16 50 6 58 4 114 -30
41 -25 77 -39 109 -42 27 -2 49 -2 49 2 0 3 -19 16 -42 28 -77 40 -14 32 86
-11 146 -62 216 -75 216 -40 0 19 6 17 75 -21 83 -46 189 -90 216 -90 37 0 28
20 -21 45 -102 51 -35 43 103 -13 80 -33 90 -35 98 -20 9 15 14 16 57 2 26 -8
66 -19 90 -24 29 -7 53 -22 78 -50 33 -36 40 -40 70 -34 29 5 42 1 89 -35 59
-45 73 -49 81 -26 10 24 32 18 108 -29 113 -70 165 -93 175 -77 7 11 16 8 45
-14 20 -15 49 -44 65 -64 24 -29 32 -34 42 -23 7 6 17 12 21 12 4 0 54 -37
110 -83 57 -46 120 -94 140 -108 20 -14 52 -46 70 -71 18 -25 49 -67 70 -94
20 -27 42 -66 49 -89 8 -22 35 -71 60 -110 70 -104 121 -210 126 -263 3 -26
13 -70 23 -98 35 -97 79 -260 85 -319 4 -33 16 -80 26 -105 10 -25 38 -150 63
-279 27 -141 51 -240 61 -251 21 -23 19 -44 -2 -37 -10 3 -58 23 -108 45 -84
37 -246 82 -293 82 -11 0 -27 7 -36 15 -19 19 -25 19 -48 -2 -16 -14 -23 -15
-38 -5 -11 7 -42 12 -70 12 -27 0 -50 4 -50 9 0 19 -66 30 -145 23 -72 -6 -80
-9 -83 -28 -4 -25 -7 -25 -284 -45 -120 -8 -165 -8 -193 1 -61 20 -166 15
-216 -11 -36 -18 -70 -24 -184 -31 -203 -12 -499 -38 -580 -50 -89 -13 -165
-42 -194 -72 l-22 -23 30 -26 c17 -14 47 -31 68 -39 55 -19 322 -14 590 11
122 12 226 21 231 21 6 0 13 -21 16 -47 12 -81 35 -150 61 -181 21 -25 24 -35
15 -56 -7 -18 -4 -49 9 -110 10 -46 22 -90 27 -97 4 -7 7 -26 6 -40 -2 -21 8
-36 43 -67 54 -48 119 -72 191 -72 40 0 53 -4 58 -17 4 -10 17 -32 28 -49 20
-29 24 -30 73 -26 l52 4 7 -46 c6 -39 11 -46 30 -46 12 0 27 5 34 12 9 9 16 8
29 -4 10 -9 29 -19 43 -23 14 -4 34 -15 45 -25 39 -34 63 -42 73 -24 12 21 32
10 32 -18 0 -14 5 -18 15 -14 8 3 22 9 30 12 11 4 15 0 15 -15 0 -20 5 -21
104 -21 l104 0 16 -40 c9 -22 16 -47 16 -54 0 -8 20 -40 44 -73 24 -32 51 -73
60 -91 10 -18 53 -88 97 -154 43 -66 82 -131 85 -144 5 -19 -5 -44 -42 -102
-122 -196 -190 -314 -225 -390 -21 -45 -45 -85 -54 -88 -24 -10 -60 -89 -120
-265 -41 -119 -55 -176 -55 -217 0 -51 -5 -63 -69 -161 -92 -143 -197 -328
-216 -382 -9 -24 -23 -75 -32 -113 -8 -38 -21 -83 -28 -100 l-13 -30 -55 85
c-93 144 -171 186 -97 51 92 -166 111 -202 106 -202 -10 0 -59 58 -112 131
-52 72 -120 145 -148 161 -17 9 -18 7 -12 -18 4 -15 25 -50 47 -77 21 -27 39
-59 39 -71 0 -17 -9 -12 -50 31 -48 51 -70 64 -70 43 0 -6 7 -22 16 -36 38
-57 -25 -31 -69 28 -32 45 -102 218 -91 228 18 16 134 30 159 18 31 -14 55 -4
55 22 0 28 26 36 64 20 17 -7 43 -15 59 -17 24 -5 27 -2 27 21 0 29 18 34 50
14 45 -29 36 26 -10 57 -51 34 -34 58 24 35 19 -7 26 -6 26 3 0 21 -15 37 -66
70 -37 24 -56 46 -77 90 -16 32 -26 61 -23 65 3 3 27 -17 54 -45 52 -55 91
-78 72 -42 -12 21 -125 109 -141 109 -13 0 -175 158 -168 164 7 7 132 -77 182
-121 75 -67 140 -80 123 -25 -11 32 -203 210 -302 279 -49 34 -98 68 -108 76
-19 13 -19 18 -6 144 18 182 4 294 -45 350 -13 16 -26 25 -30 22 -3 -4 3 -57
15 -119 22 -125 25 -225 9 -284 -9 -32 -14 -37 -32 -33 -45 10 -92 33 -105 50
-7 9 -20 17 -28 17 -31 0 -6 -26 64 -68 64 -38 72 -47 72 -73 0 -27 -3 -30
-22 -23 -13 4 -34 15 -47 25 -33 26 -48 24 -84 -13 -26 -28 -32 -30 -35 -16
-2 10 6 30 17 44 17 21 19 30 9 41 -19 24 -53 12 -56 -20 -5 -41 -36 -32 -40
11 -2 24 1 32 12 32 32 0 14 20 -50 56 -39 22 -69 46 -74 60 -5 13 -14 24 -19
24 -12 0 -48 -46 -56 -71 -7 -20 -35 -25 -64 -10 -9 5 -69 11 -133 12 l-115 2
-48 -36 c-60 -46 -79 -49 -59 -8 23 45 37 136 30 185 -6 37 -13 49 -36 61 -16
8 -31 15 -35 15 -11 0 -4 -31 16 -69 24 -48 19 -72 -39 -184 -51 -98 -148
-172 -200 -152 -13 5 -10 11 18 33 125 96 170 160 170 240 0 97 -37 143 -73
89 -8 -13 -30 -28 -48 -34 -19 -7 -72 -28 -119 -47 -47 -20 -97 -36 -111 -36
-39 0 -89 -28 -89 -51 0 -10 -9 -24 -20 -31 -11 -7 -20 -23 -20 -35 0 -12 -9
-47 -20 -77 -22 -57 -96 -137 -141 -151 -13 -4 -46 -25 -73 -46 -27 -22 -53
-39 -59 -39 -6 0 -29 -8 -51 -18 -23 -10 -58 -26 -79 -35 -21 -9 -57 -17 -81
-17 -24 0 -79 -7 -122 -16 -77 -16 -118 -16 -269 2 -37 4 -46 3 -35 -5 8 -6
25 -11 36 -11 27 0 48 -25 40 -46 -4 -12 -13 -15 -31 -10 -14 3 -36 9 -50 12
-20 5 -25 2 -30 -19 -9 -35 16 -79 95 -162 73 -78 112 -141 104 -171 -3 -10 2
-46 10 -79 18 -67 21 -161 6 -199 -9 -25 -10 -25 -48 -12 -51 18 -126 58 -182
95 -49 34 -62 38 -54 18 10 -27 130 -105 193 -126 91 -30 90 -29 84 -119 -5
-65 -10 -80 -30 -95 -17 -14 -23 -28 -23 -58 0 -42 -18 -67 -85 -115 l-30 -22
29 -11 29 -12 -49 -50 c-70 -72 -171 -120 -270 -128 -64 -5 -79 -10 -92 -28
-14 -23 -14 -23 39 -23 110 1 210 40 312 122 l62 49 15 -22 c8 -13 30 -41 49
-63 36 -43 70 -110 71 -137 0 -9 17 -23 40 -32 70 -27 93 -132 25 -120 -24 5
-24 4 -13 -28 14 -43 37 -79 50 -79 5 0 9 17 7 38 -3 54 -1 62 16 62 14 0 55
-67 55 -89 0 -6 -16 -13 -35 -17 -32 -6 -35 -9 -35 -40 0 -19 -4 -34 -9 -34
-14 0 -88 84 -106 121 -10 19 -27 44 -38 56 -23 26 -52 31 -43 8 3 -8 9 -23
13 -32 5 -13 3 -15 -13 -9 -32 12 -38 12 -41 -6 -3 -9 12 -32 33 -53 29 -29
34 -39 23 -46 -8 -5 -18 -9 -23 -9 -4 0 -5 -11 -2 -24 3 -13 1 -38 -5 -54 -9
-27 -6 -40 24 -104 20 -40 52 -92 71 -115 24 -27 36 -51 36 -71 0 -16 38 -107
85 -205 47 -98 85 -188 84 -204 0 -24 -3 -22 -23 23 -13 28 -58 107 -100 177
-42 69 -76 129 -76 134 0 16 -59 103 -70 103 -17 0 -11 -43 10 -75 11 -16 20
-41 20 -54 0 -13 17 -56 39 -95 64 -118 144 -337 122 -336 -19 2 -219 352
-222 390 -1 24 -103 213 -116 218 -17 5 -3 -40 63 -208 29 -77 56 -159 60
-182 l6 -43 -24 40 c-13 22 -56 109 -96 194 -75 161 -113 221 -138 221 -20 0
-19 -3 30 -93 25 -45 65 -136 91 -202 25 -66 55 -141 67 -167 18 -39 19 -52
10 -73 -6 -14 -15 -25 -20 -25 -8 0 -128 240 -205 410 -32 70 -64 120 -77 120
-19 0 16 -92 84 -224 73 -140 111 -235 104 -258 -6 -18 -93 96 -134 177 -41
80 -54 97 -54 71 0 -16 22 -64 88 -191 11 -22 26 -59 31 -81 6 -23 35 -75 65
-115 29 -41 65 -97 79 -126 15 -28 32 -53 39 -56 7 -2 25 15 41 39 15 24 32
44 37 44 6 0 18 -16 27 -35 9 -20 22 -34 27 -32 6 2 20 23 32 46 l21 44 24
-44 c19 -35 30 -45 55 -47 25 -2 32 2 45 29 l15 32 28 -29 c26 -28 27 -28 41
-10 8 11 15 40 15 65 0 50 8 47 31 -12 20 -50 45 -59 59 -23 13 36 23 33 55
-15 l27 -41 51 7 c80 12 1028 15 1242 5 679 -33 964 -38 1530 -29 l290 5 127
42 c77 26 146 42 175 42 60 0 48 -11 -42 -40 -72 -22 -135 -55 -135 -70 0 -15
59 -22 121 -15 32 4 59 11 59 15 0 5 17 4 37 -2 24 -6 66 -7 113 -2 41 4 188
8 325 8 138 1 263 5 279 10 21 6 27 6 22 -3 -10 -16 24 -14 96 4 38 10 64 13
71 7 11 -9 319 -21 627 -25 98 -2 329 14 480 32 45 6 73 4 95 -5 25 -10 35
-10 55 2 33 18 65 18 80 -1 19 -22 364 -22 440 1 79 23 100 40 100 80 0 38 -2
37 89 24 54 -7 77 -5 155 14 66 17 109 22 156 19 54 -4 82 1 161 26 53 17 111
31 128 31 18 0 64 14 102 30 38 17 88 34 111 39 44 8 319 172 448 267 102 74
210 187 210 218 0 44 -58 27 -115 -34 -65 -69 -185 -162 -202 -156 -11 5 -38
-14 -87 -62 -58 -56 -155 -122 -181 -122 -13 0 -2 22 35 69 44 56 65 100 53
112 -17 15 -54 -12 -87 -63 -51 -78 -178 -187 -236 -203 -18 -4 -2 15 58 72
84 81 101 113 60 113 -23 0 -41 -10 -120 -67 -24 -17 -62 -35 -84 -39 -21 -4
-56 -18 -77 -32 -27 -18 -55 -27 -95 -29 -31 -2 -90 -11 -130 -20 -62 -15 -82
-15 -142 -5 -39 7 -91 22 -116 34 -52 24 -119 82 -110 96 3 6 34 4 78 -4 40
-8 91 -14 114 -14 56 0 289 80 362 124 58 35 122 96 122 116 0 23 -61 7 -132
-35 -103 -62 -243 -100 -283 -77 -17 9 -17 10 3 21 11 6 53 15 93 21 64 9 109
30 109 49 0 3 -37 6 -83 6 -65 1 -91 5 -124 23 -47 25 -68 47 -31 33 65 -24
168 -20 168 7 0 4 -27 13 -59 20 -33 7 -90 28 -128 47 -81 41 -183 122 -183
145 0 21 38 129 84 240 20 47 36 101 36 121 0 19 6 43 13 53 12 16 22 10 121
-78 59 -53 114 -96 122 -96 24 0 15 28 -21 64 -19 20 -35 42 -35 50 0 18 33 5
185 -69 49 -24 91 -42 93 -40 3 2 -1 18 -8 34 -15 37 -6 53 25 45 33 -8 48 2
35 26 -12 23 -61 40 -117 40 -51 0 -121 26 -107 39 5 5 35 14 68 20 64 12 93
28 77 44 -5 5 -57 13 -116 17 -59 3 -110 11 -117 18 -9 9 -3 12 28 12 87 0 85
42 -3 60 -61 13 -107 33 -118 51 -4 6 3 21 16 35 26 28 21 36 -35 54 -36 11
-38 14 -32 43 11 54 20 54 121 4 166 -83 288 -117 424 -117 70 0 95 4 131 23
55 27 60 42 19 51 l-32 6 26 20 c14 11 30 20 35 20 12 0 142 -137 142 -150 0
-5 17 -18 38 -30 21 -12 50 -42 66 -68 48 -79 194 -268 245 -319 27 -26 56
-63 65 -80 9 -18 36 -47 61 -65 24 -18 47 -42 51 -53 4 -11 32 -48 63 -83 69
-77 111 -132 111 -144 0 -6 -17 -7 -38 -3 l-39 6 -27 -63 c-55 -124 -68 -148
-93 -168 -19 -15 -28 -17 -42 -8 -15 9 -32 1 -102 -53 -144 -111 -205 -145
-364 -204 -129 -47 -172 -76 -196 -128 -19 -42 -19 -42 2 -60 34 -28 65 -31
96 -9 15 10 55 29 88 41 126 47 255 128 392 246 l42 37 15 -30 c22 -42 36
-111 29 -144 -7 -34 -83 -123 -124 -143 -15 -8 -53 -15 -84 -15 -62 0 -66 -7
-35 -58 14 -22 26 -32 36 -28 8 3 36 1 61 -5 87 -19 125 5 193 122 51 86 62
95 92 75 12 -9 33 -16 45 -16 15 0 28 -10 38 -29 33 -65 241 -91 336 -43 l46
24 122 -16 c127 -17 284 -21 341 -10 25 6 35 15 46 43 8 20 19 46 24 58 l9 21
39 -19 c62 -31 178 -52 256 -45 38 3 73 9 78 14 17 17 -33 61 -102 88 -76 29
-108 54 -72 54 35 0 35 20 0 34 -18 8 -55 17 -83 21 -27 4 -68 19 -90 33 -22
15 -63 36 -92 48 -66 27 -143 72 -143 84 0 5 5 12 10 15 14 9 60 82 60 96 0 6
-9 22 -20 36 -45 57 -20 56 158 -3 75 -25 161 -48 190 -51 l52 -6 0 30 c0 41
-19 54 -88 62 -37 4 -79 18 -114 38 -30 18 -82 39 -114 47 -36 10 -65 24 -76
38 -17 23 -17 23 18 26 22 2 44 -4 63 -17 16 -11 41 -25 57 -31 41 -16 247
-60 253 -54 3 2 0 17 -5 32 -9 25 -15 28 -79 34 -39 4 -100 17 -136 29 l-65
22 29 56 c16 31 38 72 48 91 13 23 19 55 19 98 0 85 -31 146 -117 234 l-67 67
26 10 c14 5 55 13 90 16 96 9 205 34 218 50 9 11 4 16 -28 26 -29 8 -71 9
-172 0 -164 -14 -345 -14 -370 -1 -16 9 -17 14 -5 52 7 24 19 56 26 71 l13 28
155 -5 c86 -3 192 -8 237 -12 75 -6 85 -5 142 21 l62 28 0 108 c0 100 -2 109
-21 120 -36 19 -189 39 -300 39 -139 0 -154 10 -144 92 l7 56 182 5 c208 6
271 18 262 51 -2 12 -9 37 -13 56 -7 28 -15 36 -43 43 -43 11 -321 13 -373 3
l-37 -7 -64 134 c-35 74 -86 167 -113 208 -59 89 -80 137 -89 204 -4 27 -14
65 -22 85 -8 19 -27 89 -42 155 -39 167 -60 216 -148 351 -97 151 -97 157 -15
282 34 50 71 117 82 147 35 94 24 203 -32 310 -26 50 -37 64 -202 260 -123
145 -157 205 -216 382 l-51 153 -68 35 c-82 44 -108 67 -115 103 -4 15 -13 42
-21 60 -8 18 -14 63 -14 101 0 84 -16 131 -72 215 -24 35 -58 89 -77 120 -24
38 -54 69 -95 97 -34 23 -70 50 -81 59 -11 10 -42 25 -70 34 -86 28 -145 69
-284 197 -147 136 -229 196 -278 204 -18 3 -49 7 -68 10 -30 5 -41 16 -81 78
-63 96 -78 133 -59 141 8 3 24 27 37 53 l23 48 120 5 c117 5 147 13 187 48 25
21 9 38 -78 77 -39 18 -74 38 -78 44 -4 6 -16 11 -27 11 -11 0 -46 14 -77 30
-31 17 -74 37 -94 45 -55 21 -48 37 15 35 94 -3 114 0 137 18 22 18 22 19 5
53 -10 19 -25 63 -34 99 -21 83 -40 90 -91 30 -36 -43 -60 -47 -60 -12 0 11
-27 31 -75 56 -51 27 -111 73 -187 144 -174 161 -196 176 -304 212 -145 48
-199 60 -321 67 -89 5 -121 3 -161 -11 -28 -9 -63 -16 -77 -16 -15 0 -45 -13
-68 -28 -49 -33 -119 -63 -198 -86 -69 -19 -103 -55 -158 -164 -27 -54 -36
-83 -31 -97 11 -29 0 -78 -21 -93 -10 -7 -42 -36 -71 -65 -29 -29 -64 -60 -77
-68 -24 -15 -24 -20 -24 -125 0 -98 17 -194 47 -274 4 -10 -18 -32 -69 -70
-42 -30 -112 -91 -158 -137 -62 -63 -89 -83 -109 -83 -47 0 -90 -74 -68 -116
11 -20 9 -27 -24 -66 -52 -60 -94 -150 -110 -238 -8 -41 -22 -92 -31 -113 -37
-88 -49 -186 -49 -402 l-1 -210 51 -145 c28 -80 54 -152 58 -161 6 -13 0 -15
-35 -13 -41 2 -44 4 -70 55 -16 30 -29 61 -29 69 -1 8 -28 33 -62 54 -51 33
-64 37 -79 28 -25 -16 -29 -15 -29 4 0 9 -20 24 -47 36 -56 24 -63 32 -63 73
0 53 -29 147 -72 233 -48 98 -149 212 -243 273 l-63 42 16 27 c17 29 9 89 -65
460 -64 322 -224 853 -267 885 -8 6 -21 27 -29 48 -27 64 -189 287 -262 361
-111 112 -267 252 -303 270 -66 34 -188 114 -217 143 -17 16 -116 73 -220 125
-141 72 -204 98 -245 103 -30 4 -111 27 -179 51 -227 81 -358 110 -811 180
-355 54 -507 73 -580 73 -30 -1 -170 -2 -310 -4 -494 -5 -644 -11 -667 -23
-18 -10 -28 -10 -45 -1 -21 11 -123 17 -178 10 -14 -1 -52 2 -85 7 -33 6 -112
13 -175 17 -96 5 -118 4 -135 -9z m7009 -871 c131 -23 268 -70 323 -112 27
-20 96 -82 154 -138 98 -96 184 -155 224 -155 13 0 15 -10 13 -57 l-3 -58 -35
2 c-20 1 -49 7 -65 14 -50 21 -154 39 -271 47 -106 7 -114 9 -165 45 -33 22
-66 37 -84 37 -17 0 -51 7 -76 16 -51 19 -99 13 -99 -12 0 -11 9 -15 33 -13
19 2 46 -6 67 -19 19 -12 45 -22 58 -22 12 0 22 -5 22 -11 0 -7 -10 -9 -25 -5
-27 7 -33 -5 -12 -22 6 -5 31 -15 55 -21 23 -7 42 -16 42 -21 0 -5 -66 -10
-147 -13 -82 -2 -159 -7 -172 -12 -21 -7 -22 -6 -13 12 10 18 6 21 -67 37 -49
10 -85 24 -96 36 -18 19 -17 20 8 20 71 0 80 37 10 42 -48 3 -48 4 -19 16 24
10 26 15 15 28 -10 12 -24 14 -61 9 -48 -7 -69 7 -29 20 26 8 34 33 13 39 -9
3 -35 1 -57 -4 -64 -15 -73 -12 -40 15 26 22 27 25 11 31 -10 4 -41 0 -69 -9
-53 -17 -69 -15 -49 5 29 29 -7 36 -62 13 -20 -9 -20 -8 0 26 16 28 35 40 104
67 47 18 128 51 180 74 90 38 196 65 266 67 17 1 70 -6 118 -14z m-356 -521
c131 -53 129 -53 407 -33 179 12 473 14 572 3 48 -5 52 -7 43 -24 -5 -10 -29
-25 -52 -33 -109 -39 -250 -77 -318 -87 -91 -14 -180 -50 -294 -119 -72 -43
-89 -50 -104 -40 -20 13 -51 -1 -186 -84 -33 -21 -63 -37 -67 -37 -4 0 -9 51
-11 113 -3 95 0 115 14 132 57 68 12 160 -118 242 -38 24 3 12 114 -33z m1235
2 c19 -41 14 -44 -58 -36 l-50 5 32 33 c40 41 55 40 76 -2z m-1408 -55 c49
-22 88 -63 92 -96 2 -13 10 -43 18 -66 20 -57 19 -76 -6 -84 -24 -8 -38 7 -39
40 -1 33 -34 97 -84 157 -25 31 -46 59 -46 62 0 11 25 6 65 -13z m-337 -107
c3 -48 1 -69 -9 -74 -22 -14 -26 -4 -34 74 -8 84 -1 107 23 82 10 -10 18 -40
20 -82z m1397 -54 c34 -20 64 -30 92 -30 24 0 73 -12 110 -26 57 -23 89 -28
198 -32 156 -6 141 -24 -20 -24 -122 -1 -242 27 -364 83 -46 21 -95 39 -108
39 -14 0 -21 4 -18 10 11 19 60 10 110 -20z m-1155 -131 c19 -62 52 -109 78
-109 19 0 14 33 -12 70 -13 19 -26 44 -29 55 -9 29 16 57 48 53 26 -3 27 -4
31 -100 7 -126 2 -136 -57 -105 -64 34 -100 97 -106 184 -4 64 -3 67 11 43 9
-14 25 -55 36 -91z m914 59 c-4 -7 -16 -25 -26 -40 -22 -31 -17 -48 14 -48 16
0 19 -5 16 -25 -5 -25 -4 -25 62 -25 52 0 77 6 112 24 40 21 51 23 89 14 24
-5 75 -8 112 -5 l69 4 -35 -36 c-19 -20 -42 -51 -51 -68 -9 -18 -21 -33 -26
-33 -6 0 -20 -12 -33 -26 l-22 -26 -5 48 c-3 26 -10 49 -17 51 -11 4 -63 -97
-63 -123 0 -8 -4 -14 -10 -14 -5 0 -10 9 -10 19 0 11 -4 22 -9 26 -14 8 -41
-23 -41 -47 0 -11 -16 -42 -35 -67 -41 -57 -58 -97 -49 -123 5 -18 7 -18 31
-3 20 14 30 15 53 5 26 -11 33 -9 73 19 48 32 119 108 170 179 l32 44 9 -31
c13 -47 -7 -99 -68 -178 -29 -37 -65 -87 -80 -110 -14 -24 -32 -43 -40 -43 -8
0 -16 -7 -20 -15 -3 -9 -21 -25 -40 -36 -50 -29 -162 -183 -251 -344 -21 -38
-54 -92 -72 -120 -18 -27 -33 -61 -33 -75 0 -15 -7 -35 -15 -46 -8 -10 -15
-39 -15 -64 0 -25 -3 -62 -6 -83 -6 -32 -9 -35 -22 -25 -8 7 -24 32 -34 56
-17 38 -21 41 -39 31 -34 -18 -33 -2 3 30 30 27 31 30 14 37 -10 4 -40 2 -65
-5 -58 -15 -81 -7 -81 26 0 23 -3 25 -35 19 -33 -7 -35 -5 -35 21 l0 28 78 0
c133 1 230 66 248 165 3 19 17 58 31 87 26 55 24 97 -4 91 -18 -3 -26 -15 -47
-70 -11 -27 -21 -38 -35 -38 -27 0 -26 5 9 65 16 28 30 58 30 68 0 30 -34 19
-71 -25 -32 -37 -39 -41 -53 -29 -20 17 -20 35 -1 51 20 16 19 49 -1 57 -8 3
-25 -4 -38 -16 -12 -11 -28 -21 -34 -21 -17 0 -93 39 -182 94 -41 25 -78 46
-82 46 -5 0 -25 17 -46 39 -49 51 -113 65 -275 59 l-120 -4 -13 32 c-26 61
-114 103 -114 54 0 -15 7 -20 26 -20 19 0 28 -8 40 -35 17 -42 17 -45 1 -45
-7 0 -29 19 -49 43 -32 39 -40 43 -71 39 -26 -3 -40 1 -56 17 -12 12 -21 24
-21 29 0 4 50 41 110 82 61 41 129 88 151 103 23 16 44 38 47 49 5 19 10 20
74 15 49 -4 83 -14 114 -32 24 -14 44 -21 44 -15 0 7 12 9 34 5 20 -4 43 -2
57 6 13 7 38 13 54 15 41 2 383 153 450 198 30 20 57 36 59 36 2 0 7 -11 10
-25 5 -21 10 -23 29 -16 13 5 41 21 62 35 40 27 92 36 79 14z m456 -463 c0
-15 -18 -30 -27 -22 -2 3 -2 15 2 26 7 23 25 19 25 -4z m294 -54 c83 -38 172
-102 181 -132 7 -22 79 -99 93 -99 5 0 37 -17 73 -39 35 -21 75 -42 89 -46 14
-4 34 -16 44 -27 21 -23 92 -57 117 -58 25 0 179 -184 179 -214 0 -5 -35 27
-78 71 -83 86 -202 166 -202 136 0 -5 36 -39 80 -78 44 -38 80 -75 80 -81 0
-6 16 -24 35 -41 32 -28 45 -53 29 -53 -3 0 -60 41 -127 90 -98 75 -123 89
-133 78 -10 -10 -11 -22 -2 -57 9 -35 26 -58 80 -109 76 -72 146 -170 177
-250 24 -61 23 -62 -69 -37 -30 8 -75 15 -100 15 -42 1 -44 2 -25 16 17 13 18
16 5 24 -29 19 -339 16 -380 -4 -14 -6 -26 -20 -28 -30 -4 -18 1 -19 74 -12
44 3 102 9 131 12 29 4 65 3 80 -1 27 -6 27 -7 9 -20 -10 -8 -47 -24 -81 -35
-65 -22 -116 -62 -95 -75 6 -4 35 -4 63 -1 35 4 70 1 107 -9 30 -9 107 -20
170 -24 95 -7 129 -14 195 -41 44 -18 109 -43 144 -55 l63 -23 73 -111 c40
-62 93 -134 119 -160 25 -27 60 -80 77 -117 26 -54 59 -96 164 -205 166 -171
190 -215 190 -339 l0 -85 -62 -96 c-35 -52 -91 -158 -125 -235 -34 -76 -77
-165 -95 -196 -18 -31 -33 -65 -33 -76 0 -11 -12 -39 -27 -61 -61 -94 -291
-150 -439 -107 -27 8 -76 19 -108 25 -32 6 -71 18 -85 28 l-26 18 63 6 c39 4
69 13 82 24 32 29 25 45 -21 45 -31 0 -65 14 -147 61 -120 69 -176 108 -167
117 3 3 56 -20 116 -52 93 -48 124 -59 188 -66 42 -5 100 -18 129 -30 67 -26
121 -25 178 1 61 29 141 104 184 172 19 31 41 56 47 57 7 0 19 15 27 34 8 18
19 37 25 40 19 12 1 27 -22 20 -12 -3 -35 -16 -52 -28 -16 -13 -39 -26 -50
-30 -11 -4 -63 -32 -116 -62 -96 -54 -188 -80 -202 -57 -4 6 5 25 18 43 14 19
25 39 25 46 0 6 30 19 68 28 37 10 112 39 167 65 55 26 122 51 147 54 26 4 67
16 90 27 43 20 43 21 40 63 -7 67 -12 69 -126 61 -68 -5 -110 -13 -129 -25
-19 -11 -41 -16 -61 -12 -19 3 -67 -7 -126 -25 -144 -46 -198 -55 -296 -50
-66 3 -100 10 -131 26 -24 13 -43 26 -43 31 0 5 24 10 53 10 91 0 218 59 316
147 l54 48 104 3 c92 3 109 6 136 27 18 13 56 36 85 51 28 16 52 33 52 38 0 6
-22 32 -48 57 -96 93 -240 108 -344 37 -25 -16 -32 -17 -64 -5 -30 10 -39 10
-62 -3 -15 -8 -27 -23 -27 -34 0 -17 6 -20 34 -17 l34 2 -74 -77 c-67 -70
-123 -113 -148 -113 -11 0 -131 88 -175 129 -45 41 -68 102 -64 174 2 54 -1
66 -21 86 l-23 23 43 42 c24 23 50 40 57 38 7 -3 12 5 12 17 0 28 -7 27 -62
-8 -25 -16 -56 -32 -69 -35 -23 -7 -23 -6 4 16 31 27 36 58 9 58 -10 0 -37
-14 -60 -31 -34 -25 -45 -29 -57 -19 -10 9 -19 9 -36 -1 -13 -6 -73 -14 -134
-17 -138 -6 -155 2 -229 102 -30 41 -59 77 -65 81 -18 10 -13 25 9 25 10 0 42
-9 70 -20 74 -29 145 -34 287 -20 126 12 129 13 165 48 32 30 41 34 72 29 42
-7 58 9 50 49 -5 28 -8 29 -52 26 -35 -3 -70 5 -139 32 -51 20 -95 36 -98 36
-11 0 -4 -24 12 -42 15 -17 15 -18 -2 -18 -9 0 -53 16 -97 36 -85 38 -126 40
-93 4 14 -16 15 -20 4 -20 -17 0 -51 22 -100 66 -43 38 -78 51 -89 34 -5 -8
-22 -3 -57 19 -28 17 -56 31 -64 31 -18 1 -119 94 -197 182 -54 61 -60 72 -70
137 -19 112 -15 162 23 288 54 176 62 188 159 219 69 22 98 25 191 24 280 -4
306 -6 405 -39 51 -17 102 -31 111 -31 10 0 34 -10 54 -21 26 -16 39 -19 47
-11 22 22 -18 59 -94 87 -40 15 -102 41 -138 57 -75 35 -172 46 -259 30 -43
-8 -63 -7 -95 5 -52 18 -135 11 -248 -21 -46 -14 -85 -22 -88 -19 -10 9 49 51
97 68 26 10 68 27 93 37 43 18 44 20 26 34 -25 18 -42 18 -99 -2 -74 -25 -75
-12 -3 45 37 29 69 58 72 66 3 8 29 22 57 31 35 12 66 32 97 64 l45 47 65 -22
c36 -12 96 -37 134 -54z m-2156 -16 c61 -26 113 -87 111 -132 0 -10 -3 -13 -6
-6 -2 7 -33 36 -69 64 -57 45 -96 89 -79 89 3 0 22 -7 43 -15z m-54 -134 c20
-22 14 -43 -6 -23 -7 7 -20 12 -29 12 -22 0 -33 16 -25 36 7 18 31 8 60 -25z
m554 -12 c44 -23 77 -49 99 -78 32 -41 33 -45 17 -62 -10 -11 -54 -40 -98 -65
-174 -100 -202 -144 -240 -375 l-24 -146 -61 -59 c-39 -38 -76 -88 -104 -139
-23 -44 -48 -80 -56 -80 -20 0 -58 109 -77 218 -28 158 -7 367 55 557 29 88
62 140 116 185 110 90 250 106 373 44z m-531 -126 c7 -18 9 -34 5 -37 -5 -3
-29 9 -54 25 -43 28 -46 32 -36 55 11 24 12 24 41 6 17 -9 37 -32 44 -49z
m-47 -70 l30 -28 -31 -135 c-42 -185 -45 -262 -20 -454 17 -138 25 -169 56
-235 20 -42 47 -90 60 -107 13 -17 35 -56 48 -85 14 -31 47 -75 77 -104 29
-27 69 -73 90 -101 34 -45 55 -59 184 -125 l146 -74 26 -72 c20 -54 24 -79 18
-100 l-8 -28 -4 33 c-5 48 -33 39 -47 -15 -12 -48 -30 -72 -45 -57 -6 6 -4 28
5 63 10 37 11 60 4 73 -20 37 -42 14 -54 -57 -10 -52 -22 -67 -49 -59 -12 4
-22 7 -24 9 -1 1 9 28 24 59 17 37 24 66 20 81 -11 43 -34 28 -57 -35 -12 -34
-30 -65 -41 -71 -25 -13 -24 10 2 61 11 22 20 51 20 65 0 43 -32 27 -60 -30
-20 -39 -31 -51 -52 -53 -36 -4 -37 18 -3 73 14 22 25 48 25 58 0 31 -33 15
-56 -27 -27 -48 -47 -60 -74 -46 -27 15 -25 29 10 76 27 36 40 84 23 84 -4 0
-26 -18 -49 -41 -32 -31 -47 -39 -63 -34 -30 9 -27 19 21 71 31 34 38 48 30
56 -9 9 -23 4 -56 -20 -50 -36 -74 -40 -83 -15 -5 12 8 30 46 64 29 26 49 49
44 52 -4 3 -36 -6 -69 -20 -60 -25 -114 -26 -114 -4 0 5 28 29 62 53 64 45 86
78 51 78 -11 0 -37 -13 -59 -29 -55 -41 -89 -48 -103 -23 -16 30 -15 31 32 51
50 22 109 69 101 82 -9 15 -29 10 -75 -20 -65 -44 -92 -48 -112 -18 -19 29
-15 35 53 64 25 11 51 27 59 36 12 15 10 17 -15 17 -16 -1 -40 -7 -54 -15 -35
-20 -74 -18 -95 5 -25 27 -13 46 33 53 37 6 92 45 92 66 0 6 -21 4 -51 -5 -28
-8 -65 -14 -82 -12 -26 2 -32 7 -32 28 0 17 8 28 28 37 15 7 39 19 54 26 60
28 22 51 -43 26 -34 -12 -74 -4 -74 16 0 9 23 26 54 39 53 24 74 42 62 54 -4
3 -26 -1 -51 -10 -35 -14 -46 -14 -61 -4 -22 17 -12 43 21 56 34 13 32 36 -6
49 -43 15 -35 41 19 59 50 16 50 35 1 42 -26 4 -34 10 -34 25 0 15 10 22 43
29 51 12 55 40 7 43 -17 0 -36 2 -42 2 -16 1 -17 43 -1 59 7 7 26 12 44 12 17
0 46 3 63 6 46 10 21 34 -35 34 -39 0 -44 3 -44 23 0 12 9 41 20 65 18 41 22
43 50 37 16 -4 34 -3 40 0 17 11 -9 35 -36 35 -17 0 -24 6 -24 19 0 25 24 33
77 25 42 -6 61 7 28 20 -13 4 -14 10 -5 26 15 28 54 25 90 -7z m-1799 -33 c14
-8 19 -21 19 -53 0 -34 29 -107 42 -107 2 0 28 7 58 15 75 20 114 20 106 -1
-3 -9 -6 -32 -6 -52 l0 -37 -23 28 c-18 22 -33 28 -82 33 -76 8 -217 -18 -276
-50 -24 -13 -75 -34 -114 -46 -67 -22 -99 -41 -179 -104 -32 -25 -46 -29 -129
-34 -80 -4 -96 -9 -124 -31 -18 -14 -33 -34 -33 -44 0 -11 -5 -17 -12 -14 -8
2 -13 21 -13 45 0 34 -6 46 -28 64 -27 23 -27 25 -30 148 -3 154 8 183 67 188
48 4 56 -7 56 -76 0 -48 2 -53 28 -63 49 -20 166 -22 308 -5 77 9 157 16 178
14 58 -4 70 23 69 155 0 28 81 46 118 27z m129 -65 c0 -30 -3 -55 -6 -55 -17
0 -46 25 -55 47 -15 39 -3 63 32 63 29 0 29 -1 29 -55z m253 0 c254 -49 453
-168 582 -350 69 -97 81 -131 99 -264 24 -172 22 -235 -9 -342 -26 -89 -27
-145 -2 -136 6 2 20 31 30 65 26 92 41 80 32 -25 -12 -142 -38 -224 -110 -349
-46 -78 -70 -132 -79 -176 -15 -72 -28 -99 -93 -200 -26 -40 -75 -135 -109
-211 -35 -76 -76 -155 -91 -174 -15 -20 -40 -57 -54 -83 -14 -26 -39 -65 -56
-86 -17 -22 -38 -55 -48 -74 -10 -19 -36 -53 -58 -75 -21 -22 -80 -96 -129
-165 -50 -69 -110 -145 -133 -170 -23 -25 -47 -59 -53 -76 -5 -17 -32 -66 -59
-110 -27 -43 -66 -119 -87 -169 -21 -49 -47 -102 -57 -117 -11 -14 -19 -34
-19 -45 0 -10 -11 -65 -25 -123 -14 -58 -25 -128 -25 -156 0 -68 33 -174 64
-203 13 -13 27 -33 30 -46 10 -41 100 -110 201 -154 94 -42 145 -51 278 -53
45 -1 48 -12 6 -27 -77 -27 -262 -5 -352 40 -57 29 -215 191 -252 259 -27 51
-30 64 -33 176 -3 99 0 137 17 205 38 151 133 325 311 568 97 134 218 324 226
357 4 13 10 27 15 30 5 3 9 12 9 21 0 8 11 28 25 45 14 16 28 42 31 56 4 15
37 68 74 117 81 108 136 193 220 340 34 61 79 139 100 175 23 39 49 105 65
165 17 66 40 123 67 168 25 42 42 84 46 112 2 25 2 45 -2 45 -3 0 -29 -46 -57
-102 -92 -183 -180 -341 -246 -440 -63 -95 -176 -228 -194 -228 -15 0 -10 20
12 51 11 16 81 134 155 261 387 668 441 915 272 1241 -65 125 -139 203 -256
272 -140 81 -237 118 -309 119 -48 1 -62 4 -58 14 3 8 5 20 5 28 0 8 1 14 3
14 1 0 37 -7 80 -15z m-803 -25 c-14 -26 -50 -40 -104 -40 -23 0 -51 -7 -62
-15 -10 -8 -22 -15 -26 -15 -10 0 -41 60 -35 67 3 2 38 7 78 9 40 3 75 7 78 9
2 3 22 5 43 5 36 0 38 -1 28 -20z m-562 -2 c-8 -22 -78 -55 -132 -63 -28 -4
-152 -11 -276 -16 -124 -5 -242 -12 -262 -15 -34 -6 -38 -4 -38 15 0 29 29 41
102 41 97 0 509 33 601 49 5 0 7 -5 5 -11z m1162 -179 c26 -22 51 -53 55 -67
7 -30 21 -42 48 -42 11 0 50 -31 87 -69 76 -76 87 -105 76 -193 -8 -57 -30
-118 -44 -118 -5 0 -8 10 -8 22 1 19 -4 23 -34 23 -19 0 -45 4 -58 9 -15 5
-24 3 -27 -7 -7 -17 -159 128 -170 162 -5 16 1 33 19 60 29 41 34 71 12 71 -7
0 -19 7 -26 15 -11 13 -21 7 -74 -42 l-61 -57 -5 75 c-3 41 -10 82 -16 93 -11
18 -12 18 -31 -1 -12 -12 -27 -52 -38 -98 -20 -92 -39 -115 -95 -115 -32 0
-48 7 -77 34 l-36 33 42 44 43 44 -6 -32 c-5 -30 -3 -33 19 -33 33 0 62 41 75
108 18 94 20 95 91 108 35 6 92 12 127 13 60 1 66 -1 112 -40z m215 -26 c119
-31 315 -138 299 -164 -3 -6 8 -30 25 -54 19 -26 31 -56 31 -74 0 -27 -3 -31
-27 -31 -68 1 -167 66 -216 143 -25 38 -59 70 -127 117 -51 36 -95 71 -98 78
-4 14 3 13 113 -15z m-885 -166 c0 -22 -29 -55 -75 -87 -44 -30 -45 -32 -45
-85 0 -42 -4 -55 -15 -55 -10 0 -15 10 -15 28 0 15 -7 60 -17 100 -12 52 -14
75 -6 83 26 26 173 40 173 16z m3719 -29 c-1 -49 -13 -85 -23 -70 -13 21 -27
13 -43 -25 -14 -34 -14 -47 2 -141 9 -57 15 -105 13 -107 -2 -2 -49 -16 -104
-30 -151 -38 -209 -60 -274 -106 -60 -42 -90 -46 -90 -11 0 10 5 23 12 30 18
18 2 25 -31 14 -24 -9 -32 -7 -46 8 -13 15 -22 17 -42 9 -13 -5 -40 -9 -59 -9
-39 0 -224 58 -224 70 0 5 -18 32 -40 61 -22 30 -40 58 -40 64 1 16 167 105
197 105 28 -1 28 -1 -16 -39 -41 -37 -43 -39 -23 -50 16 -9 26 -5 57 19 38 31
70 40 63 18 -4 -12 -15 -19 -63 -40 -16 -7 -30 -20 -30 -28 0 -23 36 -23 89 0
55 23 56 23 56 11 0 -5 -16 -15 -35 -21 -19 -6 -35 -18 -35 -26 0 -27 32 -27
85 -1 59 30 95 36 76 13 -7 -8 -25 -18 -41 -21 -38 -8 -59 -33 -39 -46 21 -13
28 -12 97 21 35 17 79 30 98 30 41 0 37 -16 -5 -25 -40 -9 -58 -30 -35 -43 12
-7 34 -4 72 9 30 11 72 19 93 19 74 0 137 20 164 52 14 16 25 38 25 49 0 10 5
19 11 19 12 0 8 -48 -7 -97 -8 -28 6 -30 34 -5 18 15 19 24 12 77 -5 33 -9 99
-9 147 -1 83 0 87 27 107 15 11 37 21 50 21 18 0 22 -5 21 -32z m-3159 3 c0
-13 -29 -41 -42 -41 -7 0 -1 11 12 25 26 27 30 30 30 16z m-457 -69 c25 -22
21 -40 -17 -78 -52 -52 -116 -44 -116 14 0 36 18 62 53 77 33 14 52 11 80 -13z
m2890 -18 c10 -11 -4 -33 -18 -28 -8 3 -11 12 -8 20 5 15 16 18 26 8z m537
-23 c0 -11 -4 -23 -10 -26 -6 -4 -10 5 -10 19 0 14 5 26 10 26 6 0 10 -9 10
-19z m-3188 -46 l28 -33 -56 -22 c-66 -27 -109 -61 -131 -103 -13 -26 -17 -28
-25 -14 -5 10 -20 28 -34 42 -21 22 -23 28 -13 47 7 13 19 29 28 36 22 18 153
82 166 81 5 0 22 -15 37 -34z m874 -65 c3 -14 24 -79 46 -145 28 -84 42 -144
46 -199 l5 -79 -54 63 c-83 97 -106 90 -48 -16 16 -31 28 -58 26 -61 -3 -2
-19 10 -36 28 -38 37 -49 33 -26 -10 22 -44 0 -40 -40 7 -46 52 -56 31 -18
-39 38 -69 22 -83 -24 -22 -59 77 -92 109 -93 90 0 -11 9 -30 20 -44 42 -54
17 -45 -40 14 -34 35 -75 67 -96 73 l-35 12 41 44 c22 24 40 53 40 63 0 27 59
109 83 117 18 6 19 13 14 98 l-5 92 94 -30 c81 -27 95 -35 100 -56z m-639 53
c2 -6 -1 -14 -7 -18 -15 -9 -50 4 -50 19 0 15 52 15 57 -1z m3243 -28 c0 -8
-4 -15 -10 -15 -5 0 -10 7 -10 15 0 8 5 15 10 15 6 0 10 -7 10 -15z m-3412
-43 c14 -21 12 -25 -37 -69 -35 -31 -51 -54 -51 -71 0 -25 -35 -82 -50 -82 -5
0 -6 16 -3 35 5 29 1 41 -17 60 -34 36 -16 67 60 105 33 17 60 35 60 41 0 16
22 5 38 -19z m159 -18 c20 -15 42 -24 53 -21 15 4 27 -10 58 -72 40 -76 94
-202 89 -207 -1 -1 -27 2 -57 8 -75 14 -141 6 -179 -21 -17 -12 -31 -19 -31
-14 0 4 21 49 47 100 45 87 47 93 33 120 -8 15 -34 47 -57 71 -24 23 -43 47
-43 52 0 20 54 9 87 -16z m-137 -69 c-13 -14 -26 -23 -28 -20 -7 7 29 45 41
45 6 0 0 -11 -13 -25z m5170 4 c0 -6 -4 -7 -10 -4 -5 3 -10 11 -10 16 0 6 5 7
10 4 6 -3 10 -11 10 -16z m-3952 -25 c-10 -10 -28 6 -28 24 0 15 1 15 17 -1 9
-9 14 -19 11 -23z m-1139 -20 c12 -28 7 -44 -15 -44 -8 0 -14 -6 -14 -12 0 -7
-13 -29 -28 -50 -22 -29 -31 -34 -45 -27 -34 20 -19 79 35 136 34 35 50 34 67
-3z m328 -14 c-3 -11 -1 -23 4 -26 21 -13 8 -34 -21 -34 -35 0 -40 21 -14 58
19 27 38 29 31 2z m2836 -92 c-3 -38 1 -71 16 -117 12 -35 21 -75 21 -90 1
-14 8 -44 16 -66 8 -22 17 -64 19 -93 3 -31 22 -94 46 -150 24 -57 44 -125 50
-165 5 -40 18 -85 33 -110 15 -25 28 -67 32 -102 4 -33 15 -82 25 -108 35 -90
39 -124 18 -151 -11 -14 -27 -27 -37 -30 -17 -6 -62 -113 -62 -149 0 -18 45
-41 61 -31 5 3 9 -1 9 -9 0 -8 9 -22 20 -32 31 -28 25 -45 -17 -45 -21 -1 -57
-5 -80 -9 -39 -8 -44 -6 -76 28 -43 45 -59 76 -103 204 -20 56 -43 115 -51
131 -8 15 -12 38 -9 50 3 12 -4 42 -19 71 -13 28 -33 75 -45 105 -11 30 -46
92 -76 137 -66 98 -80 140 -64 189 10 29 9 44 -3 77 -9 23 -18 85 -21 137 -3
52 -8 143 -12 201 l-7 107 79 30 c44 16 86 32 94 35 8 3 45 6 82 6 l67 1 -6
-52z m-570 -28 c7 -29 -60 -83 -131 -105 -23 -7 -23 -6 -8 23 15 30 101 101
122 102 7 0 14 -9 17 -20z m1626 -66 c46 -10 38 -24 -14 -24 -33 0 -45 4 -45
15 0 16 12 18 59 9z m-1489 -11 c0 -5 -7 -17 -15 -27 -15 -20 -20 -10 -9 18 6
16 24 22 24 9z m-1552 -211 c2 -13 -4 -25 -17 -32 -19 -10 -21 -8 -21 18 0 46
32 58 38 14z m186 -52 c15 -28 29 -72 32 -102 l5 -53 -20 24 c-12 13 -21 29
-21 37 0 7 -13 47 -30 89 -16 42 -30 78 -30 82 0 15 40 -32 64 -77z m1190 -17
c56 -84 64 -115 41 -149 l-17 -26 -32 79 c-17 43 -41 92 -52 108 -37 53 -37
55 -10 55 21 0 35 -13 70 -67z m166 -88 c12 -14 6 -35 -10 -35 -14 0 -41 31
-35 41 9 14 31 11 45 -6z m-2046 -17 c-3 -13 -10 -30 -15 -38 -6 -13 -9 -12
-15 4 -5 12 -3 21 4 24 7 2 12 10 12 18 0 8 5 14 11 14 6 0 8 -9 3 -22z m3256
-20 c0 -17 -1 -18 -25 -2 -14 9 -25 22 -25 30 0 11 5 11 25 2 14 -6 25 -20 25
-30z m368 -32 c3 -13 -1 -17 -14 -14 -11 2 -20 11 -22 22 -3 13 1 17 14 14 11
-2 20 -11 22 -22z m-3818 -1 c0 -8 -4 -15 -10 -15 -5 0 -10 7 -10 15 0 8 5 15
10 15 6 0 10 -7 10 -15z m2260 -60 c0 -15 -43 -12 -48 3 -3 10 4 13 22 10 15
-2 26 -7 26 -13z m2406 -56 c3 -6 1 -16 -4 -21 -13 -13 -45 8 -36 23 7 12 31
11 40 -2z m-2416 -39 c17 -10 14 -15 -17 -24 -19 -6 -23 -3 -23 13 0 22 16 27
40 11z m813 -17 c19 -9 27 -21 27 -39 0 -33 -17 -64 -34 -64 -21 0 -76 68 -76
94 0 40 18 42 83 9z m-788 -73 c3 -5 -1 -10 -9 -10 -8 0 -18 5 -21 10 -3 6 1
10 9 10 8 0 18 -4 21 -10z m-1677 -95 c13 -13 -24 -24 -65 -18 -39 5 -43 4
-43 -16 0 -11 23 -46 50 -76 50 -55 68 -105 33 -90 -60 25 -88 9 -34 -20 44
-22 50 -65 9 -65 -27 0 -17 -23 12 -30 17 -4 26 -15 31 -38 3 -17 11 -38 17
-44 5 -7 13 -23 16 -35 6 -18 3 -22 -20 -25 l-26 -3 31 -39 c35 -43 35 -59 3
-64 -15 -2 -25 6 -37 28 -18 35 -27 33 -31 -6 -2 -20 4 -29 28 -42 41 -23 68
-49 68 -67 0 -23 -25 -18 -59 11 -17 14 -35 23 -41 19 -5 -3 -10 -26 -10 -50
0 -43 2 -46 55 -81 53 -36 65 -57 25 -47 -29 8 -25 -6 5 -17 31 -12 32 -34 3
-47 -22 -10 -20 -12 25 -33 50 -24 54 -29 35 -48 -17 -17 -20 -16 -87 33 l-61
45 0 -27 c0 -19 18 -43 70 -93 61 -58 70 -71 70 -103 0 -26 7 -41 26 -56 17
-13 24 -26 20 -36 -3 -9 1 -30 10 -46 8 -17 21 -66 29 -109 8 -43 20 -91 28
-107 8 -15 18 -46 22 -68 4 -22 9 -43 12 -48 2 -4 36 21 74 57 38 36 79 72 92
81 l24 15 -48 143 c-61 181 -120 410 -224 862 -48 212 -79 364 -73 370 4 5 32
9 62 9 57 -1 98 -18 239 -97 54 -31 99 -48 150 -56 43 -8 87 -23 109 -38 43
-29 153 -47 246 -40 49 4 87 16 175 58 61 30 131 69 155 87 24 18 45 32 47 30
20 -23 54 -121 90 -258 63 -241 102 -308 195 -329 25 -6 71 -19 102 -31 32
-11 66 -20 77 -20 49 0 141 -93 117 -117 -3 -4 -57 -10 -119 -14 -74 -5 -139
-16 -192 -33 -44 -14 -111 -32 -149 -41 -146 -34 -343 -115 -456 -186 -30 -20
-97 -57 -148 -84 -104 -55 -219 -139 -380 -278 -59 -51 -150 -127 -203 -169
-96 -76 -150 -126 -180 -164 -11 -14 -45 -27 -120 -43 -57 -12 -126 -30 -153
-38 -68 -22 -160 -13 -234 22 -42 20 -85 56 -162 136 -103 106 -106 110 -143
211 -44 118 -57 193 -57 331 0 117 9 141 84 221 30 33 68 87 85 120 16 34 68
107 114 163 47 56 101 129 121 161 20 33 43 62 51 66 8 3 32 40 54 84 22 43
46 84 55 91 9 7 20 30 26 50 5 20 33 77 61 126 29 50 58 105 66 122 l13 33 66
-24 c36 -13 68 -27 72 -31z m1729 -2 c26 -15 41 -29 35 -31 -20 -6 -89 18
-107 38 -18 19 -17 20 4 20 12 0 43 -12 68 -27z m767 -60 c4 -9 2 -21 -4 -27
-7 -7 -10 -7 -10 1 0 6 -3 18 -6 27 -3 9 -2 16 4 16 5 0 13 -8 16 -17z m1766
-52 c0 -11 -55 -31 -86 -31 -38 0 -28 15 19 27 58 14 67 14 67 4z m-2420 -87
c0 -9 -5 -14 -12 -12 -18 6 -21 28 -4 28 9 0 16 -7 16 -16z m658 -101 c5 -17
-26 -29 -40 -15 -6 6 -7 15 -3 22 9 14 37 9 43 -7z m-78 -21 c0 -17 -26 -41
-52 -48 -32 -7 -35 2 -12 34 14 21 64 32 64 14z m333 -4 c110 -10 126 -14 111
-25 -25 -18 -75 -16 -184 8 -151 32 -134 36 73 17z m354 -95 c8 -21 42 -85 75
-141 33 -57 57 -106 55 -109 -3 -2 -23 12 -46 32 -54 49 -84 29 -45 -30 24
-36 4 -31 -57 15 -55 41 -69 47 -69 30 0 -23 35 -62 95 -104 52 -38 95 -82 95
-100 0 -16 -51 16 -110 69 -68 61 -130 96 -130 74 0 -6 23 -35 51 -65 55 -58
51 -70 -9 -29 -34 24 -62 32 -62 19 0 -3 12 -21 26 -40 15 -19 24 -34 20 -34
-3 0 -33 18 -66 41 -33 22 -64 39 -70 37 -6 -2 1 -20 16 -41 30 -45 26 -57
-11 -33 -33 22 -55 15 -48 -15 5 -19 3 -21 -27 -14 -32 7 -32 7 -25 -25 7 -31
6 -31 -17 -20 -12 7 -38 23 -55 37 -26 19 -37 22 -52 13 -43 -23 -36 -62 33
-174 40 -66 44 -81 20 -72 -18 7 -32 -3 -156 -112 -83 -71 -105 -102 -75 -102
18 0 57 29 57 43 1 7 20 25 43 40 23 16 57 39 76 53 40 28 51 30 51 7 0 -9
-20 -36 -45 -60 -25 -23 -45 -47 -45 -52 0 -5 -16 -29 -36 -53 -36 -42 -36
-43 -14 -46 16 -3 35 9 66 39 l43 42 50 -22 c27 -11 57 -21 66 -21 26 0 12
-22 -43 -67 -69 -56 -117 -70 -190 -55 -48 10 -64 19 -97 56 -22 24 -59 57
-82 72 -24 14 -43 31 -43 36 0 5 -28 6 -62 3 l-63 -6 -20 42 c-24 52 -37 57
-65 29 -22 -22 -24 -59 -6 -115 5 -16 -4 -26 -45 -53 -49 -30 -53 -31 -75 -17
-29 19 -29 20 1 70 14 22 25 47 25 55 0 24 82 112 168 181 77 62 93 79 73 79
-6 0 -11 7 -11 15 0 8 5 15 11 15 24 0 -4 20 -29 21 -25 0 -26 1 -8 12 64 40
68 80 6 59 -36 -13 -46 0 -37 46 13 66 25 82 60 82 19 0 77 6 129 14 66 10
108 12 136 5 37 -8 47 -6 94 22 70 41 140 93 278 209 149 124 182 150 198 150
7 0 20 -17 29 -37z m1373 -195 c98 -205 106 -227 115 -344 13 -168 37 -231
134 -338 39 -43 59 -79 101 -187 47 -117 54 -145 58 -221 6 -126 -13 -242 -49
-299 -16 -25 -29 -52 -29 -61 0 -8 -16 -32 -35 -54 -22 -24 -49 -75 -71 -134
-20 -52 -47 -118 -60 -147 -24 -51 -83 -113 -107 -113 -25 0 -157 110 -287
240 -74 74 -218 221 -320 327 -102 105 -213 212 -247 239 -35 26 -63 51 -63
55 0 4 26 15 57 24 47 14 64 15 97 5 24 -7 61 -9 98 -5 43 5 76 2 124 -11 64
-17 65 -17 86 4 27 27 17 52 -20 52 -39 0 -129 32 -204 72 -124 66 -237 200
-273 325 -16 54 -21 58 -64 46 -23 -6 -23 -9 -18 -70 4 -34 3 -63 0 -63 -4 0
-17 10 -29 21 -25 23 -54 20 -54 -6 0 -9 12 -38 26 -66 25 -51 23 -52 -28 -17
-27 19 -83 25 -92 9 -3 -4 1 -17 9 -27 17 -22 19 -44 5 -44 -5 0 -27 16 -49
35 -21 19 -58 41 -82 49 -60 18 -160 83 -153 100 12 32 91 59 301 102 120 24
235 44 255 44 36 0 38 -1 38 -33 0 -55 29 -124 66 -157 19 -16 41 -30 49 -30
8 0 15 -6 15 -14 0 -19 26 -38 45 -34 12 2 1 24 -44 90 -56 82 -87 162 -71
181 3 4 73 21 154 38 151 30 186 43 244 87 18 14 34 23 35 21 2 -2 9 -23 15
-46 10 -32 28 -56 76 -98 53 -47 64 -63 69 -95 6 -46 41 -100 66 -100 9 0 26
6 36 14 19 13 18 17 -14 132 -43 155 -82 247 -131 312 l-41 53 35 35 c41 41
53 42 68 9 6 -14 23 -28 36 -32 49 -12 78 60 50 122 -9 21 -17 25 -35 21 -79
-20 -72 -23 -62 25 12 53 55 129 73 129 7 0 50 -78 96 -172z m-6796 131 c43
-33 30 -41 -24 -14 -27 14 -50 28 -50 30 0 13 51 2 74 -16z m-950 -109 c35 0
66 -17 66 -35 0 -22 -95 -19 -147 5 -45 20 -47 26 -37 79 l7 32 41 -40 c29
-28 51 -41 70 -41z m794 58 c-2 -13 -7 -23 -13 -23 -5 0 -11 10 -13 23 -2 15
2 22 13 22 11 0 15 -7 13 -22z m-28 -82 c0 -17 -14 -29 -23 -20 -8 8 3 34 14
34 5 0 9 -6 9 -14z m600 -47 c31 -20 46 -37 43 -45 -7 -18 -3 -19 -67 13 -47
23 -53 29 -45 45 13 23 13 23 69 -13z m-620 -49 c0 -25 -4 -30 -23 -30 -20 0
-23 4 -19 30 3 21 10 30 23 30 14 0 19 -7 19 -30z m550 9 c0 -5 -7 -9 -15 -9
-15 0 -20 12 -9 23 8 8 24 -1 24 -14z m5320 -44 c13 -14 19 -25 14 -25 -14 0
-54 30 -54 41 0 16 16 10 40 -16z m-5245 -5 c3 -5 -1 -10 -10 -10 -9 0 -13 5
-10 10 3 6 8 10 10 10 2 0 7 -4 10 -10z m-675 -31 c0 -24 -23 -21 -28 4 -2 10
3 17 12 17 10 0 16 -9 16 -21z m6804 -136 c19 -56 13 -68 -11 -23 -10 19 -33
49 -50 67 -21 22 -33 43 -33 61 1 27 1 27 40 -16 21 -23 45 -64 54 -89z
m-5779 -52 c-7 -6 -65 50 -65 63 0 5 16 -5 35 -24 19 -18 32 -36 30 -39z
m-575 20 c0 -13 -26 -32 -33 -24 -8 7 11 33 24 33 5 0 9 -4 9 -9z m3898 -58
c-5 -26 -47 -43 -108 -43 -77 0 -327 -86 -494 -169 -186 -94 -791 -471 -841
-525 -54 -58 -199 -127 -337 -160 -59 -14 -131 -35 -160 -47 -40 -15 -84 -22
-178 -26 -110 -5 -132 -3 -188 16 -35 12 -93 41 -130 65 -37 23 -86 55 -109
69 -34 21 -52 46 -101 139 -33 62 -66 133 -72 158 -14 53 -15 195 -2 231 11
28 10 30 31 -131 14 -107 55 -197 150 -324 65 -88 75 -97 143 -130 117 -55
212 -79 282 -71 180 20 423 108 611 221 152 91 473 318 515 364 24 26 77 59
165 103 72 35 141 68 155 72 14 4 34 15 45 25 33 29 296 129 406 155 57 13
130 24 162 24 50 1 58 -1 55 -16z m-5330 -8 c-3 -12 -29 -8 -43 7 -7 6 -1 8
18 6 15 -2 26 -7 25 -13z m115 -62 c-7 -2 -19 -2 -25 0 -7 3 -2 5 12 5 14 0
19 -2 13 -5z m5261 -78 c-1 -16 -5 -45 -9 -62 -6 -28 -5 -33 11 -33 11 0 26
-5 34 -10 12 -8 9 -15 -18 -43 -49 -51 -42 -88 30 -163 l39 -41 -278 -6 c-153
-4 -401 -12 -551 -18 -151 -6 -276 -9 -278 -6 -21 21 540 314 701 365 130 42
176 51 255 49 l65 -2 -1 -30z m-5231 1 c3 -12 -30 -32 -39 -24 -11 12 5 40 21
36 9 -2 17 -7 18 -12z m575 -17 c-2 -6 -8 -10 -13 -10 -5 0 -11 4 -13 10 -2 6
4 11 13 11 9 0 15 -5 13 -11z m-1078 -59 c0 -5 -11 -10 -24 -10 -14 0 -28 5
-31 10 -4 6 7 10 24 10 17 0 31 -4 31 -10z m160 0 c0 -5 -9 -10 -20 -10 -11 0
-20 5 -20 10 0 6 9 10 20 10 11 0 20 -4 20 -10z m860 0 c0 -5 -4 -10 -9 -10
-6 0 -13 5 -16 10 -3 6 1 10 9 10 9 0 16 -4 16 -10z m5686 -31 c45 -27 43 -39
-5 -28 -57 13 -91 27 -91 39 0 18 61 11 96 -11z m201 -61 c13 -12 23 -26 23
-32 0 -6 37 -36 83 -66 53 -35 136 -108 237 -209 227 -227 306 -325 597 -747
45 -66 112 -153 147 -194 36 -41 97 -116 136 -167 38 -50 103 -121 142 -158
148 -137 433 -355 464 -355 6 0 14 -6 17 -14 3 -8 27 -27 54 -42 26 -15 89
-51 138 -80 50 -29 102 -56 118 -60 15 -3 30 -10 33 -15 10 -17 -28 -9 -69 15
-23 14 -77 32 -120 40 -58 12 -95 27 -145 60 -37 24 -107 69 -157 101 -124 79
-210 152 -347 291 -123 126 -328 356 -378 426 -17 23 -43 49 -60 59 -16 10
-36 31 -44 46 -8 15 -47 71 -86 122 -39 52 -82 115 -95 140 -56 111 -493 588
-570 623 -29 13 -160 137 -174 165 -14 28 -4 73 17 73 9 0 26 -10 39 -22z
m-5527 -83 c0 -8 -4 -15 -9 -15 -13 0 -22 16 -14 24 11 11 23 6 23 -9z m1466
-63 c1 -93 44 -204 118 -302 88 -119 143 -165 252 -216 51 -24 99 -44 105 -44
6 0 40 -12 75 -26 36 -14 86 -29 112 -33 l47 -7 -44 -23 c-49 -25 -156 -51
-216 -51 -34 0 -45 6 -72 39 -18 22 -42 55 -53 74 -11 18 -31 39 -44 45 -13 6
-40 25 -60 43 -38 33 -60 35 -31 2 103 -117 144 -185 125 -206 -18 -20 -48 8
-104 94 -64 98 -135 182 -136 161 0 -18 16 -46 56 -99 21 -27 34 -56 34 -73 0
-17 9 -38 22 -50 12 -11 16 -20 10 -20 -13 0 -60 63 -154 205 -29 43 -59 81
-65 83 -24 7 13 -85 66 -164 28 -43 49 -79 47 -81 -8 -9 -104 109 -135 166
-77 145 -79 256 -7 443 13 34 27 71 30 81 11 34 21 16 22 -41z m3039 -2 c-3
-5 -10 -10 -16 -10 -5 0 -9 5 -9 10 0 6 7 10 16 10 8 0 12 -4 9 -10z m-5967
-98 c-3 -60 -12 -94 -35 -143 -29 -61 -81 -134 -90 -126 -2 3 19 50 48 105 36
72 54 121 62 172 6 38 13 70 15 70 3 0 3 -35 0 -78z m6082 53 c7 -9 10 -18 7
-21 -10 -10 -47 7 -47 22 0 19 24 18 40 -1z m72 -67 c-7 -7 -12 -8 -12 -2 0
14 12 26 19 19 2 -3 -1 -11 -7 -17z m927 -74 c28 -36 20 -41 -23 -14 -22 13
-36 30 -36 41 0 16 3 18 19 9 11 -5 29 -22 40 -36z m-7029 -34 c0 -5 -4 -10
-10 -10 -5 0 -10 5 -10 10 0 6 5 10 10 10 6 0 10 -4 10 -10z m1060 -25 c0 -9
-6 -12 -15 -9 -8 4 -15 10 -15 15 0 5 7 9 15 9 8 0 15 -7 15 -15z m4949 -1 c3
-2 7 -54 9 -115 4 -84 1 -125 -12 -172 -17 -62 -41 -106 -52 -95 -3 3 -20 56
-39 117 -50 168 -80 217 -105 171 -10 -18 -7 -35 13 -94 14 -39 30 -96 37
-126 7 -30 19 -67 26 -82 13 -25 12 -31 -16 -70 -41 -59 -57 -125 -75 -312 -9
-88 -18 -163 -21 -168 -3 -5 -7 -71 -8 -146 -1 -77 -6 -145 -12 -156 -10 -17
-13 -13 -27 30 -9 27 -36 130 -60 229 -43 177 -112 414 -206 713 -27 83 -48
153 -47 153 0 1 78 5 173 8 141 5 175 9 189 23 27 27 -14 42 -95 33 -95 -11
-231 -14 -621 -18 -277 -2 -350 -5 -370 -17 -25 -14 -24 -14 30 -24 36 -6 107
-5 205 3 175 13 344 14 363 2 11 -7 12 -29 3 -122 -6 -63 -13 -159 -16 -214
-11 -185 -25 -390 -31 -422 l-5 -33 -148 0 -148 0 -212 419 c-116 231 -211
422 -211 425 0 3 22 6 48 6 26 0 117 12 202 26 124 21 181 25 285 23 167 -4
414 0 585 11 125 8 359 4 369 -6z m-6179 -9 c0 -8 -4 -15 -10 -15 -5 0 -10 7
-10 15 0 8 5 15 10 15 6 0 10 -7 10 -15z m685 5 c-3 -5 -13 -10 -21 -10 -8 0
-14 5 -14 10 0 6 9 10 21 10 11 0 17 -4 14 -10z m-65 -5 c0 -2 -9 -9 -19 -14
-14 -8 -22 -7 -31 4 -11 13 -8 15 19 15 17 0 31 -2 31 -5z m538 -27 c-3 -7
-15 -15 -28 -16 -21 -3 -22 -2 -11 12 16 19 44 21 39 4z m5806 -80 c30 -50 22
-58 -27 -26 -39 25 -44 37 -25 56 19 19 25 15 52 -30z m399 12 c41 -26 167
-176 167 -200 0 -4 -24 -11 -52 -15 -29 -3 -62 -9 -73 -11 -14 -4 -10 3 15 25
19 16 31 33 27 38 -5 4 -43 10 -85 13 -48 3 -77 10 -80 18 -2 8 8 12 32 12 34
0 36 2 36 34 0 26 -8 42 -35 67 -19 19 -35 37 -35 41 0 17 38 7 83 -22z m-322
-165 c37 -27 75 -55 85 -61 11 -7 16 -14 13 -18 -19 -20 -259 152 -259 186 0
10 62 -31 161 -107z m-2659 33 c2 -29 3 -55 1 -57 -5 -8 -34 23 -49 52 -19 36
-12 57 20 57 22 0 24 -5 28 -52z m-41 -65 c67 -93 102 -160 95 -179 -8 -20
-23 -17 -44 7 -9 12 -27 33 -39 47 -13 14 -23 28 -23 33 0 4 -23 38 -51 75
-49 63 -51 68 -34 81 11 7 24 13 30 13 5 0 35 -35 66 -77z m1229 32 c0 -8 -4
-15 -9 -15 -13 0 -22 16 -14 24 11 11 23 6 23 -9z m-1341 -31 c12 -15 21 -35
21 -44 0 -10 21 -46 46 -80 52 -72 84 -121 84 -133 0 -5 -12 -7 -27 -5 -22 2
-30 11 -39 36 -6 19 -31 57 -55 85 -76 88 -99 127 -86 148 16 26 32 24 56 -7z
m-64 -80 c8 -20 37 -67 65 -103 58 -80 77 -121 54 -121 -22 0 -59 41 -89 99
-14 28 -41 69 -60 90 -37 41 -43 56 -22 64 27 11 37 5 52 -29z m-58 -73 c46
-63 106 -171 99 -178 -10 -11 -48 21 -73 60 -14 23 -41 60 -60 81 -31 37 -42
74 -26 89 12 12 17 7 60 -52z m-4053 8 c-13 -22 -87 -48 -106 -38 -30 16 -20
25 40 36 31 6 61 11 65 12 5 0 5 -4 1 -10z m4041 -154 c18 -27 36 -61 40 -73
6 -22 5 -23 -15 -12 -11 6 -33 29 -48 51 -15 22 -42 60 -59 85 -18 24 -33 52
-33 61 0 23 70 -45 115 -112z m-135 55 c0 -5 21 -39 46 -77 50 -71 80 -133 66
-133 -12 0 -43 36 -101 118 -49 69 -58 91 -45 105 8 7 34 -3 34 -13z m470 -70
c0 -5 -4 -10 -10 -10 -5 0 -10 5 -10 10 0 6 5 10 10 10 6 0 10 -4 10 -10z
m1125 -41 c5 -22 3 -36 -8 -47 -14 -14 -16 -13 -23 11 -7 32 3 80 16 72 4 -3
12 -19 15 -36z m-1625 -22 c0 -6 -11 0 -25 13 -13 12 -22 27 -18 33 7 11 43
-28 43 -46z m406 22 c10 -17 -13 -36 -27 -22 -12 12 -4 33 11 33 5 0 12 -5 16
-11z m-3596 -44 c0 -8 -4 -15 -10 -15 -5 0 -10 7 -10 15 0 8 5 15 10 15 6 0
10 -7 10 -15z m7708 -103 c107 -95 139 -119 287 -212 72 -45 141 -93 155 -107
22 -23 17 -22 -45 12 -145 78 -299 186 -422 294 -54 47 -78 81 -57 81 3 0 40
-31 82 -68z m-20 -175 c80 -68 88 -79 76 -111 -9 -23 -19 -20 -65 21 -38 34
-169 197 -169 209 0 8 56 -34 158 -119z m-2678 75 c0 -21 -2 -24 -10 -12 -13
20 -13 53 0 45 6 -3 10 -18 10 -33z m-5210 18 c0 -5 -4 -10 -10 -10 -5 0 -10
5 -10 10 0 6 5 10 10 10 6 0 10 -4 10 -10z m-295 -30 c3 -5 2 -10 -4 -10 -5 0
-13 5 -16 10 -3 6 -2 10 4 10 5 0 13 -4 16 -10z m240 0 c9 -15 -14 -40 -36
-40 -24 0 -25 26 -1 39 22 13 29 13 37 1z m4980 -40 c-3 -5 -13 -10 -21 -10
-8 0 -14 5 -14 10 0 6 9 10 21 10 11 0 17 -4 14 -10z m-5120 -20 c-3 -5 -11
-10 -16 -10 -6 0 -7 5 -4 10 3 6 11 10 16 10 6 0 7 -4 4 -10z m-335 -141 c17
-32 40 -64 51 -69 14 -8 19 -21 19 -51 l0 -40 -29 22 c-16 12 -31 34 -35 49
-3 15 -19 49 -36 76 -16 26 -30 56 -30 66 0 32 27 8 60 -53z m9050 -94 c23
-13 23 -14 4 -15 -11 0 -29 7 -40 15 -26 19 1 20 36 0z m-3821 -324 c10 -6 10
-13 2 -29 -7 -14 -41 -30 -103 -50 -51 -17 -176 -63 -278 -102 -102 -40 -210
-76 -240 -80 -30 -4 -83 -15 -116 -24 -67 -17 -144 -22 -129 -7 6 5 107 39
225 75 118 37 253 83 300 102 47 20 103 39 126 43 22 4 58 18 79 32 39 24 91
47 110 48 6 0 16 -3 24 -8z m-926 -318 c-7 -2 -19 -2 -25 0 -7 3 -2 5 12 5 14
0 19 -2 13 -5z m-188 -53 c-3 -5 -15 -10 -26 -10 -10 0 -19 5 -19 10 0 6 12
10 26 10 14 0 23 -4 19 -10z m-105 -20 c0 -5 -8 -10 -17 -10 -10 0 -29 -3 -43
-7 -22 -6 -24 -5 -11 10 14 18 71 24 71 7z"/>
<path d="M8610 6165 c0 -36 3 -65 6 -65 3 0 14 10 25 23 l18 22 1 -22 c0 -12
-5 -34 -10 -48 -9 -23 -8 -26 6 -21 8 3 18 6 20 6 11 0 23 53 17 80 -6 32 -53
90 -72 90 -7 0 -11 -24 -11 -65z"/>
<path d="M8552 6193 c-17 -31 -25 -90 -13 -97 15 -10 52 54 49 83 -4 31 -23
38 -36 14z"/>
<path d="M8235 5720 c3 -5 13 -10 21 -10 8 0 14 5 14 10 0 6 -9 10 -21 10 -11
0 -17 -4 -14 -10z"/>
<path d="M7725 5170 c-3 -5 -3 -10 2 -10 4 0 1 -5 -7 -11 -11 -8 -8 -9 15 -4
38 8 43 14 25 25 -19 12 -27 12 -35 0z"/>
<path d="M9137 4652 c-13 -14 -14 -21 -5 -30 7 -7 18 -12 25 -12 22 0 70 28
76 45 10 23 -75 21 -96 -3z"/>
<path d="M9272 4193 c2 -12 12 -18 28 -18 36 0 33 29 -3 33 -23 3 -28 0 -25
-15z"/>
<path d="M9322 4048 c-18 -18 -14 -38 6 -38 21 0 56 33 45 43 -10 11 -38 8
-51 -5z"/>
<path d="M9321 3903 c-37 -5 -60 -26 -61 -55 0 -22 26 -24 34 -3 3 10 19 15
44 15 25 0 45 7 55 18 30 33 21 36 -72 25z"/>
<path d="M7130 3034 c0 -9 7 -14 17 -12 25 5 28 28 4 28 -12 0 -21 -6 -21 -16z"/>
<path d="M9735 2789 c-44 -22 -84 -48 -90 -58 -5 -9 -22 -33 -37 -53 -33 -42
-37 -78 -9 -78 11 0 29 12 40 26 11 14 51 48 88 76 98 72 136 110 120 120 -19
12 -28 10 -112 -33z"/>
<path d="M9902 2493 c-15 -6 -6 -23 14 -23 8 0 14 7 14 15 0 15 -6 17 -28 8z"/>
<path d="M6215 2060 c-8 -12 20 -24 35 -15 6 3 8 11 5 16 -8 12 -32 12 -40 -1z"/>
<path d="M6290 1935 c0 -9 9 -15 21 -15 18 0 19 2 9 15 -7 8 -16 15 -21 15 -5
0 -9 -7 -9 -15z"/>
<path d="M9181 2066 c-26 -41 -26 -56 -3 -56 9 0 25 14 35 31 21 37 21 45 3
52 -10 4 -23 -6 -35 -27z"/>
<path d="M8840 1982 c0 -25 37 -127 71 -194 22 -43 46 -104 54 -135 8 -31 19
-61 25 -67 14 -14 13 39 -3 99 -20 78 -120 305 -134 305 -7 0 -13 -4 -13 -8z"/>
<path d="M8963 1936 c-24 -21 -26 -27 -15 -43 7 -10 15 -26 18 -35 4 -10 16
-18 29 -18 30 0 42 -17 56 -79 6 -29 22 -64 35 -79 l23 -27 1 32 c0 17 -13 60
-30 95 -16 34 -30 75 -30 91 0 22 -4 27 -25 27 -29 0 -32 16 -8 42 15 17 15
18 -5 18 -11 0 -34 -11 -49 -24z"/>
<path d="M8102 1933 c3 -16 14 -18 83 -15 88 3 105 6 105 22 0 6 -37 10 -96
10 -86 0 -95 -2 -92 -17z"/>
<path d="M8014 1839 c-11 -18 9 -27 49 -22 31 4 35 8 26 19 -14 17 -65 19 -75
3z"/>
<path d="M8237 1833 c-24 -3 -37 -9 -34 -16 5 -16 229 -22 280 -7 69 20 40 30
-85 28 -68 -1 -140 -3 -161 -5z"/>
<path d="M8871 1716 c-27 -29 -22 -42 20 -51 40 -9 43 -4 29 39 -14 43 -19 44
-49 12z"/>
<path d="M8083 1678 c-47 -23 -12 -39 41 -19 18 7 28 6 36 -5 17 -19 218 -20
245 0 16 11 3 14 -101 20 -65 3 -137 8 -159 11 -22 2 -50 -1 -62 -7z"/>
<path d="M9000 1487 c0 -34 24 -67 50 -67 9 0 11 10 7 36 -11 67 -57 91 -57
31z"/>
<path d="M8250 1466 c0 -21 12 -26 73 -27 53 -2 106 19 90 34 -3 4 -42 7 -85
7 -61 0 -78 -3 -78 -14z"/>
<path d="M8972 1408 c-19 -19 -14 -46 9 -53 27 -9 42 6 37 36 -3 27 -27 36
-46 17z"/>
<path d="M8362 1379 c-32 -12 -23 -33 17 -37 32 -3 81 20 81 38 0 12 -67 12
-98 -1z"/>
<path d="M179 8145 c-15 -8 -34 -30 -43 -49 -19 -41 -23 -144 -7 -201 28 -103
46 -77 44 64 -2 114 11 165 46 176 12 3 21 11 21 16 0 13 -31 10 -61 -6z"/>
<path d="M321 8119 c-69 -13 -125 -79 -67 -79 14 0 37 5 53 11 15 7 57 14 93
18 50 5 66 10 68 23 2 13 -6 18 -35 23 -21 4 -45 8 -53 10 -8 1 -35 -1 -59 -6z"/>
<path d="M3915 7974 c-52 -13 -85 -26 -85 -34 0 -4 53 -10 118 -12 139 -5 155
-12 238 -101 57 -60 92 -125 108 -198 4 -18 19 -31 55 -47 56 -26 74 -57 70
-123 l-3 -42 52 -13 c69 -18 111 -40 142 -73 14 -16 58 -40 99 -56 74 -28 141
-76 141 -101 0 -7 22 -56 50 -109 l50 -95 2 -134 c3 -120 1 -136 -16 -155 -23
-25 -41 -28 -31 -3 20 53 26 129 15 211 -10 75 -16 94 -55 152 -82 125 -163
199 -217 199 -23 0 -28 -4 -28 -24 0 -16 15 -34 53 -62 46 -35 56 -49 86 -124
49 -122 47 -182 -7 -321 -23 -58 -42 -113 -42 -122 0 -10 -20 -39 -44 -65 -24
-26 -48 -57 -54 -68 -11 -20 -8 -22 28 -28 24 -4 45 -14 52 -26 12 -18 20 -19
93 -14 l80 7 47 51 c27 28 48 57 48 64 0 6 7 12 15 12 29 0 15 -41 -30 -89
-25 -26 -45 -50 -45 -53 0 -3 37 -8 83 -12 45 -3 161 -15 257 -27 117 -13 222
-19 315 -17 l140 3 -2 92 c-3 151 -70 321 -188 478 -102 136 -241 257 -356
310 -63 28 -367 105 -417 105 -38 0 -96 31 -106 56 -5 14 3 15 62 9 103 -10
251 -42 278 -60 13 -8 45 -18 71 -21 68 -8 233 -91 333 -167 99 -76 221 -199
249 -255 11 -21 23 -55 26 -76 4 -21 25 -68 46 -104 67 -117 117 -314 102
-396 l-5 -26 -157 0 c-86 0 -185 5 -221 10 -103 15 -470 50 -523 50 -26 0 -64
-7 -85 -16 l-37 -17 40 -8 c22 -5 141 -15 265 -24 124 -8 304 -24 400 -36 99
-11 216 -19 269 -17 l95 3 20 34 c27 47 24 134 -7 236 -36 116 -136 394 -157
435 -29 56 -192 232 -266 288 -72 54 -330 192 -359 192 -9 0 -48 14 -86 30
-48 22 -109 37 -206 51 -76 12 -156 28 -178 37 -22 9 -63 15 -92 15 -42 -1
-53 2 -58 17 -3 10 -27 32 -53 49 -39 25 -50 38 -59 73 -27 99 -138 228 -238
274 -50 23 -142 37 -180 28z"/>
<path d="M292 7815 c-54 -17 -92 -41 -92 -60 0 -21 39 -19 96 6 42 19 61 21
166 17 103 -5 122 -8 153 -29 19 -13 42 -38 50 -55 14 -31 16 -31 107 -37 51
-3 129 -15 173 -26 108 -28 334 -140 370 -183 l28 -33 -24 -3 c-52 -5 -99 -24
-109 -42 -14 -26 4 -26 65 0 26 11 56 20 68 20 12 0 56 -23 97 -51 123 -84
102 -32 -42 107 -64 61 -97 85 -135 98 -28 9 -83 37 -122 62 -61 40 -86 48
-192 70 -67 13 -144 24 -170 24 -45 0 -48 2 -73 45 -24 40 -33 46 -92 65 -78
24 -253 27 -322 5z"/>
<path d="M145 7780 c3 -5 8 -10 11 -10 2 0 4 5 4 10 0 6 -5 10 -11 10 -5 0 -7
-4 -4 -10z"/>
<path d="M642 7438 c2 -25 8 -33 23 -33 15 0 21 8 23 33 3 29 1 32 -23 32 -24
0 -26 -3 -23 -32z"/>
<path d="M889 7438 c-62 -32 -64 -35 -67 -76 -4 -51 11 -55 34 -7 20 43 67 73
128 81 54 8 57 28 5 32 -25 2 -55 -7 -100 -30z"/>
<path d="M4340 7246 c0 -13 -2 -31 -5 -38 -7 -16 52 -38 101 -38 34 0 74 25
74 45 0 23 -74 55 -125 55 -41 0 -45 -2 -45 -24z"/>
<path d="M2820 7191 c0 -13 20 -27 78 -52 136 -58 201 -116 255 -224 34 -69
41 -108 27 -165 -9 -36 -9 -54 0 -69 13 -25 5 -42 -50 -116 -51 -68 -56 -85
-25 -85 33 0 85 47 107 98 25 55 34 172 19 241 -34 158 -161 300 -330 369 -66
27 -81 27 -81 3z"/>
<path d="M4528 7113 c-26 -43 -33 -148 -12 -173 16 -20 34 -87 34 -130 0 -63
9 -80 41 -80 34 0 34 -1 14 -41 -19 -35 -13 -49 21 -49 18 0 30 9 42 32 9 18
32 47 50 64 37 35 52 77 52 147 0 116 -48 196 -145 241 -29 14 -59 26 -65 26
-6 0 -20 -17 -32 -37z"/>
<path d="M583 6953 c-13 -2 -23 -8 -23 -11 0 -4 -15 -16 -34 -26 -19 -10 -37
-25 -40 -32 -9 -24 40 -16 104 17 l60 32 118 -12 c195 -20 238 -35 341 -126
86 -76 109 -91 122 -78 15 15 -2 44 -59 97 -81 76 -103 89 -166 102 -34 6 -88
19 -121 28 -56 15 -242 21 -302 9z"/>
<path d="M1554 6886 c-71 -31 -50 -37 103 -30 127 6 153 5 180 -10 18 -9 55
-21 83 -27 44 -9 53 -16 76 -54 23 -41 57 -65 71 -51 12 12 -20 62 -60 97 -36
31 -59 40 -159 62 -129 30 -244 35 -294 13z"/>
<path d="M891 6652 c-38 -19 -58 -51 -25 -38 11 4 56 10 100 13 109 8 148 -11
262 -128 47 -49 90 -89 94 -89 4 0 8 9 8 20 0 45 -162 184 -258 220 -65 25
-136 26 -181 2z"/>
<path d="M3330 6651 c0 -12 76 -80 106 -93 29 -14 85 -95 124 -181 43 -97 64
-191 64 -297 1 -88 -2 -103 -42 -204 -47 -122 -48 -126 -28 -126 27 0 73 55
95 114 78 209 2 522 -174 714 -52 58 -145 105 -145 73z"/>
<path d="M1920 6601 c0 -5 30 -12 68 -16 139 -15 235 -59 420 -191 20 -15 22
-15 22 -1 0 29 -44 66 -148 121 -135 73 -204 96 -292 96 -38 0 -70 -4 -70 -9z"/>
<path d="M4338 6473 c-18 -21 -68 -107 -68 -116 0 -4 8 -7 18 -7 34 0 82 68
82 114 0 30 -11 33 -32 9z"/>
<path d="M4697 6333 c-12 -11 -8 -43 6 -43 17 0 57 29 57 41 0 10 -53 13 -63
2z"/>
<path d="M2347 6264 c-3 -4 16 -28 43 -54 90 -88 147 -244 136 -370 -8 -81 5
-107 34 -71 37 44 24 176 -31 307 -44 106 -152 217 -182 188z"/>
<path d="M4640 6178 c-10 -23 -17 -45 -14 -50 2 -4 -15 -35 -38 -70 -38 -54
-51 -66 -102 -86 -31 -13 -80 -26 -107 -29 -27 -3 -57 -12 -66 -19 -17 -11
-15 -13 12 -24 49 -19 113 -5 253 57 7 3 12 -2 12 -11 0 -9 5 -16 10 -16 6 0
10 12 10 27 0 14 13 47 30 72 46 72 62 118 54 157 -9 46 -31 43 -54 -8z"/>
<path d="M1117 6062 c-35 -7 -12 -36 48 -59 101 -38 184 -156 193 -273 3 -47
-1 -64 -27 -113 -26 -49 -29 -62 -19 -80 22 -42 38 -123 38 -197 -1 -62 -5
-82 -25 -115 -14 -22 -25 -49 -25 -61 0 -24 -119 -142 -193 -193 -76 -52 -171
-91 -221 -91 -44 0 -74 -19 -61 -40 10 -16 80 -12 138 10 83 31 169 88 259
170 71 65 87 86 127 170 41 85 46 102 46 165 0 45 -9 97 -23 144 -25 78 -25
79 16 170 l16 34 525 -6 c289 -3 535 -2 546 2 29 12 -160 20 -637 28 l-427 6
-22 56 c-64 161 -131 253 -196 266 -47 10 -57 11 -76 7z"/>
<path d="M4279 5784 c-10 -13 -24 -14 -66 -9 -57 7 -62 2 -37 -33 22 -32 96
-31 129 3 14 13 25 31 25 40 0 20 -34 19 -51 -1z"/>
<path d="M2195 5569 c-308 -5 -599 -8 -648 -7 -48 2 -87 0 -87 -4 0 -10 -82
-7 520 -15 584 -7 1690 5 1690 18 0 5 -100 9 -222 8 -123 0 -329 2 -458 5
-129 2 -487 0 -795 -5z"/>
<path d="M3810 5503 c-25 -2 -139 -10 -255 -18 -115 -8 -274 -17 -352 -19 -78
-2 -150 -9 -160 -15 -27 -15 196 -14 462 4 121 8 268 15 327 15 91 0 170 12
157 24 -6 5 -130 11 -179 9z"/>
<path d="M4007 5483 c-21 -20 -4 -33 42 -33 46 0 80 18 64 33 -8 9 -98 9 -106
0z"/>
<path d="M2973 5452 c-13 -2 -23 -7 -23 -12 0 -13 32 -22 43 -11 15 15 4 26
-20 23z"/>
<path d="M2792 5442 c-92 -2 -122 -6 -119 -15 2 -7 18 -12 35 -11 137 2 189 6
202 14 8 5 12 10 10 12 -3 2 -60 2 -128 0z"/>
<path d="M2518 5429 c-53 -20 -32 -32 44 -25 39 3 74 9 77 11 18 19 -81 30
-121 14z"/>
<path d="M1930 5393 c-14 -3 -29 -9 -34 -14 -6 -5 36 -8 104 -6 79 2 115 6
118 15 3 9 -18 12 -80 11 -45 -1 -94 -4 -108 -6z"/>
<path d="M3145 5374 c-175 -20 -961 -94 -1489 -139 -99 -9 -190 -18 -203 -21
-40 -10 -25 -26 20 -20 23 3 87 8 142 11 101 6 190 15 614 60 129 14 363 34
520 45 294 21 447 36 465 47 5 4 50 9 100 12 58 4 91 10 94 19 5 16 -16 15
-263 -14z"/>
<path d="M1703 5383 c-40 -8 -15 -29 30 -25 60 5 77 12 52 22 -21 9 -46 10
-82 3z"/>
<path d="M3434 5330 c-274 -70 -520 -123 -684 -146 -86 -12 -130 -23 -140 -34
-8 -10 -65 -28 -130 -43 -63 -15 -171 -40 -240 -57 -327 -79 -593 -140 -670
-155 -102 -20 -137 -32 -144 -52 -9 -22 46 -11 479 98 606 152 989 238 1243
279 81 13 154 31 188 47 30 13 118 38 195 54 155 32 159 34 159 55 0 20 -10
18 -256 -46z"/>
<path d="M2255 5164 c-44 -8 -142 -28 -219 -45 -76 -16 -175 -34 -220 -40 -78
-10 -132 -31 -122 -48 7 -10 73 0 246 39 74 16 204 41 288 55 84 14 165 31
180 39 27 15 27 15 -23 15 -27 -1 -86 -7 -130 -15z"/>
<path d="M4854 5116 c-3 -7 9 -41 26 -74 67 -132 78 -310 25 -418 -27 -56 -74
-99 -135 -124 -22 -9 -30 -19 -30 -37 0 -23 -31 -60 -88 -105 -30 -24 -28 -38
8 -38 38 0 97 52 122 107 14 31 29 47 63 63 97 47 140 139 140 300 0 120 -24
213 -74 293 -31 48 -48 58 -57 33z"/>
<path d="M4053 4904 c-3 -9 0 -31 7 -48 28 -69 25 -92 -19 -142 -61 -70 -71
-130 -14 -88 49 37 83 89 95 145 10 47 9 59 -7 92 -22 46 -52 66 -62 41z"/>
<path d="M2030 4899 c0 -6 16 -26 35 -43 90 -83 87 -219 -6 -282 -23 -16 -44
-35 -47 -41 -5 -18 42 -16 78 2 95 49 100 273 9 350 -31 26 -69 34 -69 14z"/>
<path d="M1168 4794 c-4 -3 1 -26 9 -50 27 -80 -14 -226 -93 -330 l-27 -35 38
3 c36 3 40 7 71 69 46 89 68 180 59 242 -9 73 -37 122 -57 101z"/>
<path d="M5272 4752 c-6 -21 -27 -53 -47 -72 -40 -39 -43 -50 -15 -50 28 0 88
56 95 90 7 31 -1 70 -14 70 -4 0 -13 -17 -19 -38z"/>
<path d="M2975 4393 c40 -147 32 -337 -21 -495 -9 -27 -42 -79 -80 -124 -53
-64 -64 -83 -59 -104 4 -20 -3 -35 -32 -69 -65 -76 -160 -127 -326 -175 -43
-12 -78 -27 -79 -32 0 -5 9 -14 21 -20 18 -9 39 -7 101 10 43 12 86 28 97 37
10 9 42 25 71 36 64 23 118 73 157 145 15 29 43 69 60 89 44 49 113 169 137
236 33 96 43 203 29 327 -10 97 -15 114 -38 138 -34 36 -47 36 -38 1z"/>
<path d="M5007 4413 c-15 -15 -6 -43 13 -43 11 0 20 6 20 14 0 17 -24 38 -33
29z"/>
<path d="M3885 4330 c-9 -17 -25 -68 -36 -113 -30 -121 -36 -128 -194 -242
-56 -41 -94 -55 -140 -53 -43 1 -77 -14 -62 -28 3 -3 25 -9 49 -11 54 -6 94
10 210 85 79 50 95 66 135 129 34 56 47 88 55 140 6 37 14 76 19 85 13 25 11
38 -6 38 -8 0 -22 -14 -30 -30z"/>
<path d="M4796 4258 c-3 -13 -7 -41 -9 -63 -7 -61 -45 -140 -109 -227 -50 -68
-67 -82 -130 -114 -40 -20 -87 -47 -104 -60 -109 -84 -343 -136 -455 -102 -38
11 -40 11 -77 -29 -39 -43 -44 -45 -137 -63 -33 -7 -81 -23 -107 -36 -63 -32
-91 -30 -139 8 -39 31 -40 32 -68 15 -16 -9 -43 -17 -60 -17 -33 0 -39 -8 -19
-28 15 -15 80 -16 95 -1 8 8 19 5 42 -12 41 -30 94 -29 204 6 l88 28 29 -22
c34 -24 67 -27 113 -7 44 18 69 49 65 80 l-3 26 -35 -18 c-19 -11 -46 -22 -60
-26 -23 -7 -22 -4 11 27 l36 34 120 -5 c105 -4 130 -2 194 17 85 26 255 112
332 170 77 56 165 157 197 224 47 98 49 217 5 217 -8 0 -17 -10 -19 -22z"/>
<path d="M5151 4198 c-5 -29 -13 -79 -16 -110 -7 -63 -31 -107 -98 -176 -90
-93 -279 -196 -387 -210 -67 -10 -75 -14 -67 -37 9 -23 43 -19 167 21 79 26
124 46 149 69 20 17 56 45 81 62 70 48 175 163 190 208 17 51 20 217 3 222 -7
3 -15 -16 -22 -49z"/>
<path d="M3400 4118 c-24 -83 -32 -95 -89 -152 -39 -39 -72 -61 -101 -70 -51
-15 -60 -30 -30 -46 34 -18 84 5 155 72 71 66 115 142 115 200 0 30 -4 38 -18
38 -13 0 -23 -13 -32 -42z"/>
<path d="M3980 3935 c-30 -61 -78 -97 -140 -103 -55 -5 -62 -14 -27 -37 22
-14 29 -13 80 2 48 15 62 26 97 72 24 34 40 66 40 83 0 43 -25 34 -50 -17z"/>
<path d="M2182 3920 c-34 -75 -79 -113 -208 -177 -105 -52 -121 -57 -182 -58
-37 0 -97 4 -133 9 l-66 8 -6 -42 c-3 -23 -23 -78 -46 -123 -34 -71 -40 -90
-39 -142 3 -90 -25 -142 -135 -251 -148 -146 -278 -198 -497 -199 -124 0 -126
0 -190 34 -132 71 -161 84 -167 77 -21 -21 108 -95 229 -130 163 -47 412 1
573 111 156 106 245 236 245 357 0 40 10 74 46 153 l46 101 73 -5 c86 -7 173
16 303 79 126 62 195 132 217 221 6 24 4 27 -16 27 -19 0 -29 -11 -47 -50z"/>
<path d="M3190 3690 c-14 -25 -57 -48 -109 -56 -45 -7 -52 -18 -22 -34 30 -16
73 -12 108 10 48 29 79 100 43 100 -5 0 -14 -9 -20 -20z"/>
<path d="M5036 3604 c-9 -23 -8 -24 14 -24 11 0 20 6 20 14 0 20 -27 28 -34
10z"/>
<path d="M3680 3450 c-5 -10 -10 -26 -10 -35 0 -40 -64 -81 -225 -146 -155
-62 -162 -64 -245 -63 -47 1 -136 9 -198 18 -62 9 -115 16 -118 16 -3 0 -4
-23 -2 -52 3 -51 4 -52 62 -90 63 -41 103 -55 179 -65 26 -3 45 -8 42 -11 -3
-3 0 -11 6 -19 15 -17 80 -17 105 2 10 8 30 15 43 15 47 0 156 32 213 62 113
60 211 193 224 305 6 48 6 48 -30 65 -34 17 -36 17 -46 -2z"/>
<path d="M3322 3398 c-20 -21 -32 -23 -107 -22 -47 1 -85 -1 -85 -3 0 -16 25
-45 50 -58 75 -39 190 7 190 76 0 35 -17 37 -48 7z"/>
<path d="M425 3269 c-4 -6 2 -19 14 -30 12 -11 21 -24 21 -29 0 -17 176 -98
261 -121 116 -30 261 -36 373 -15 103 20 167 49 215 100 32 33 33 36 13 36
-12 0 -43 -19 -70 -43 l-49 -43 -147 -14 c-115 -10 -168 -11 -239 -2 -128 16
-157 26 -248 87 -104 72 -136 88 -144 74z"/>
<path d="M2730 3165 c0 -28 50 -89 91 -111 32 -16 99 -19 99 -4 0 5 -13 16
-29 25 -17 8 -57 37 -90 65 -33 27 -63 50 -66 50 -3 0 -5 -11 -5 -25z"/>
<path d="M1757 3090 c-19 -22 -43 -40 -52 -40 -14 0 -15 -3 -5 -15 31 -38 120
13 120 69 0 37 -21 32 -63 -14z"/>
<path d="M2740 3033 c0 -19 53 -69 80 -76 22 -6 21 0 -16 49 -26 35 -64 51
-64 27z"/>
<path d="M2015 3002 c-62 -20 -60 -18 -45 -37 28 -33 110 -3 110 40 0 18 -1
18 -65 -3z"/>
<path d="M1921 2902 c-5 -10 -26 -76 -47 -148 -20 -71 -45 -145 -55 -165 -33
-67 -137 -195 -191 -237 -78 -60 -232 -132 -283 -132 -33 0 -47 -6 -71 -31
-16 -16 -59 -51 -97 -76 -65 -45 -71 -47 -185 -60 -64 -8 -133 -14 -152 -15
-52 -2 -151 12 -145 21 2 5 31 11 63 15 31 4 71 15 88 25 17 10 61 26 100 35
111 27 160 46 179 66 18 19 17 20 -10 20 -15 0 -50 -13 -77 -30 -74 -46 -115
-39 -62 11 49 46 70 113 39 125 -8 3 -34 -8 -57 -25 -38 -28 -48 -31 -120 -31
-66 0 -84 -4 -109 -22 -35 -26 -134 -36 -194 -19 -21 6 -41 9 -43 6 -2 -2 12
-34 33 -70 20 -37 34 -69 32 -72 -13 -12 -85 43 -120 91 -49 68 -77 85 -110
64 -17 -12 -23 -26 -24 -54 -2 -54 17 -84 89 -146 34 -29 84 -74 110 -100 48
-47 55 -50 160 -63 25 -3 52 -13 58 -20 11 -13 3 -15 -53 -15 -49 0 -87 8
-149 31 -82 30 -84 30 -133 14 -70 -22 -190 -31 -209 -15 -9 6 -49 22 -89 35
l-75 23 -7 -399 c-7 -361 -6 -401 9 -424 24 -36 53 -31 126 20 99 69 152 56
165 -42 12 -83 24 -119 50 -143 l25 -24 15 22 c41 58 82 106 98 116 26 16 50
-17 82 -114 34 -102 68 -135 130 -126 26 4 46 2 56 -6 25 -20 197 -253 216
-292 16 -34 16 -37 -1 -55 -22 -24 -100 -56 -115 -46 -6 3 -11 12 -11 20 0 19
-48 55 -74 55 -12 0 -31 -6 -41 -14 -19 -13 -18 -16 23 -60 l43 -46 -28 -35
c-17 -21 -37 -35 -50 -35 -27 0 -28 2 -7 42 12 23 13 33 4 42 -8 8 -20 2 -46
-26 -33 -37 -57 -47 -68 -29 -3 5 14 31 39 57 46 50 53 76 22 82 -23 5 -54
-23 -77 -68 -18 -36 -57 -77 -65 -69 -2 3 5 33 15 68 11 34 20 76 20 93 0 28
-2 30 -27 23 -15 -3 -39 -15 -55 -26 -15 -11 -42 -23 -60 -26 -27 -4 -41 -17
-73 -64 -39 -58 -88 -99 -116 -99 -8 0 -27 12 -42 26 -22 19 -26 28 -18 38 8
10 7 17 -4 26 -20 16 -19 31 0 23 9 -3 22 -21 30 -41 15 -34 16 -34 35 -17 31
28 26 71 -10 90 -60 31 -124 5 -140 -56 -6 -20 -19 -44 -30 -54 -26 -24 -25
-51 2 -93 23 -33 24 -34 83 -29 34 2 76 12 94 21 32 17 34 17 55 -3 l22 -20
48 80 c52 87 102 143 135 152 29 7 27 -7 -4 -27 -29 -19 -32 -42 -9 -67 16
-17 15 -19 -10 -29 -15 -5 -33 -10 -40 -10 -8 0 -19 -7 -26 -15 -10 -12 -10
-18 0 -30 17 -20 49 -19 106 5 44 19 48 19 65 4 12 -10 27 -14 42 -10 13 3 45
-1 70 -10 58 -20 76 -11 122 61 29 45 40 55 63 55 15 0 59 16 97 35 70 35 82
36 93 5 4 -10 27 -33 51 -51 61 -47 70 -64 48 -86 -17 -17 -18 -17 -23 5 -9
31 -19 28 -43 -14 -25 -42 -25 -44 -7 -44 7 0 19 -7 26 -15 11 -13 8 -22 -19
-55 -35 -44 -40 -70 -13 -70 25 0 57 36 79 90 39 97 41 97 105 17 22 -29 49
-58 60 -66 29 -20 62 -1 97 55 l29 47 -28 46 c-15 25 -65 104 -112 176 -130
198 -180 306 -237 509 -16 56 -40 118 -54 138 -13 20 -54 98 -91 173 -63 126
-76 174 -51 182 23 7 152 -254 365 -737 92 -210 177 -379 251 -502 33 -54 59
-109 59 -123 0 -26 48 -65 81 -65 17 0 60 43 79 78 l12 24 22 -21 c27 -26 56
-27 56 -3 0 67 -66 229 -124 305 -30 40 -41 65 -50 124 -3 13 -13 37 -24 55
-50 83 -137 323 -212 588 -11 41 -44 146 -72 233 l-51 157 -34 0 c-43 0 -43
-13 3 -130 19 -51 40 -117 45 -147 6 -30 32 -114 58 -187 66 -178 101 -292
101 -324 0 -15 23 -74 50 -131 28 -57 50 -110 50 -117 0 -8 14 -41 30 -74 34
-67 39 -90 14 -69 -22 18 -49 75 -69 144 -9 33 -28 79 -41 101 -28 49 -49 107
-99 269 -20 66 -45 134 -55 150 -10 17 -22 48 -25 70 -4 22 -19 67 -33 100
-13 33 -37 105 -53 160 -36 129 -55 172 -76 179 -10 3 -49 12 -88 21 -38 9
-99 32 -134 52 -103 58 -185 143 -137 143 8 0 29 -17 48 -39 28 -32 50 -44
139 -75 100 -34 139 -43 139 -31 0 17 -35 84 -65 124 -19 26 -39 60 -44 74
-10 26 -9 27 22 26 31 0 34 -4 87 -114 48 -99 58 -114 80 -114 38 -1 54 13 47
41 -4 13 -47 91 -96 173 -85 144 -88 150 -68 159 81 32 189 90 225 121 41 36
112 65 157 65 26 0 248 146 292 191 52 55 169 272 188 347 8 37 22 88 30 114
16 49 12 78 -11 78 -7 0 -18 -8 -23 -18z m-951 -974 l0 -43 -32 33 c-28 27
-31 34 -18 42 34 22 50 12 50 -32z m-160 -1484 c0 -8 -4 -12 -10 -9 -5 3 -10
10 -10 16 0 5 5 9 10 9 6 0 10 -7 10 -16z m894 -270 c9 -22 -3 -32 -14 -14
-12 19 -12 30 -1 30 5 0 12 -7 15 -16z"/>
<path d="M1701 2775 c-41 -43 -117 -71 -213 -82 l-73 -8 28 -19 c62 -42 210
-26 276 30 34 28 54 81 38 102 -13 17 -18 15 -56 -23z"/>
<path d="M1435 2781 c-12 -20 70 -43 88 -24 4 3 2 12 -4 20 -13 15 -75 18 -84
4z"/>
<path d="M367 2649 c-26 -15 -47 -63 -47 -108 0 -47 14 -60 106 -91 61 -21
204 -39 204 -25 0 9 -231 235 -240 235 -3 0 -13 -5 -23 -11z"/>
<path d="M16 2588 c-10 -39 -7 -203 6 -239 18 -54 48 -90 92 -110 39 -18 136
-26 136 -12 0 3 -26 40 -58 82 -74 95 -78 104 -98 188 -17 74 -37 113 -58 113
-8 0 -16 -10 -20 -22z"/>
<path d="M2120 2575 c0 -11 9 -33 19 -49 11 -16 17 -35 14 -42 -7 -18 75 -104
114 -120 68 -29 223 -12 259 28 25 27 9 34 -31 15 -20 -9 -57 -17 -83 -17 -74
1 -128 31 -214 123 -57 60 -78 77 -78 62z"/>
<path d="M765 2540 c-8 -25 1 -40 24 -40 24 0 45 25 37 45 -8 23 -53 19 -61
-5z"/>
<path d="M1045 2495 c-23 -24 -45 -35 -93 -45 -50 -10 -60 -15 -51 -26 31 -37
143 -23 178 23 23 29 28 68 9 75 -7 3 -26 -9 -43 -27z"/>
<path d="M320 2440 c26 -91 105 -146 254 -176 67 -14 83 -15 100 -3 12 7 40
23 64 34 l43 22 -51 47 c-51 48 -52 48 -98 41 -26 -5 -79 -9 -118 -9 -65 -1
-75 2 -131 37 -34 20 -63 37 -66 37 -3 0 -2 -14 3 -30z"/>
<path d="M25 2218 c-7 -24 -11 -158 -4 -158 4 0 30 -18 59 -41 67 -53 104 -59
154 -25 l37 25 -83 54 c-80 51 -96 69 -118 130 -10 28 -37 37 -45 15z"/>
<path d="M2386 2185 c-29 -27 -34 -45 -10 -45 19 0 56 19 66 34 27 40 -16 49
-56 11z"/>
<path d="M2300 2191 c0 -5 -25 -39 -55 -76 -30 -36 -55 -69 -55 -71 0 -17 38
4 80 44 53 51 78 112 46 112 -9 0 -16 -4 -16 -9z"/>
<path d="M2611 2085 c-29 -30 -54 -67 -57 -85 -8 -36 -123 -149 -186 -182 -45
-22 -101 -29 -378 -44 -148 -8 -210 2 -310 52 -47 24 -82 51 -110 84 -48 57
-90 69 -90 26 0 -48 154 -146 285 -181 69 -19 346 -22 468 -5 94 13 212 71
294 145 50 45 63 63 68 95 5 31 14 44 37 56 40 21 71 94 39 94 -5 0 -31 -25
-60 -55z"/>
<path d="M1937 2074 c-3 -3 -38 -10 -77 -14 -39 -4 -74 -11 -78 -14 -10 -11
18 -24 74 -37 64 -14 109 2 109 40 0 24 -15 38 -28 25z"/>
<path d="M2898 2031 c-58 -37 -67 -51 -33 -51 16 0 41 14 68 40 50 47 32 53
-35 11z"/>
<path d="M2264 1850 c-40 -16 -38 -30 4 -30 43 0 75 23 46 34 -19 7 -23 7 -50
-4z"/>
<path d="M2915 1638 c17 -56 46 -109 81 -147 36 -41 91 -77 101 -68 12 13 -30
79 -128 200 -34 42 -64 51 -54 15z"/>
<path d="M2365 1595 c-16 -7 -63 -39 -103 -72 -89 -74 -125 -85 -234 -78 -122
9 -135 12 -160 29 -29 21 -38 20 -38 -2 0 -39 30 -50 176 -63 l142 -13 57 35
c59 36 204 163 195 172 -3 3 -18 0 -35 -8z"/>
<path d="M2944 1439 c-11 -19 13 -34 31 -19 13 11 13 15 3 21 -18 12 -26 11
-34 -2z"/>
<path d="M9920 1352 c0 -26 25 -62 42 -62 15 0 17 4 9 18 -13 24 -51 57 -51
44z"/>
<path d="M10850 1172 c-128 -98 -301 -139 -608 -144 -84 -2 -143 -7 -145 -13
-1 -5 21 -18 48 -28 43 -15 75 -17 220 -13 193 5 270 21 393 82 101 49 228
177 174 174 -4 -1 -41 -27 -82 -58z"/>
<path d="M10580 1085 c0 -8 5 -15 10 -15 6 0 10 7 10 15 0 8 -4 15 -10 15 -5
0 -10 -7 -10 -15z"/>
<path d="M2768 1068 c-9 -24 11 -74 42 -103 16 -16 32 -26 35 -23 3 2 -2 25
-11 50 -17 51 -58 98 -66 76z"/>
<path d="M2895 1018 c17 -53 67 -120 80 -106 9 9 -44 103 -66 116 -19 12 -20
12 -14 -10z"/>
<path d="M2487 733 c-13 -13 -6 -34 27 -86 19 -28 43 -77 52 -107 10 -30 28
-69 39 -86 27 -39 35 -61 75 -192 28 -93 55 -142 79 -142 16 0 33 59 26 87 -3
16 -24 55 -45 89 -21 33 -79 142 -128 240 -87 173 -111 212 -125 197z"/>
<path d="M2256 704 c-3 -9 9 -42 28 -77 19 -34 42 -84 51 -112 9 -27 38 -90
65 -140 26 -49 55 -114 65 -142 18 -56 53 -93 67 -70 17 26 7 85 -22 138 -16
30 -53 99 -81 154 -64 125 -148 265 -159 265 -4 0 -11 -7 -14 -16z"/>
<path d="M2120 683 c0 -9 47 -120 105 -247 57 -127 105 -242 107 -256 5 -43
34 -36 53 14 l17 45 -35 58 c-19 32 -74 136 -121 231 -68 136 -90 172 -106
172 -12 0 -20 -7 -20 -17z"/>
<path d="M2082 533 c22 -65 63 -169 89 -231 27 -63 49 -129 49 -147 0 -38 11
-49 39 -40 32 10 32 33 0 128 -35 106 -188 407 -206 407 -8 0 2 -41 29 -117z"/>
<path d="M2420 623 c0 -10 11 -38 25 -62 14 -23 25 -52 25 -63 0 -24 15 -53
52 -98 15 -19 28 -46 28 -61 0 -55 32 -109 66 -109 3 0 4 21 2 48 -3 33 -17
67 -48 116 -24 37 -60 107 -80 155 -22 50 -44 87 -54 89 -10 2 -16 -3 -16 -15z"/>
<path d="M1873 595 c-3 -9 1 -23 10 -33 17 -20 144 -335 153 -381 8 -37 42
-61 55 -40 5 8 9 32 9 54 l1 40 17 -50 c19 -57 30 -61 51 -23 15 25 13 31 -36
130 -28 57 -57 120 -64 141 -7 20 -17 37 -21 37 -4 0 -21 26 -37 59 -27 52
-55 80 -69 67 -2 -3 5 -21 16 -40 12 -19 37 -79 57 -132 20 -53 43 -107 51
-120 9 -12 14 -33 12 -46 -2 -16 -30 37 -88 164 -80 176 -102 210 -117 173z"/>
<path d="M1825 547 c4 -17 29 -84 55 -148 27 -64 52 -129 55 -145 6 -28 6 -28
-9 -10 -9 11 -16 27 -16 36 0 9 -9 25 -20 35 -11 10 -20 25 -20 34 0 27 -84
201 -97 201 -20 0 -16 -21 20 -117 64 -167 58 -197 -7 -38 -37 90 -81 165 -97
165 -19 0 -7 -48 30 -128 21 -46 56 -137 77 -202 46 -142 73 -159 74 -47 l1
42 20 -39 c12 -21 18 -47 16 -57 -3 -11 -1 -19 3 -19 5 0 15 -3 24 -6 10 -4
17 2 22 20 5 21 10 25 30 20 23 -6 24 -4 24 37 0 35 -17 81 -82 216 -81 167
-118 221 -103 150z"/>
<path d="M983 325 c-33 -15 -53 -30 -53 -41 0 -9 5 -14 13 -11 6 3 19 8 27 11
11 5 15 -1 15 -24 0 -16 -4 -30 -10 -31 -5 0 -23 -2 -40 -2 -25 -2 -31 -7 -33
-29 -4 -31 3 -33 60 -18 41 12 78 51 78 83 0 11 9 31 21 43 23 24 18 44 -9 44
-9 0 -41 -11 -69 -25z"/>
</g>
</svg>
