<svg id="Layer_1" data-name="Layer 1" xmlns="http://www.w3.org/2000/svg" viewBox="0 0 279.87 89.29"><defs><style>.cls-1{fill:#231f20;}.cls-2{fill:#b58147;}.cls-3{fill:#535052;}.cls-4{fill:#efcc04;}.cls-5{fill:#d4d3d5;}.cls-6{fill:none;}</style></defs><path class="cls-1" d="M244.17,391.66,242,407.28h-6.25l3.07-21.87h21.88l-3.08,21.87h-6.25l2.2-15.62H252l-2.2,15.62h-6.25l2.2-15.62Z" transform="translate(-180.49 -367.62)"/><path class="cls-1" d="M269.48,401H285.1l-.87,6.25H262.35l3.08-21.87h21.88l-2,14.06H269.7Zm1.33-9.37-.24,1.56H280l.23-1.56Z" transform="translate(-180.49 -367.62)"/><path class="cls-1" d="M305.88,396.34l5.61,6.52-.63,4.42h-4.42l-5.59-6.51-7.44,6.51H289l.63-4.42,7.42-6.52-5.6-6.51.63-4.42h4.42l5.59,6.51,7.44-6.51h4.42l-.62,4.42Z" transform="translate(-180.49 -367.62)"/><path class="cls-1" d="M321.88,407.28h-6.25l3.08-21.87H325Z" transform="translate(-180.49 -367.62)"/><path class="cls-1" d="M343.14,401l.44-3.12h6.25l-1.31,9.37H326.64l3.08-21.87h21.87l-1.32,9.37H344l.45-3.12h-9.38L333.77,401Z" transform="translate(-180.49 -367.62)"/><path class="cls-1" d="M371.11,391.66H355.48l.88-6.25h21.87l-3.08,21.87H353.28l2-14.06h15.62ZM369.78,401l.22-1.56h-9.38L360.4,401Z" transform="translate(-180.49 -367.62)"/><path class="cls-1" d="M388.37,391.66l-2.2,15.62h-6.25L383,385.41h21.88l-3.08,21.87h-6.25l2.2-15.62Z" transform="translate(-180.49 -367.62)"/><path class="cls-1" d="M424.38,391.66H408.76l.87-6.25h21.88l-3.08,21.87H406.55l2-14.06h15.63ZM423.05,401l.22-1.56H413.9l-.22,1.56Z" transform="translate(-180.49 -367.62)"/><path class="cls-2" d="M279,423.87l1.38-9.82h9.81l-1,6.89-3.34,2.93Zm3.2-2.81h2.92l1.46-1.28.42-2.92h-4.21Z" transform="translate(-180.49 -367.62)"/><path class="cls-2" d="M294.14,421.06h7l-.39,2.81h-9.81l1.38-9.82h9.81l-.89,6.31h-7Zm.59-4.2-.1.7h4.2l.11-.7Z" transform="translate(-180.49 -367.62)"/><path class="cls-2" d="M311.12,420.82l-.43,3.05h-2.8l1.38-9.82h9.81L318,421.76H315.9l1.8,2.11h-4Zm.56-4-.3,2.1h4.2l.3-2.1Z" transform="translate(-180.49 -367.62)"/><path class="cls-2" d="M321.22,414.05H331l-1.38,9.82h-9.82Zm2.41,2.81-.6,4.2h4.21l.59-4.2Z" transform="translate(-180.49 -367.62)"/><path class="cls-2" d="M333.46,412h2.8l-.29,2.1h7l-.39,2.81h-7l-.6,4.2h7l-.39,2.81h-9.82Z" transform="translate(-180.49 -367.62)"/><path class="cls-2" d="M345.11,414.05h2.81l-1,7h4.2l1-7h2.81l-1.38,9.82h-9.82Z" transform="translate(-180.49 -367.62)"/><path class="cls-2" d="M358.49,423.87h-2.81L357.36,412h2.8Z" transform="translate(-180.49 -367.62)"/><path class="cls-2" d="M362,414.05h9.82l-1.39,9.82h-9.81Zm2.41,2.81-.59,4.2H368l.6-4.2Z" transform="translate(-180.49 -367.62)"/><path class="cls-2" d="M372.57,423.87l.39-2.81h7l.1-.7h-7l.89-6.31h9.82l-.4,2.81h-7l-.1.7h7l-.89,6.31Z" transform="translate(-180.49 -367.62)"/><path class="cls-3" d="M202.76,367.92c0,.13,1.24,4.1,2.73,8.78,3.34,10.49,5.85,17.89,7.49,22.1.23.6.72,1.78.74,1.8a3.15,3.15,0,0,0,.38-.22c.2-.13.67-.39,1.05-.58a13,13,0,0,1,2.87-1l.57-.16c0-.05-.29-.72-.54-1.31-1.94-4.53-7-14.71-13.81-27.75-.5-1-1-1.78-1-1.83a.21.21,0,0,0-.23-.08A.26.26,0,0,0,202.76,367.92Z" transform="translate(-180.49 -367.62)"/><path class="cls-4" d="M214.37,401.9c.74,1.28,1.42,2.52,2.72,5,1.09,2.06,1.73,3.23,1.77,3.22l.2-.17a4,4,0,0,1,2.26-.92l.32,0a33.08,33.08,0,0,0-1-3.46c-.74-2.43-1.16-3.88-1.47-5s-.26-1-.38-1l-.57.14a12.13,12.13,0,0,0-3.81,1.61l-.29.21A2.33,2.33,0,0,0,214.37,401.9Z" transform="translate(-180.49 -367.62)"/><path class="cls-5" d="M218.29,411.59a4,4,0,0,0-.3,3,5.05,5.05,0,0,0,.64,1.27,12.16,12.16,0,0,1,1.42,2.1,5.62,5.62,0,0,1,.55,1.7,6,6,0,0,1-.66,3.48c-.15.35-.2.48-.18.55a.3.3,0,0,0,.34.22l.13,0,1.07-1.44c.58-.8,1.23-1.69,1.43-2,2.32-3.47,3.19-5.81,2.87-7.73a3.44,3.44,0,0,0-1.33-2.27,3.78,3.78,0,0,0-2.73-.91,4.14,4.14,0,0,0-2.23.86A4.44,4.44,0,0,0,218.29,411.59Z" transform="translate(-180.49 -367.62)"/><path class="cls-3" d="M191.94,368.43c0,.13,1.24,4.1,2.73,8.79,3.34,10.48,5.85,17.88,7.49,22.09.23.61.72,1.78.74,1.8a2.08,2.08,0,0,0,.38-.22c.2-.13.67-.38,1.05-.57a12.51,12.51,0,0,1,2.87-1.05l.57-.16c0-.05-.29-.71-.54-1.31-1.94-4.53-7-14.7-13.81-27.74-.5-1-.95-1.79-1-1.84a.21.21,0,0,0-.23-.08A.26.26,0,0,0,191.94,368.43Z" transform="translate(-180.49 -367.62)"/><path class="cls-4" d="M203.55,402.41c.74,1.28,1.42,2.52,2.72,5,1.09,2.06,1.73,3.23,1.77,3.22l.2-.17a4,4,0,0,1,2.26-.92,1.27,1.27,0,0,0,.32,0,33.47,33.47,0,0,0-1-3.45c-.74-2.43-1.16-3.89-1.47-5s-.26-1-.38-1l-.57.13a12.14,12.14,0,0,0-3.81,1.62,3.22,3.22,0,0,0-.29.2A2.33,2.33,0,0,0,203.55,402.41Z" transform="translate(-180.49 -367.62)"/><path class="cls-5" d="M207.47,412.1a4,4,0,0,0-.3,3,5,5,0,0,0,.64,1.26,12.16,12.16,0,0,1,1.42,2.1,5.68,5.68,0,0,1,.55,1.71,6,6,0,0,1-.66,3.48c-.15.34-.2.47-.18.55a.29.29,0,0,0,.34.21h.13l1.07-1.45c.58-.8,1.23-1.69,1.43-2,2.32-3.46,3.19-5.81,2.87-7.73a3.44,3.44,0,0,0-1.33-2.26,3.74,3.74,0,0,0-2.73-.91,4.12,4.12,0,0,0-2.23.85A4.59,4.59,0,0,0,207.47,412.1Z" transform="translate(-180.49 -367.62)"/><path class="cls-3" d="M180.49,368.43c0,.13,1.24,4.1,2.73,8.79,3.34,10.48,5.85,17.88,7.48,22.09.24.61.73,1.78.75,1.8a2.08,2.08,0,0,0,.38-.22c.2-.13.67-.38,1-.57a12.51,12.51,0,0,1,2.87-1.05l.57-.16c0-.05-.29-.71-.54-1.31-1.94-4.53-7-14.7-13.81-27.74-.5-1-.95-1.79-1-1.84a.21.21,0,0,0-.23-.08A.26.26,0,0,0,180.49,368.43Z" transform="translate(-180.49 -367.62)"/><path class="cls-4" d="M192.09,402.41c.75,1.28,1.43,2.52,2.73,5,1.09,2.06,1.73,3.23,1.77,3.22l.2-.17a4,4,0,0,1,2.26-.92,1.27,1.27,0,0,0,.32,0,33.47,33.47,0,0,0-1-3.45c-.74-2.43-1.16-3.89-1.47-5s-.26-1-.38-1l-.57.13a12.14,12.14,0,0,0-3.81,1.62,2.1,2.1,0,0,0-.29.2A2.67,2.67,0,0,0,192.09,402.41Z" transform="translate(-180.49 -367.62)"/><path class="cls-5" d="M196,412.1a4,4,0,0,0-.3,3,5,5,0,0,0,.64,1.26,12.79,12.79,0,0,1,1.42,2.1,5.39,5.39,0,0,1,.54,1.71,5.91,5.91,0,0,1-.65,3.48c-.15.34-.2.47-.18.55a.29.29,0,0,0,.34.21H198l1.07-1.45c.58-.8,1.23-1.69,1.43-2,2.32-3.46,3.19-5.81,2.87-7.73a3.44,3.44,0,0,0-1.33-2.26,3.74,3.74,0,0,0-2.73-.91,4.12,4.12,0,0,0-2.23.85A4.59,4.59,0,0,0,196,412.1Z" transform="translate(-180.49 -367.62)"/><line class="cls-6" x1="279.87" y1="89.29" x2="279.87" y2="86.74"/></svg>